<svg id="Layer_1" data-name="Layer 1" xmlns="http://www.w3.org/2000/svg" viewBox="0 0 432 432"><defs><style>.cls-1,.cls-8{fill:#fff;}.cls-1,.cls-2{stroke:#231f20;}.cls-1,.cls-2,.cls-3,.cls-4,.cls-5,.cls-6,.cls-7{stroke-miterlimit:10;}.cls-1{stroke-width:6.39px;}.cls-2{fill:none;stroke-width:5.32px;}.cls-3{font-size:28.45px;stroke-width:0.53px;font-family:Replica-Bold;font-weight:700;}.cls-3,.cls-4,.cls-5,.cls-6,.cls-7{stroke:#000;}.cls-4{stroke-width:0.53px;}.cls-5{stroke-width:3.19px;}.cls-6{stroke-width:2.66px;}.cls-7{stroke-width:1.6px;}</style></defs><circle class="cls-1" cx="215.6" cy="214.87" r="181.97"/><circle class="cls-2" cx="215.6" cy="214.87" r="130.78"/><text class="cls-3" transform="translate(76.32 258.41) rotate(-102.62) scale(1 1.17)">A</text><text class="cls-3" transform="translate(72.02 239.01) rotate(-94.49) scale(1 1.17)">R</text><text class="cls-3" transform="translate(70.52 218.05) rotate(-86.58) scale(1 1.17)">T</text><text class="cls-3" transform="translate(71.98 198.91) rotate(-80.75) scale(1 1.17)">I</text><text class="cls-3" transform="matrix(0.26, -0.96, 1.13, 0.31, 73.42, 188.9)">S</text><text class="cls-3" transform="translate(78.77 169.75) rotate(-67.1) scale(1 1.17)">T</text><text class="cls-3" transform="translate(86.12 152.46) rotate(-59.49) scale(1 1.17)">S</text><text class="cls-3" transform="translate(96.61 135.34) rotate(-53.83) scale(1 1.17)"> </text><text class="cls-3" transform="matrix(0.66, -0.76, 0.88, 0.77, 101.92, 127.98)">•</text><text class="cls-3" transform="matrix(0.72, -0.7, 0.82, 0.84, 111.91, 116.76)"> </text><text class="cls-3" transform="matrix(0.78, -0.62, 0.73, 0.92, 117.93, 110.5)">C</text><text class="cls-3" transform="translate(134.84 97.2) rotate(-29.47) scale(1 1.17)">O</text><text class="cls-3" transform="matrix(0.94, -0.34, 0.39, 1.1, 154.72, 85.88)">M</text><text class="cls-3" transform="matrix(0.99, -0.16, 0.18, 1.16, 180.24, 76.91)">M</text><text class="cls-3" transform="matrix(1, 0.01, -0.01, 1.17, 207.06, 72.97)">U</text><text class="cls-3" transform="matrix(0.99, 0.16, -0.19, 1.15, 228.85, 73.29)">N</text><text class="cls-3" transform="translate(251.29 77.5) rotate(16.01) scale(1 1.17)">I</text><text class="cls-3" transform="matrix(0.93, 0.37, -0.43, 1.09, 261.05, 80.15)">T</text><text class="cls-3" transform="matrix(0.87, 0.49, -0.57, 1.02, 278.96, 87.44)">Y</text><text class="cls-3" transform="translate(294.87 96.69) rotate(34.62) scale(1 1.17)"> </text><text class="cls-3" transform="matrix(0.77, 0.63, -0.74, 0.9, 302.38, 101.82)">•</text><text class="cls-3" transform="translate(313.87 111.49) rotate(44.14) scale(1 1.17)"> </text><text class="cls-3" transform="translate(320.61 117.28) rotate(51.54) scale(1 1.17)">W</text><text class="cls-3" transform="translate(337.73 139.34) rotate(61.58) scale(1 1.17)">O</text><text class="cls-3" transform="translate(348.51 159.61) rotate(70.32) scale(1 1.17)">R</text><text class="cls-3" transform="matrix(0.2, 0.98, -1.15, 0.24, 355.53, 179.69)">K</text><text class="cls-3" transform="translate(359.42 198.93) rotate(85.98) scale(1 1.17)">E</text><text class="cls-3" transform="translate(360.74 218.16) rotate(94.05) scale(1 1.17)">R</text><text class="cls-3" transform="matrix(-0.21, 0.98, -1.14, -0.25, 359.1, 239.38)">S</text><path class="cls-4" d="M171.18,290.85l.35-.36h4.28l.36.36c-.71,5-4.64,7.84-10.34,7.84-7.85,0-12.12-5.35-12.12-12.83S158,273,165.83,273c5.7,0,9.63,2.85,10.34,7.49l-.36.35h-4.28l-.35-.35q-1.08-3.21-5.35-3.21c-5,0-7.13,3.56-7.13,8.56s2.14,8.55,7.13,8.55C168.68,294.41,170.46,293.34,171.18,290.85Z"/><path class="cls-4" d="M192.93,297.18c-7.49,0-12.13-5.35-12.13-12.83s4.64-12.84,12.13-12.84,12.12,5.35,12.12,12.84S200.41,297.18,192.93,297.18Zm0-21.39c-4.64,0-7.13,3.57-7.13,8.56s2.49,8.55,7.13,8.55,7.13-3.56,7.13-8.55S197.56,275.79,192.93,275.79Z"/><path class="cls-4" d="M221.09,291.2H210.75l-.35-.35v-3.57l.35-.35h10.34l.36.35v3.57Z"/><path class="cls-4" d="M238.92,298.69c-7.49,0-12.12-5.35-12.12-12.83S231.43,273,238.92,273,251,278.37,251,285.86,246.41,298.69,238.92,298.69Zm0-21.39c-4.63,0-7.13,3.56-7.13,8.56s2.5,8.55,7.13,8.55,7.13-3.56,7.13-8.55S243.56,277.3,238.92,277.3Z"/><path class="cls-4" d="M269.37,285.23l-6.76.39-.34.38.54,9.25-.33.38-4.28.25-.37-.34-1.41-24.2.33-.38,11.75-.68c5-.3,8.69,2,9,7S274.35,284.93,269.37,285.23Zm-.62-10.68-6.77.39-.33.38L262,281l.38.34,6.76-.4c2.14-.12,3.52-.92,3.37-3.41S270.88,274.42,268.75,274.55Z"/><path class="cls-5" d="M160.75,372.62c1.56-4.89,4-6.53,9.47-6.25l3.75.2c3.52.2,5.09-.53,5.78-2.73.85-2.71-.91-5.61-4.43-6.71a8.36,8.36,0,0,0-8.6,2.24l-.73-1.45a9.67,9.67,0,0,1,9.88-2.36c4.39,1.37,6.53,5.11,5.35,8.86-.93,3-3,4-7.44,3.8l-3.72-.19c-4.49-.25-6.5,1.09-7.74,5l15.32,4.79-.49,1.59-16.88-5.28Z"/><path class="cls-5" d="M193.82,371.93c.53-6.72,5.17-11.23,11.31-10.75s10,5.66,9.52,12.38-5.2,11.19-11.33,10.71S193.3,378.61,193.82,371.93Zm19.25,1.5c.46-5.82-2.81-10.31-8.06-10.72s-9.16,3.51-9.62,9.34,2.82,10.28,8.05,10.69S212.62,379.23,213.07,373.43Z"/><path class="cls-5" d="M229.45,381.86l8.15-1.21L235,363.27h0c-1.07,2.21-3.22,3.61-6.3,4.88l-.53-1.54c3.25-1.23,5.45-3.05,6.62-5.74l1.45-.21,2.92,19.75,6.56-1,.25,1.64-16.28,2.41Z"/><path class="cls-5" d="M257.44,371.88l1.55-.53a0,0,0,0,1,0,0c2.78,3.82,5.93,3.55,10,2,4.49-1.66,6.48-5.9,4.16-13.11-.39,2.86-2.16,5.19-6.3,6.72-5,1.85-9.47.45-11-3.68s1-8.38,6-10.23c5.32-2,9.93-.53,11.92,4.84,3.22,8.71,2,14.7-4.32,17C264.89,376.69,260.68,376.4,257.44,371.88ZM272,357.32c-1.22-3.29-5.12-4.27-9.48-2.66-4.14,1.53-6.33,4.8-5.11,8.09s5,4.22,9.12,2.69S273.15,360.55,272,357.32Z"/><path d="M157.14,161.57l-3.5,0-.39-.41-2-5.37-.78-.41-9.73.1-.78.42-1.92,5.41-.38.41-3.51,0-.37-.41,0-4.15,8.76-24.12.39-.42,5.05,0,.4.41L157.49,157l0,4.14Zm34.29,0-4.67.2-.4-.39-.63-16.15h-.39l-5.59,16.43-.38.44-4.27.19-.4-.4L167.86,146l-.39,0,.62,16.15-.37.43-4.67.2-.4-.39-1.1-28.15.37-.43,5.84-.27.41.4,8.56,19.94.39,0,7-20.64.37-.43,5.84-.27.39.41,1.09,28.16Zm19.47-9.36-7.39.17-.38.42.2,10.77L203,164l-4.67.1-.39-.4-.55-28.17.38-.42,12.84-.3c5.45-.13,9.4,2.68,9.51,8.48S216.35,152,210.9,152.16Zm33.42,9.65-17.51.37-.4-.41-.49-28.18.37-.42,4.67-.1.41.41.41,23.2.39.41,12.07-.26.39.41.08,4.14Zm23.22-1.57-18.29-.1-.39-.41.15-28.19.42-.41,18.29.1.39.41,0,4.15-.39.41-12.84-.07-.4.41,0,5.81.39.41,12.06.07.39.41,0,4.15-.39.41-12.07-.06-.39.41,0,6.63.39.42,12.84.07.39.41,0,4.15Zm17.33.14-8.55.47-.41-.4-1.33-28.14.36-.44,8.55-.46c9.73-.53,13.48,4.66,13.91,13.76S294.59,159.85,284.87,160.38Zm-142.6-9.85,6.61-.07.39-.42-3.58-9.91h-.39l-3.43,10Zm60.62-10.2L203,147l.4.4,7.39-.16c2.34-.06,3.88-.93,3.82-3.82s-1.63-3.7-4-3.64l-7.39.17Zm78.63,15.25,3.5-.19c5.44-.29,7.25-3.29,6.94-9.92s-2.4-9.42-7.83-9.12l-3.5.19-.37.43.85,18.21Z"/><g id="Lz8oWE"><path class="cls-6" d="M300.67,228.34c1-.12,2-.2,3-.26.6,0,2.65-.41,3.27-1.17a63.16,63.16,0,0,0,0-7.41c-.14-3.44-.61-6.82-1-10.23a147.21,147.21,0,0,0-2.3-15.73c-.71-3.24-1.79-6.4-2.22-9.71a6.34,6.34,0,0,0-.72-1.89,2.59,2.59,0,0,0-.43-.6,11.16,11.16,0,0,0-3.24-.53c-2,.09-4.06.38-6.1.43s-4,.5-4.89,2.88a2.2,2.2,0,0,1-2.12,1.59c-3.6-.37-7.19-.82-10.79-1.19-.72-.08-5.38-.7-6.28-.91a18.45,18.45,0,0,0-4.85-.47,27.2,27.2,0,0,1-6.54-.83,56.1,56.1,0,0,0-6.56-.87c-2.27.09-4.49.69-6,.43a38.5,38.5,0,0,0-11.82.49c-.33.07-.67.2-1,0-1.41-1-3.09-1.07-4.71-1.25-1.41-.16-2.76-.59-4.17-.78A36.91,36.91,0,0,0,217,180c-1,.08-2,.19-3,.3-1.56.19-3.11.4-4.66.62l-.32.1c-.6.16-3.48.44-4.27.93s-4,1-5,1.16a55.56,55.56,0,0,1-7.28.72A6.33,6.33,0,0,0,191,184a14.91,14.91,0,0,1-6.51.9H184c-2.11.24-9.32.38-10.78.31-3-.13-6-.38-9-.53-.7,0-.94-.41-1.24-.92-.52-.9-.61-1.94-1.1-2.85-.36-.69-.72-1.29-1.52-1.43-2.28-.39-4.55-.82-6.81-1.27-3.82-.77-7.71-1.25-11.56-1.88-1.33-.21-2.69-.34-4-.43s-1.69.37-1.8,1.67a28.24,28.24,0,0,1-.47,4.22,83.61,83.61,0,0,1-4.78,13.73c-1.18,2.79-2.5,5.49-3.44,8.39a69.54,69.54,0,0,0-2.51,9.52,57.17,57.17,0,0,0-.76,12.68c.09,1.76.64,3.46.43,5.24a1.62,1.62,0,0,0,1.57,1.65c.87,0,1.65.34,2.5.43,3,.34,6,.94,9.06,1.14,2.65.17,5.24,1,7.92.81.33,0,.67.19,1,.18,1.56,0,3.16.5,4.64-.38a10,10,0,0,0,4.72-5.35c.47-1.37.13-1.51,2-1a75.19,75.19,0,0,1,8.35,2.7,39.26,39.26,0,0,0,9.94,2.79,15.83,15.83,0,0,0-2,5.08c-.31,2.08,1.24,5.72,4.14,6.25a9.42,9.42,0,0,0,5.2-.31,3,3,0,0,1,1.82-.35,6.57,6.57,0,0,0,0,5.8,4.59,4.59,0,0,0,3.9,2.79,7.93,7.93,0,0,0,2.71-.08c.88-.23,1.1.16,1.26.88a5.92,5.92,0,0,0,7,4.62,13.34,13.34,0,0,0,3.8-1,9.32,9.32,0,0,0,.82,2.62c1.53,2.93,4.1,3.8,7.1,2.38a8.08,8.08,0,0,1,1.73-.71,4.18,4.18,0,0,0,2.29-1.37c1.5-1.66,3.32-3,4.37-5.1.72-1.44,1.26-1.54,2.9-.89a25.43,25.43,0,0,0,13.49,1.72,6.45,6.45,0,0,0,5.27-3.5,1.45,1.45,0,0,1,1.61-.95,8.69,8.69,0,0,0,1,0c3.58.09,6.24-1.74,8.6-4.17a1.78,1.78,0,0,0,.6-1.2c0-1.11.67-1.3,1.58-1.22a5.31,5.31,0,0,0,.68-.05c3.35-.1,6.26-1,7.91-4.28.22-.42.52-.38.84-.33a7.87,7.87,0,0,1,2,.38,6.92,6.92,0,0,0,4.36.06c3.3-.72,3.95-3.42,2.39-5.62-.46-.65-.89-1.31-1.41-1.92-.25-.29-.64-.51-.46-1,2.17-1,4.63-1.46,6.54-3.09a.41.41,0,0,1,.15-.07,12.7,12.7,0,0,0,3.95-2.25,56.64,56.64,0,0,1,6.3-3.92c.51.95,1.08,1.86,1.51,2.83a4.21,4.21,0,0,0,3.55,2.48,12.87,12.87,0,0,0,2.71-.12C297.18,228.63,299.78,228.45,300.67,228.34Zm-152.52-6.06a61.25,61.25,0,0,0,.62,10.58,1.77,1.77,0,0,1-1.32.21c-2.59-.26-5.19-.5-7.78-.81a16.1,16.1,0,0,0-2.19-.14,28.74,28.74,0,0,1-6.19-.78,18.65,18.65,0,0,0-2.37-.24,2,2,0,0,1-2.11-1.74,27.69,27.69,0,0,1-.55-6,58.65,58.65,0,0,1,.4-5.93,45.29,45.29,0,0,1,1.07-6c.34-1.36.65-2.74,1-4.11a55.58,55.58,0,0,1,3.37-9c1.16-2.56,2.13-5.19,3.19-7.78.69-1.68,1.15-3.43,1.78-5.12a18.5,18.5,0,0,0,.93-5.67c.06-1.37.24-1.57,1.47-1.38,4.12.65,8.27,1.12,12.35,2a24,24,0,0,0,5.8,1.07c1.19,0,1.27.18,1.2,1.44a42.85,42.85,0,0,1-2.45,11.17c-1.13,3.43-2.61,6.72-3.8,10.14-1,2.74-1.91,5.5-2.65,8.3A42.08,42.08,0,0,0,148.15,222.28Zm4.95,8.33c-.37.43-.81.79-1.2,1.21s-.79.35-.87-.15a16.9,16.9,0,0,1-.57-3.67c0-.61.18-1.13,1-1.18a4.41,4.41,0,0,0,.47.14C154.36,227.43,154.77,228.65,153.1,230.61Zm28.26,12.73a4.2,4.2,0,0,1-5-3.29,1.86,1.86,0,0,1,.09-1,15.59,15.59,0,0,1,4.46-6.5c.92-.74,1.9-1.4,2.87-2.06a4.72,4.72,0,0,1,1.15-.31c-.35.79-.57,1.35-.84,1.88a3.94,3.94,0,0,0,1.86,5.28,3.69,3.69,0,0,0,3.41-.21c.43-.27.88-.51,1.35-.78-.1,1.73-.73,2.67-2.17,3.09a3.35,3.35,0,0,0-1.66,1.12C185.4,242.27,183.4,242.89,181.36,243.34Zm5.43-12.05a10,10,0,0,1,3-2.42,2,2,0,0,1,2.61.27,2,2,0,0,1-.07,2.76,14.21,14.21,0,0,1-3.71,3.15,2.16,2.16,0,0,1-2.12,0c-.69-.39-.59-1.15-.6-1.82A2.61,2.61,0,0,1,186.79,231.29Zm3.8,19.88a3.5,3.5,0,0,1-3.58-4.45,13.11,13.11,0,0,1,2.72-4.65c1.7-2,3.6-3.76,5.43-5.63a.7.7,0,0,1,.64-.29c.42.34.14.8.11,1.2-.33,3.94,2.6,4.93,5.31,4.2a2.43,2.43,0,0,1,1.57-.24c-.72.83-1,1.74-1.9,2.1a.77.77,0,0,0-.37.34,14.8,14.8,0,0,1-4.51,4.54C194.36,249.51,192.88,251,190.59,251.17Zm7.76-14.48a9.88,9.88,0,0,1,2.88-3.47,3.26,3.26,0,0,1,3.37,0c.63.29.72.82.68,1.76a8,8,0,0,1-2.18,2.93,8.23,8.23,0,0,1-2.58,1.25,1.85,1.85,0,0,1-2.05-.38A1.71,1.71,0,0,1,198.35,236.69ZM202,256a6.17,6.17,0,0,1-4.63.27c-1.77-.69-2.59-3.46-1.31-4.9a7.81,7.81,0,0,1,1.39-1.24,34.7,34.7,0,0,0,5.87-5.81,15.8,15.8,0,0,1,3.25-3.23c-.55,1.74-.95,3.47.35,5,1.43,1.66,3.35,1.61,5.41,1.06a7.24,7.24,0,0,1-1.5,2.17A20,20,0,0,1,202,256Zm6.62-13.36c1-1.81,2.88-2.64,4.54-3.68a.61.61,0,0,1,.64,0,2.62,2.62,0,0,1,.82,2.71,11.21,11.21,0,0,1-3.19,3.21c-.45.28-1,.17-1.53.28-.58-.07-1.22-.1-1.56-.75A1.72,1.72,0,0,1,208.65,242.64Zm10,12.28c-.88.86-6.39,5.77-8.24,6.24a3.32,3.32,0,0,1-3.53-1.4,3.81,3.81,0,0,1,.16-3.39,7.94,7.94,0,0,1,1.15-1.24c2.22-2,4.54-3.86,5.92-6.62.46-.93,1.5-1.46,2-2.56a2.38,2.38,0,0,1,0,1.48,3.78,3.78,0,0,0,1,3.74c.85,1,2,1.24,3.37.13A7.18,7.18,0,0,1,218.63,254.92Zm4.27-9.82a9,9,0,0,1-3.36,4.1c-.34.23-.75.41-1.1.13A1.23,1.23,0,0,1,218,248a16.56,16.56,0,0,1,2.3-4.46c.35-.42.72-1.24,1.47-.79a2.11,2.11,0,0,1,1.21,2.11A.53.53,0,0,1,222.9,245.1Zm16.6,7.9a5.26,5.26,0,0,1-3.09,1.55,22.44,22.44,0,0,1-7.88-.35c-2-.38-3.64-1.49-5.45-2.08l2.12-5.94a26.53,26.53,0,0,1,3.84,1.54,13.41,13.41,0,0,0,1.37.68c2.91,1,5.83,2.07,8.76,3.06C240.09,251.77,240.3,252.22,239.5,253ZM272,238.2c.24.45-.29.88-.87,1a6.35,6.35,0,0,1-2.7.12c-2.38-.71-4.95-.77-7.18-1.91s-4.34-1.88-6.44-3c-3.09-1.6-6.19-3.2-9.25-4.85a48.11,48.11,0,0,1-8.65-5.57c-.46-.4-1-.79-1.67-.23a1.17,1.17,0,0,0,.22,1.79,17.39,17.39,0,0,0,3.79,2.84c1.51.75,2.91,1.73,4.39,2.57.88.5,1.87.82,2.71,1.38,3.15,2.12,6.69,3.5,10,5.36,1.53.87,3.31,1.13,4.87,2,1.08.58,1.26,1.09.36,2a6.14,6.14,0,0,1-3.35,1.57,17.19,17.19,0,0,1-6.23-.14c-1.84-.35-3.63-.89-5.45-1.29a23.88,23.88,0,0,1-5.26-1.86c-2.28-1.11-4.57-2.2-6.83-3.36a31.87,31.87,0,0,1-6.74-4.12,1.14,1.14,0,0,0-1.67-.1c-.66.56-.34,1.12,0,1.64a3.14,3.14,0,0,0,1,.95c1.47.75,2.7,2,4.15,2.62,2.47,1.13,4.84,2.44,7.25,3.67a48.25,48.25,0,0,0,7.8,2.79,31.43,31.43,0,0,0,4.56,1.26c.87.14.91.58.64,1.34a4,4,0,0,1-2.92,2.36c-.59.19-1.16.42-1.74.62a9.63,9.63,0,0,1-6,0,56.38,56.38,0,0,1-5.61-1.8c-3-1.28-6.24-2.23-9.17-3.81a1.85,1.85,0,0,1-.91-.92,6.25,6.25,0,0,0-2.21-2.33,3.08,3.08,0,0,0-3.34-.51,5.68,5.68,0,0,1-1.29.4c-.63.15-1,.11-1.12-.76-.29-2.32-1.84-4-3.85-4.07a8.26,8.26,0,0,0-4.29.73c-.29.15-.55.41-.82.3a.44.44,0,0,1-.24-.52c1-3.63-2.66-6.53-6.25-5.68-1.05.24-2.07.61-3.1.9a7.39,7.39,0,0,0-2.77,1.56c-.14-1.24-.19-2.25-.32-3.23a5.17,5.17,0,0,0-6.11-4.27,28.14,28.14,0,0,0-4.5,1.86,24.2,24.2,0,0,0-7.49,5.34c-.16.16-.33.3-.58.53-.31-.5-.53-1.1-1.11-1.16-1.41-.14-2.63-.9-4-1.15-2-.36-3.66-1.46-5.56-2-2.21-.65-4.4-1.39-6.56-2.19a52.6,52.6,0,0,0-8-2.23c-1.38-.28-1.29-.36-1.35-1.82a19.21,19.21,0,0,1,.72-4.8c.52-2.43.84-4.91,1.56-7.31a50.08,50.08,0,0,1,1.9-5.09c.45-1.07.46-2.24,1-3.23.67-1.26,1.18-2.57,1.72-3.88a46.72,46.72,0,0,0,2.42-7.4,37.9,37.9,0,0,0,1-3.77c.08-.72.65-.7,1.18-.65,1.61.16,3.22.35,4.84.49,3.05.26,6.1.24,9.16.23,1.92,0,3.85,0,5.77-.05,1.7-.08,3.39-.28,5.08-.48,3-.38,6.06-.92,9.11-1.16a97.07,97.07,0,0,0,9.92-1.42c1.56-.29,3.06-.86,4.6-1.22a25,25,0,0,1,10.61-.38c1.53.29,3.05.64,4.67,1-.18.25-.25.45-.38.5a43.15,43.15,0,0,1-6.54,2.34,20.69,20.69,0,0,0-6.51,2.23,5.44,5.44,0,0,0-2.92,3.35c-.37,1.59-1.51,2.74-2.28,4.1a52.63,52.63,0,0,1-6,8.36c-1.82,2.1-3.63,4.21-5.6,6.16-.86.86-.85,1.93-1.29,2.88a.74.74,0,0,0,.22.79,7.87,7.87,0,0,0,4.09,2.52c2.17.4,4-.38,5.95-1a27.84,27.84,0,0,0,7.1-3.57,50.06,50.06,0,0,0,8.25-7c.49-.51,1-1,1.74-.84,2.32.53,4.34-.46,6.41-1.22a19.24,19.24,0,0,1,2.52-1,1.39,1.39,0,0,1,1.37.31c2,1.71,4.36,3,6.3,4.83a4.86,4.86,0,0,0,1.3.79,8.51,8.51,0,0,1,2.81,1.88c.79.87,1.9,1.21,2.8,1.92,3.07,2.41,6,5,9.07,7.39,2.1,1.64,3.93,3.57,6.06,5.19a43.21,43.21,0,0,1,5.2,5.11,59.15,59.15,0,0,0,5.05,5.21C271.36,235.74,271.43,237.07,272,238.2Zm16.19-17.06c-.39.5-1.1.53-1.61.91-2,1.46-4,2.91-6.11,4.23a31.74,31.74,0,0,1-6,3.09c-1.07.38-2.06.91-3.11,1.34a2.23,2.23,0,0,1-3-.88,19.88,19.88,0,0,0-2.28-2.46c-2.95-3.38-6.58-6-9.86-9-.86-.79-1.88-1.42-2.69-2.32a.91.91,0,0,1,.93-.45c2.39.31,4.59-.6,6.84-1.09a17.59,17.59,0,0,0,4.89-2.34c.64-.36,1.27-.75,1.87-1.17a1,1,0,0,0,.37-1.48c-.32-.53-.85-.49-1.36-.26s-1.09.86-1.69,1.13c-2.51,1.16-5,2.46-7.76,2.86a20.56,20.56,0,0,1-6.55.09,6.54,6.54,0,0,1-2.4-1.17c-2.09-1.4-3.84-3.3-6.18-4.34a11.21,11.21,0,0,1-1.81-1.25c-2.4-1.68-4.69-3.51-7-5.29a2.39,2.39,0,0,1-.35-.48c1.3-1.25,2.92-2.12,4.17-3.41.46-.47.67-.88.28-1.48s-1-.58-1.65-.32a1.2,1.2,0,0,0-.39.32,13.07,13.07,0,0,1-2.94,2.29,28.88,28.88,0,0,1-9.3,3.86,1.31,1.31,0,0,1-1.16-.26,6.4,6.4,0,0,0,.41-1.4,1.09,1.09,0,0,0-.6-1.14,1,1,0,0,0-1.08.31,5.41,5.41,0,0,0-.86,1,29.1,29.1,0,0,1-9.61,9.15,3.9,3.9,0,0,0-.93.73,3.77,3.77,0,0,1-2,1.24,4.21,4.21,0,0,0-1.35.65,15.83,15.83,0,0,1-6.9,2c1.32-1,2.46-1.87,3.67-2.67a7.7,7.7,0,0,0,3.44-4.23,9.39,9.39,0,0,1,.42-1.3,2.74,2.74,0,0,0-.36-3c-.85-1.08-.62-2,0-3.1s1.94-2.06,2.41-3.48a39,39,0,0,1,2.21-4.38c.67-1.42,2.16-2.05,3.6-2.59A35.21,35.21,0,0,1,221,188a27.17,27.17,0,0,0,5.91-2.1,25,25,0,0,1,7.28-1.53c4.8-.56,9.63-.09,14.43,0a80.83,80.83,0,0,1,10.2.49c2,.3,4,.64,6,.92,2.57.36,5.12,1,7.72,1.12,2.33.11,4.57.73,6.91.8s4.53.31,6.81.23c1.64,0,1.7,0,2.37,1.58,1,2.33,1.35,4.85,2.07,7.27a69,69,0,0,1,1.78,9.12c.54,3.61,1.06,7.23,1.24,10.89a1.2,1.2,0,0,1-.83,1.38C291.24,219,289.43,219.61,288.2,221.14Zm4.83,4.91a1.38,1.38,0,0,1-1-.78c-.2-.34-.32-.72-.5-1.07-1.2-2.44-1.2-2.44,1.25-3.56a5.41,5.41,0,0,1,.63-.24c.1,0,.21,0,.32.06A11.55,11.55,0,0,1,293,226.05Zm2.73-.3a24,24,0,0,0,.38-6.76c-.33-3.26-.4-6.54-.93-9.79-.29-1.78-.44-3.58-.74-5.37-.51-3.07-1.36-6.05-2-9.07-.4-1.76-.93-3.5-1.28-5.27a10.75,10.75,0,0,0-2.23-4.09c-.59-.81-.54-1.12.39-1.43a4.71,4.71,0,0,1,1.81-.41,42.8,42.8,0,0,0,6.41-.44c1.13-.07,1.4,0,1.69,1.06s.81,2.36,1,3.55c.6,2.9,1.37,5.75,1.74,8.72.36,2.78,1.13,5.54,1.38,8.34.32,3.48.92,6.92,1.17,10.41a51.83,51.83,0,0,1,.41,6.22c0,.74,0,1.47,0,2.21.11,2.45-.21,2.06-2,2.42a49.48,49.48,0,0,1-6.58.53C295.87,226.62,295.64,226.39,295.76,225.75Z"/></g><path class="cls-7" d="M162.78,318.28a5,5,0,1,1,2.94,6.29A4.65,4.65,0,0,1,162.78,318.28Zm8.66,3.28a4.29,4.29,0,1,0-5.48,2.36A4,4,0,0,0,171.44,321.56Z"/><path class="cls-7" d="M182.64,328.46l-.08-1.79c0-.79-.32-1.44-1-1.61l-3.26-.82-.95,3.8-.67-.17,2.2-8.78,4.62,1.15a2.57,2.57,0,0,1,2.14,3.17,2.44,2.44,0,0,1-2.89,1.8h0a2.23,2.23,0,0,1,.56,1.57l.07,1.62c0,.42.1.73.44.82a.87.87,0,0,0,.81-.35l.26.54a1.39,1.39,0,0,1-1.33.43C182.89,329.7,182.68,329.14,182.64,328.46Zm-.28-3.91a1.9,1.9,0,1,0,.91-3.64l-3.93-1-.91,3.64Z"/><path class="cls-7" d="M190.55,326.45a4.61,4.61,0,0,1,5.34-4.14c1.86.27,3.75.79,4.08,2.83l-.74-.1c-.4-1.35-1.88-1.82-3.44-2a3.94,3.94,0,0,0-4.57,3.55,4.08,4.08,0,0,0,3.65,4.71,3.92,3.92,0,0,0,4.63-3.13l-5.92-.85.1-.68,6.59.95-.7,4.76-.6-.08.26-2.2h0a4.48,4.48,0,0,1-4.52,1.92A4.7,4.7,0,0,1,190.55,326.45Z"/><path class="cls-7" d="M209.52,323.91l.83,0,3.46,9.2-.74,0-.87-2.32-5.07-.2-1,2.24-.74,0ZM212,330.1l-2-5.47h0l-2.47,5.29Z"/><path class="cls-7" d="M219.25,324l.95,0,6.24,7.89h0l-.45-8.21.69,0,.5,9.05-.95,0L220,324.82h0l.45,8.21-.69,0Z"/><path class="cls-7" d="M232.38,323l.69-.09,1.15,9-.68.09Z"/><path class="cls-7" d="M239.89,330.21l5.09-8.72-6.47,1.31-.14-.67,7.24-1.47.17.82-5.1,8.74,6.71-1.36.13.66L240.05,331Z"/><path class="cls-7" d="M250.7,319.36l6.44-2,.21.67-5.8,1.77,1,3.18,5.34-1.64.2.65-5.34,1.64,1.07,3.5,5.91-1.81.2.66-6.56,2Z"/><path class="cls-7" d="M262.17,315.57l3.38-1.47c2.69-1.17,4.83-.33,6,2.34s.31,4.79-2.38,6l-3.39,1.47Zm6.71,6.19c2.29-1,3-2.79,2-5.05s-2.8-3-5.08-2l-2.75,1.19,3.05,7Z"/><path class="cls-8" d="M199.81,211.18A41.17,41.17,0,0,1,204,206.3c.57-.57-.32-1.45-.89-.88a42.66,42.66,0,0,0-4.36,5.13.63.63,0,0,0,.23.86.64.64,0,0,0,.85-.23Z"/></svg>