<?xml version="1.0" encoding="UTF-8"?>
<svg width="151px" height="30px" viewBox="0 0 151 30" version="1.1" xmlns="http://www.w3.org/2000/svg" xmlns:xlink="http://www.w3.org/1999/xlink">
    <!-- Generator: Sketch 57.1 (83088) - https://sketch.com -->
    <title>Group 3</title>
    <desc>Created with Sketch.</desc>
    <g id="Landing-Page" stroke="none" stroke-width="1" fill="none" fill-rule="evenodd">
        <g id="Home-Page" transform="translate(-26.000000, -11.000000)">
            <g id="Header" transform="translate(-2.000000, -147.000000)">
                <g id="Group-3" transform="translate(28.000000, 158.000000)">
                    <g id="Group-2" transform="translate(120.000000, 19.000000)">
                        <path d="M4.76220703,7.38037109 L5.73779297,7.38037109 C6.28857697,7.38037109 6.67675668,7.31079171 6.90234375,7.17163086 C7.12793082,7.03247001 7.24072266,6.80175942 7.24072266,6.47949219 C7.24072266,6.15429525 7.13305772,5.92285225 6.91772461,5.78515625 C6.7023915,5.64746025 6.32373318,5.57861328 5.78173828,5.57861328 L4.76220703,5.57861328 L4.76220703,7.38037109 Z M4.76220703,5.03808594 L5.68066406,5.03808594 C6.09668177,5.03808594 6.40502829,4.97216863 6.60571289,4.84033203 C6.80639749,4.70849543 6.90673828,4.50488419 6.90673828,4.22949219 C6.90673828,3.9687487 6.81591888,3.76879952 6.63427734,3.62963867 C6.45263581,3.49047782 6.19189623,3.42089844 5.85205078,3.42089844 L4.76220703,3.42089844 L4.76220703,5.03808594 Z M6.0234375,8 L3.67675781,8 C3.57421824,8 3.49731471,7.97363308 3.44604492,7.92089844 C3.39477513,7.8681638 3.36914062,7.78906303 3.36914062,7.68359375 C3.36914062,7.56640566 3.40136687,7.48657248 3.46582031,7.4440918 C3.53027376,7.40161112 3.68408082,7.38037109 3.92724609,7.38037109 L4.07226562,7.38037109 L4.07226562,3.42089844 L3.92724609,3.42089844 C3.70165903,3.42089844 3.55664095,3.39819359 3.4921875,3.3527832 C3.42773405,3.30737282 3.39550781,3.22460998 3.39550781,3.10449219 C3.39550781,3.00195261 3.42187474,2.92358426 3.47460938,2.86938477 C3.52734401,2.81518528 3.60351513,2.78808594 3.703125,2.78808594 L5.75537109,2.78808594 C6.37646795,2.78808594 6.84960775,2.90893434 7.17480469,3.15063477 C7.50000163,3.39233519 7.66259766,3.74316176 7.66259766,4.203125 C7.66259766,4.43457147 7.61279347,4.63671789 7.51318359,4.80957031 C7.41357372,4.98242274 7.26562598,5.12451116 7.06933594,5.23583984 C7.38574377,5.35009823 7.62084884,5.5097646 7.7746582,5.71484375 C7.92846757,5.9199229 8.00537109,6.18066248 8.00537109,6.49707031 C8.00537109,6.76367321 7.93945378,7.00683484 7.80761719,7.2265625 C7.67578059,7.44629016 7.48974729,7.62646414 7.24951172,7.76708984 C7.10595631,7.8491215 6.94628994,7.90844708 6.77050781,7.94506836 C6.59472568,7.98168964 6.34570474,8 6.0234375,8 Z M13.8264415,8 L9.99001575,8 C9.88454647,8 9.80471329,7.97363308 9.7505138,7.92089844 C9.69631431,7.8681638 9.66921497,7.78906303 9.66921497,7.68359375 C9.66921497,7.56640566 9.70070879,7.48657248 9.76369739,7.4440918 C9.82668599,7.40161112 9.97097165,7.38037109 10.1965587,7.38037109 L10.4778087,7.38037109 L10.4778087,3.42089844 L10.1965587,3.42089844 C9.97683106,3.42089844 9.83401022,3.39819359 9.76809192,3.3527832 C9.70217362,3.30737282 9.66921497,3.22460998 9.66921497,3.10449219 C9.66921497,2.99609321 9.69631431,2.91626002 9.7505138,2.86499023 C9.80471329,2.81372045 9.88747613,2.78808594 9.99880481,2.78808594 L13.8264415,2.78808594 C13.9260514,2.78808594 14.0014901,2.81811493 14.0527599,2.87817383 C14.1040297,2.93823272 14.1296642,3.02539005 14.1296642,3.13964844 L14.1296642,4.17675781 C14.1296642,4.32910232 14.1076918,4.43457002 14.0637462,4.49316406 C14.0198007,4.55175811 13.9406999,4.58105469 13.8264415,4.58105469 C13.7063237,4.58105469 13.6235609,4.54882845 13.5781505,4.484375 C13.5327401,4.41992155 13.5100353,4.27490347 13.5100353,4.04931641 L13.5100353,3.42089844 L11.1721447,3.42089844 L11.1721447,4.90185547 L12.3235118,4.90185547 L12.3235118,4.66894531 C12.3235118,4.5107414 12.3447519,4.40087921 12.3872325,4.33935547 C12.4297132,4.27783172 12.5036871,4.24707031 12.6091564,4.24707031 C12.711696,4.24707031 12.7827402,4.28002897 12.8222911,4.34594727 C12.8618421,4.41186556 12.8816173,4.55322157 12.8816173,4.77001953 L12.8816173,5.58740234 C12.8816173,5.80713 12.8611097,5.9477536 12.8200939,6.00927734 C12.779078,6.07080109 12.7058366,6.1015625 12.6003673,6.1015625 C12.494898,6.1015625 12.422389,6.0664066 12.382838,5.99609375 C12.343287,5.9257809 12.3235118,5.78955179 12.3235118,5.58740234 L12.3235118,5.43359375 L11.1721447,5.43359375 L11.1721447,7.38037109 L13.5100353,7.38037109 L13.5100353,6.66845703 C13.5100353,6.44286997 13.5327401,6.29785188 13.5781505,6.23339844 C13.6235609,6.16894499 13.7063237,6.13671875 13.8264415,6.13671875 C13.9377702,6.13671875 14.0161386,6.16674775 14.061549,6.22680664 C14.1069593,6.28686553 14.1296642,6.40038979 14.1296642,6.56738281 L14.1296642,7.67480469 C14.1296642,7.78027396 14.1032973,7.86083957 14.0505626,7.91650391 C13.997828,7.97216825 13.9231217,8 13.8264415,8 Z M16.8130393,4.56347656 C16.8071799,4.78320422 16.7815454,4.9230954 16.736135,4.9831543 C16.6907246,5.04321319 16.6021025,5.07324219 16.4702659,5.07324219 C16.3677263,5.07324219 16.2908228,5.04614285 16.239553,4.99194336 C16.1882832,4.93774387 16.1626487,4.85791068 16.1626487,4.75244141 L16.1670432,4.68432617 C16.1699729,4.63891579 16.1714377,4.59277367 16.1714377,4.54589844 L16.2153831,3.09570312 C16.2212425,2.98730415 16.250539,2.90893579 16.3032737,2.8605957 C16.3560083,2.81225562 16.4380388,2.78808594 16.5493674,2.78808594 L20.3682151,2.78808594 C20.4795438,2.78808594 20.5615742,2.81225562 20.6143088,2.8605957 C20.6670435,2.90893579 20.6948752,2.98730415 20.6978049,3.09570312 L20.7461448,4.54589844 C20.7461448,4.59863308 20.7476096,4.64843727 20.7505393,4.6953125 C20.753469,4.74218773 20.7549338,4.76416017 20.7549338,4.76123047 C20.7549338,4.86669975 20.7271021,4.9450681 20.6714377,4.99633789 C20.6157734,5.04760768 20.5322782,5.07324219 20.4209495,5.07324219 C20.3037614,5.07324219 20.2231958,5.04321319 20.1792502,4.9831543 C20.1353047,4.9230954 20.1104026,4.78320422 20.1045432,4.56347656 L20.0605979,3.42089844 L18.7993674,3.42089844 L18.7993674,7.38037109 L19.647512,7.38037109 C19.7705595,7.38037109 19.859914,7.40454077 19.9155784,7.45288086 C19.9712427,7.50122094 19.9990745,7.57812447 19.9990745,7.68359375 C19.9990745,7.78613333 19.9727075,7.86450168 19.9199729,7.91870117 C19.8672383,7.97290066 19.7910672,8 19.6914573,8 L17.2261252,8 C17.1265154,8 17.0503443,7.97290066 16.9976096,7.91870117 C16.944875,7.86450168 16.9185081,7.78613333 16.9185081,7.68359375 C16.9185081,7.57519477 16.9470722,7.49755883 17.0042014,7.45068359 C17.0613306,7.40380836 17.1587417,7.38037109 17.2964377,7.38037109 L18.1182151,7.38037109 L18.1182151,3.42089844 L16.8569846,3.42089844 L16.8130393,4.56347656 Z M23.9304965,5.75 L25.7278597,5.75 L24.7830355,3.42089844 L23.9304965,5.75 Z M24.1546176,3.42089844 L23.513016,3.42089844 C23.3343042,3.42089844 23.2090613,3.39672876 23.1372836,3.34838867 C23.0655059,3.30004859 23.0296176,3.21875057 23.0296176,3.10449219 C23.0296176,2.9843744 23.0611114,2.90161156 23.1241,2.85620117 C23.1870886,2.81079079 23.359206,2.78808594 23.6404574,2.78808594 L24.8928988,2.78808594 C25.0540324,2.78808594 25.1631622,2.80932596 25.2202914,2.85180664 C25.2774206,2.89428732 25.329422,2.97265568 25.3762972,3.08691406 L27.094559,7.38037109 L27.169266,7.38037109 C27.3274699,7.38037109 27.4358673,7.40234353 27.4944613,7.44628906 C27.5530554,7.49023459 27.5823519,7.56933537 27.5823519,7.68359375 C27.5823519,7.80371154 27.5545202,7.88647438 27.4988558,7.93188477 C27.4431915,7.97729515 27.3391886,8 27.1868441,8 L25.9915316,8 C25.7688743,8 25.6260534,7.97729515 25.5630648,7.93188477 C25.5000762,7.88647438 25.4685824,7.80371154 25.4685824,7.68359375 C25.4685824,7.57226507 25.5030059,7.49389671 25.5718539,7.44848633 C25.6407019,7.40307594 25.7703393,7.38037109 25.9607699,7.38037109 L26.3694613,7.38037109 L25.9431918,6.33447266 L23.7107699,6.33447266 L23.3328402,7.38037109 L23.7591097,7.38037109 C23.9524701,7.38037109 24.0843047,7.40307594 24.1546176,7.44848633 C24.2249304,7.49389671 24.2600863,7.57226507 24.2600863,7.68359375 C24.2600863,7.80371154 24.2285925,7.88647438 24.1656039,7.93188477 C24.1026153,7.97729515 23.9641889,8 23.7503207,8 L22.594559,8 C22.407058,8 22.2825476,7.97729515 22.2210238,7.93188477 C22.1595001,7.88647438 22.1287387,7.80371154 22.1287387,7.68359375 C22.1287387,7.56933537 22.1595001,7.49023459 22.2210238,7.44628906 C22.2825476,7.40234353 22.4011987,7.38037109 22.5769808,7.38037109 L22.6604769,7.38037109 L24.1546176,3.42089844 Z" id="BETA" fill="#1E1E1E" fill-rule="nonzero"></path>
                        <rect id="Rectangle" stroke="#000000" stroke-width="0.5" x="0.25" y="0.25" width="30.5" height="10.5"></rect>
                    </g>
                    <g id="AmpledLogo" fill-rule="nonzero">
                        <path d="M0.0735260281,30 C0.0735260281,30 27.2334429,28.6552627 34.9702254,28.5705815 C42.7070079,28.4892876 63.3560992,28.6552627 65.330884,28.7433311 C67.3056687,28.8313996 88.6704539,28.0591071 88.6704539,28.0591071 L117,26.5721054 L116.440036,6.61105531 C115.081543,5.76085617 107.136017,6.01151249 103.534354,6.11990441 C99.9293776,6.22490909 82.4545207,5.991189 77.8621522,7.58319538 C74.0451186,8.90760919 57.7697116,7.87111142 43.0516012,8.14886573 C28.3334908,8.42662003 0.371731777,10.0152392 0.371731777,10.0152392 C0.371731777,10.0152392 0.573849006,19.7298653 0.209375314,22.0399681 C-0.161725173,24.3534582 0.0735260281,30 0.0735260281,30" id="XMLID_119_" fill="#1F1F1F"></path>
                        <g id="XMLID_93_" transform="translate(7.000000, 0.000000)">
                            <g id="Group" transform="translate(0.000000, 1.351049)">
                                <path d="M15.3680862,18.2628042 L13.2010898,18.299958 L12.955519,18.0601469 L11.7011168,14.8919371 L11.2166123,14.6555035 L5.19680911,14.7568322 L4.71894161,15.0101538 L3.56741366,18.2188951 L3.33179843,18.4688392 L1.16480204,18.505993 L0.919231241,18.2661818 L0.879408949,15.814028 L6.18904789,1.50304196 L6.42466312,1.2530979 L9.55735009,1.19905594 L9.80292089,1.43886713 L15.5738347,15.5640839 L15.613657,18.0162378 L15.3680862,18.2628042 Z M8.17684397,5.6304965 L7.93459169,5.63387413 L5.8638325,11.5548462 L6.1094033,11.7946573 L10.2044623,11.7271049 L10.4400776,11.4771608 L8.17684397,5.6304965 Z" id="Shape" fill="#FFFFFF"></path>
                                <path d="M0.819675511,19.3672867 L0.0730075354,18.630965 L0.0232296704,15.6586573 L5.44901696,1.0267972 L6.04966987,0.391804196 L9.88256547,0.327629371 L10.5031295,0.938979021 L16.4034658,15.3783147 L16.4532437,18.3506224 L15.7298054,19.1105874 L12.8626003,19.1578741 L12.2387178,18.5431469 L11.0274564,15.510042 L5.39592057,15.6113706 L4.29417049,18.6748741 L3.69019906,19.3098671 L0.819675511,19.3672867 Z M1.71899561,15.9592657 L1.7455438,17.6311888 L2.8771606,17.6109231 L4.03200707,14.3988042 L4.9777865,13.8989161 L11.3991311,13.7908322 L12.3615032,14.2603217 L13.6192239,17.4319091 L14.7508407,17.4116434 L14.7242925,15.7397203 L9.1358975,2.06372727 L6.86270833,2.10088112 L1.71899561,15.9592657 Z M5.77091382,12.6627063 L4.8815493,11.7879021 L7.33393878,4.78609091 L8.74763015,4.76244755 L11.4256793,11.6798182 L10.5661815,12.5816434 L5.77091382,12.6627063 Z M8.09056233,7.75502098 L6.9821752,10.9198531 L9.29850519,10.8793217 L8.09056233,7.75502098 Z" id="Shape" fill="#1F1F1F"></path>
                            </g>
                            <g id="Group" transform="translate(16.924474, 1.351049)">
                                <polygon id="Path" fill="#FFFFFF" points="19.6456641 18.0432587 16.7585479 18.1884965 16.5063401 17.9554406 16.0417466 8.4069021 15.7994944 8.42041259 12.4145995 18.1648531 12.1856214 18.4215524 9.54075747 18.5532797 9.28854962 18.3202238 4.97446798 8.96420979 4.7322157 8.97772028 5.19680911 18.5262587 4.96783093 18.782958 2.08071476 18.9281958 1.82850691 18.6951399 1.01878697 2.04346154 1.24776515 1.78676224 4.8550011 1.60437063 5.10720895 1.83742657 10.5031295 13.5949301 10.7453818 13.5814196 14.9731818 1.34091608 15.20216 1.08421678 18.8093959 0.901825175 19.0616038 1.13488112 19.8713237 17.7865594"></polygon>
                                <path d="M1.77541052,19.8063776 L1.00551287,19.0936993 L0.159289168,1.73272028 L0.856179279,0.945734266 L5.16362387,0.729566434 L5.80078054,1.31727273 L10.5263592,11.6156434 L14.2298324,0.89506993 L14.8072556,0.246566434 L19.1147002,0.0303986014 L19.8879163,0.743076923 L20.7341401,18.1074336 L20.0339314,18.8944196 L16.4466066,19.0768112 L15.676709,18.3641329 L15.3780418,12.2202378 L13.1546305,18.6208322 L12.5772072,19.2693357 L9.2321347,19.4382168 L8.59497803,18.8505105 L5.76095825,12.7032378 L6.05962544,18.8471329 L5.36273533,19.6341189 L1.77541052,19.8063776 Z M1.8948774,2.61765734 L2.6448639,18.0398811 L4.32403721,17.9554406 L3.84616971,8.16033566 L5.49879483,8.07927273 L9.92238777,17.6750979 L11.721028,17.5839021 L15.1922044,7.58951748 L16.8448295,7.50507692 L17.322697,17.3001818 L19.0018704,17.2157413 L18.2518839,1.79351748 L15.6700719,1.92186713 L11.3559903,14.4123147 L9.9821212,14.4832448 L4.47668933,2.48593007 L1.8948774,2.61765734 Z" id="Shape" fill="#1F1F1F"></path>
                            </g>
                            <g id="Group" transform="translate(39.158587, 2.364336)">
                                <path d="M9.41797207,11.4231189 L4.84172701,11.5582238 L4.60611178,11.8115455 L4.78531209,18.1851189 L4.55301539,18.4384406 L1.66258069,18.5228811 L1.41369137,18.2864476 L0.945779436,1.62125874 L1.17807614,1.36793706 L9.1226234,1.13488112 C12.4942441,1.03693007 14.9499521,2.68183217 15.0461893,6.1134965 C15.1490636,9.53840559 12.7895928,11.3251678 9.41797207,11.4231189 Z M9.21222356,4.07341259 L4.6359785,4.20851748 L4.40036327,4.46183916 L4.50987457,8.38325874 L4.7587639,8.61969231 L9.33500896,8.48458741 C10.778567,8.44405594 11.727665,7.9239021 11.6812057,6.20806993 C11.6347463,4.49223776 10.6557816,4.0295035 9.21222356,4.07341259 Z" id="Shape" fill="#FFFFFF"></path>
                                <path d="M1.34068383,19.3875524 L0.584060283,18.6613636 L0.0929186814,1.2834965 L0.806401414,0.513398601 L9.10271226,0.27020979 C13.1878157,0.158748252 15.7895388,2.37784615 15.8957316,6.0830979 C15.948828,7.98132168 15.3249454,9.56542657 14.0904543,10.6631538 C12.9621561,11.6663077 11.3526718,12.226993 9.44120174,12.281035 L9.44120174,12.281035 L5.46892811,12.3958741 L5.64149137,18.5093706 L4.92800864,19.2794685 L1.34068383,19.3875524 Z M1.81191429,2.20558741 L2.24664098,17.6413217 L3.92913281,17.5906573 L3.75656955,11.4771608 L4.47005228,10.7070629 L9.3947424,10.5618252 C10.9079895,10.5179161 12.1491176,10.1024685 12.9787487,9.36614685 C13.8316094,8.60618182 14.246425,7.51858741 14.2066027,6.13038462 C14.0970914,2.26300699 10.639189,1.94551049 9.15249012,1.98941958 L1.81191429,2.20558741 Z M4.43354851,9.48774126 L3.67692497,8.76155245 L3.54750252,4.12745455 L4.26098525,3.35735664 L9.18567536,3.21211888 C11.8769986,3.13443357 12.4842886,4.78271329 12.5241108,6.18104895 C12.5539776,7.26526573 12.2453548,8.08940559 11.6081981,8.6332028 C11.0805528,9.08242657 10.3438404,9.31548252 9.35823863,9.3425035 L4.43354851,9.48774126 Z M5.26649812,5.04616783 L5.34282418,7.73813287 L9.31509781,7.62329371 C9.8991581,7.60640559 10.3073366,7.5016993 10.5296777,7.31255245 C10.6126408,7.24162238 10.8615302,7.03220979 10.8383005,6.23171329 C10.8117523,5.30286713 10.5761371,4.89755245 9.23877175,4.93132867 L9.23877175,4.93132867 L5.26649812,5.04616783 Z" id="Shape" fill="#1F1F1F"></path>
                            </g>
                            <g id="Group" transform="translate(56.746766, 1.351049)">
                                <polygon id="Path" fill="#FFFFFF" points="12.5539776 17.9757063 1.71899561 18.2729371 1.47010628 18.0331259 1.02874254 1.36793706 1.26435777 1.11461538 4.15479247 1.03355245 4.40036327 1.27336364 4.76540095 14.9966434 5.01429027 15.2364545 12.4776515 15.0304196 12.7265408 15.2702308 12.7929113 17.7223846"></polygon>
                                <path d="M1.3904617,19.1443636 L0.633838148,18.4147972 L0.172563266,1.03693007 L0.889364522,0.266832168 L4.48000785,0.168881119 L5.23331288,0.898447552 L5.59171351,14.365028 L12.8028669,14.1657483 L13.5594904,14.8953147 L13.6424535,18.0567692 L12.9256523,18.8268671 L1.3904617,19.1443636 Z M1.89155887,1.9623986 L2.29973737,17.3981329 L11.9267765,17.1346783 L11.8935912,15.9153566 L4.68243784,16.1146364 L3.92581429,15.3850699 L3.56741366,1.91848951 L1.89155887,1.9623986 Z" id="Shape" fill="#1F1F1F"></path>
                            </g>
                            <g id="Group" transform="translate(71.016421, 0.000000)">
                                <polygon id="Path" fill="#FFFFFF" points="12.6999926 18.3337343 1.3771876 18.3607552 1.13493532 18.1175664 1.09843156 1.44562238 1.33736531 1.19905594 12.6601703 1.17203497 12.9024226 1.41522378 12.9090597 3.86737762 12.6701259 4.11394406 4.72226013 4.13083217 4.48332638 4.3773986 4.48996343 7.80906294 4.7322157 8.05225175 12.1988955 8.03536364 12.4411477 8.27855245 12.4477848 10.7307063 12.208851 10.9772727 4.74217128 10.9941608 4.50323752 11.2407273 4.5131931 15.1621469 4.75544537 15.4053357 12.7033112 15.3884476 12.9455634 15.6316364 12.9522005 18.0837902"></polygon>
                                <path d="M1.03206107,19.222049 L0.295348666,18.4755944 L0.255526374,1.09097203 L0.988920252,0.34113986 L13.0086154,0.314118881 L13.7453278,1.06057343 L13.7519649,4.22540559 L13.018571,4.97523776 L5.32291304,4.99212587 L5.32955008,7.19433566 L12.5407035,7.17744755 L13.2774159,7.9239021 L13.2840529,11.0887343 L12.550659,11.8385664 L5.33950566,11.8554545 L5.34614271,14.5474196 L13.0418006,14.5305315 L13.778513,15.276986 L13.7851501,18.4418182 L13.0517562,19.1916503 L1.03206107,19.222049 Z M1.94797379,2.05697203 L1.98115903,17.4994615 L12.0927027,17.4758182 L12.0893842,16.2531189 L4.39372622,16.270007 L3.65701382,15.5235524 L3.65037677,10.8894545 L4.38377065,10.1396224 L11.5982426,10.1227343 L11.594924,8.90003497 L4.38045212,8.91692308 L3.64373972,8.17046853 L3.63378415,4.02612587 L4.36717803,3.27629371 L12.062836,3.25940559 L12.0595174,2.03670629 L1.94797379,2.05697203 Z" id="Shape" fill="#1F1F1F"></path>
                            </g>
                            <g id="Group" transform="translate(86.945338, 0.000000)">
                                <path d="M7.46004271,18.3236014 L2.17031492,18.6377203 L1.91478854,18.408042 L0.962372058,1.7664965 L1.18803171,1.50641958 L6.47775951,1.1923007 C12.4909256,0.834272727 14.8371223,3.88764336 15.1457451,9.27157343 C15.4543678,14.6555035 13.4698903,17.9655734 7.46004271,18.3236014 Z M6.885938,4.11394406 L4.72226013,4.24229371 L4.49660048,4.50237063 L5.113846,15.2702308 L5.36937238,15.4999091 L7.53305024,15.3715594 C10.9013524,15.1722797 12.0031025,13.3855175 11.7807614,9.47085315 C11.5517832,5.55618881 10.2542402,3.91466434 6.885938,4.11394406 Z" id="Shape" fill="#FFFFFF"></path>
                                <path d="M1.8683292,19.5159021 L1.09179451,18.8133566 L0.0962372058,1.45913287 L0.789808792,0.668769231 L6.42798164,0.334384615 C12.4975627,-0.027020979 15.6236126,2.88111189 15.9886503,9.22428671 C16.3536879,15.5674615 13.5794016,18.8234895 7.50982057,19.1848951 L1.8683292,19.5159021 Z M1.83846248,2.32718182 L2.72118996,17.7426503 L7.40694632,17.4656853 C12.5473405,17.1616993 14.6081441,14.7264336 14.2962028,9.32223776 C13.9875801,3.92141958 11.6612945,1.74960839 6.52090032,2.05021678 L1.83846248,2.32718182 Z M5.06738666,16.3814685 L4.29085197,15.6755455 L3.63378415,4.19500699 L4.32735574,3.40464336 L6.83947866,3.25602797 C8.78745244,3.13781119 10.1945068,3.60392308 11.1402862,4.67462937 C12.0230137,5.67440559 12.4942441,7.18082517 12.6236666,9.42356643 C12.9522005,15.1756573 10.1015881,16.0842378 7.58282811,16.2328531 L5.06738666,16.3814685 Z M5.37600943,5.06643357 L5.92356594,14.6082168 L7.48327238,14.517021 C10.2675143,14.3515175 11.1402862,13.0916643 10.9345377,9.5248951 C10.8316634,7.72124476 10.4865369,6.51205594 9.88256547,5.8263986 C9.51089075,5.40757343 8.80404507,4.86377622 6.93571586,4.97523776 L5.37600943,5.06643357 Z" id="Shape" fill="#1F1F1F"></path>
                            </g>
                            <path d="M15.3680862,19.6138531 L13.2010898,19.651007 L12.955519,19.4111958 L11.7011168,16.242986 L11.2166123,16.0065524 L5.19680911,16.1078811 L4.71894161,16.3612028 L3.56741366,19.5699441 L3.33179843,19.8198881 L1.16480204,19.857042 L0.919231241,19.6172308 L0.879408949,17.1650769 L6.18904789,2.85409091 L6.42466312,2.60414685 L9.55735009,2.5501049 L9.80292089,2.78991608 L15.5738347,16.9151329 L15.613657,19.3672867 L15.3680862,19.6138531 Z M8.17684397,6.98154545 L7.93459169,6.98492308 L5.8638325,12.9058951 L6.1094033,13.1457063 L10.2044623,13.0781538 L10.4400776,12.8282098 L8.17684397,6.98154545 Z" id="Shape" fill="#FFFFFF"></path>
                            <polygon id="Path" fill="#FFFFFF" points="36.5701382 19.3943077 33.683022 19.5395455 33.4308142 19.3064895 32.9662208 9.75795105 32.7239685 9.77146154 29.3390737 19.5159021 29.1100955 19.7726014 26.4652316 19.9043287 26.2130237 19.6712727 21.8989421 10.3152587 21.6566898 10.3287692 22.1212832 19.8773077 21.892305 20.134007 19.0051889 20.2792448 18.752981 20.0461888 17.9432611 3.39451049 18.1722393 3.13781119 21.7794752 2.95541958 22.0316831 3.18847552 27.4276036 14.945979 27.6698559 14.9324685 31.8976559 2.69196503 32.1266341 2.43526573 35.7338701 2.25287413 35.9860779 2.48593007 36.7957978 19.1376084"></polygon>
                            <path d="M48.5765592,13.7874545 L44.0003142,13.9225594 L43.764699,14.1758811 L43.9438993,20.5494545 L43.7116026,20.8027762 L40.8211679,20.8872168 L40.5722785,20.6507832 L40.1043666,3.98559441 L40.3366633,3.73227273 L48.2812106,3.49921678 C51.6528313,3.40126573 54.1085393,5.04616783 54.2047765,8.47783217 C54.3076508,11.9027413 51.94818,13.6895035 48.5765592,13.7874545 Z M48.3708107,6.43774825 L43.7945657,6.57285315 L43.5589504,6.82617483 L43.6684617,10.7475944 L43.9173511,10.984028 L48.4935961,10.8489231 C49.9371542,10.8083916 50.8862522,10.2882378 50.8397928,8.57240559 C50.7933335,6.85657343 49.8143688,6.39383916 48.3708107,6.43774825 Z" id="Shape" fill="#FFFFFF"></path>
                            <polygon id="Path" fill="#FFFFFF" points="69.3007437 19.3301329 58.4657618 19.6273636 58.2168724 19.3875524 57.7755087 2.72236364 58.0111239 2.46904196 60.9015586 2.38797902 61.1471294 2.62779021 61.5121671 16.3510699 61.7610564 16.5908811 69.2244177 16.3848462 69.473307 16.6246573 69.5396775 19.0768112"></polygon>
                            <polygon id="Path" fill="#FFFFFF" points="83.7164134 18.3337343 72.3936084 18.3607552 72.1513561 18.1175664 72.1148524 1.44562238 72.3537861 1.19905594 83.6765911 1.17203497 83.9188434 1.41522378 83.9254805 3.86737762 83.6865467 4.11394406 75.7386809 4.13083217 75.4997472 4.3773986 75.5063842 7.80906294 75.7486365 8.05225175 83.2153163 8.03536364 83.4575685 8.27855245 83.4642056 10.7307063 83.2252718 10.9772727 75.7585921 10.9941608 75.5196583 11.2407273 75.5296139 15.1621469 75.7718662 15.4053357 83.719732 15.3884476 83.9619842 15.6316364 83.9686213 18.0837902"></polygon>
                            <path d="M94.4053803,18.3236014 L89.1156525,18.6377203 L88.8601262,18.408042 L87.9077097,1.7664965 L88.1333693,1.50641958 L93.4230971,1.1923007 C99.4362632,0.834272727 101.78246,3.88764336 102.091083,9.27157343 C102.399705,14.6555035 100.415228,17.9655734 94.4053803,18.3236014 Z M93.8312756,4.11394406 L91.6675978,4.24229371 L91.4419381,4.50237063 L92.0591836,15.2702308 L92.31471,15.4999091 L94.4783879,15.3715594 C97.8466901,15.1722797 98.9484401,13.3855175 98.726099,9.47085315 C98.4971208,5.55618881 97.1995778,3.91466434 93.8312756,4.11394406 Z" id="Shape" fill="#FFFFFF"></path>
                        </g>
                    </g>
                </g>
            </g>
        </g>
    </g>
</svg>