<?xml version="1.0" encoding="utf-8"?>
<!-- Generator: Adobe Illustrator 24.3.0, SVG Export Plug-In . SVG Version: 6.00 Build 0)  -->
<svg version="1.1" id="Layer_1" xmlns="http://www.w3.org/2000/svg" xmlns:xlink="http://www.w3.org/1999/xlink" x="0px" y="0px"
	 viewBox="0 0 432 432" style="enable-background:new 0 0 432 432;" xml:space="preserve">
<style type="text/css">
	.st0{fill:#FFFFFF;}
	.st1{fill:#231F20;}
	.st2{enable-background:new    ;}
</style>
<g>
	<circle class="st0" cx="215.6" cy="214.9" r="182"/>
	<path class="st1" d="M215.6,400C113.5,400,30.4,317,30.4,214.9S113.5,29.7,215.6,29.7c102.1,0,185.2,83.1,185.2,185.2
		S317.7,400,215.6,400z M215.6,36.1c-98.6,0-178.8,80.2-178.8,178.8S117,393.6,215.6,393.6c98.6,0,178.8-80.2,178.8-178.8
		S314.2,36.1,215.6,36.1z"/>
</g>
<path class="st1" d="M215.6,348.3c-73.6,0-133.4-59.9-133.4-133.4S142,81.4,215.6,81.4c73.6,0,133.4,59.9,133.4,133.4
	S289.2,348.3,215.6,348.3z M215.6,86.8c-70.6,0-128.1,57.5-128.1,128.1C87.5,285.5,145,343,215.6,343c70.6,0,128.1-57.5,128.1-128.1
	C343.7,144.2,286.2,86.8,215.6,86.8z"/>
<g class="st2">
	<path d="M72.5,241.2l0.6,2.5l-0.3,0.4l-3.9,2.3l-0.2,0.6l1.6,6.9l0.4,0.5l4.5,0.4l0.4,0.2l0.6,2.5l-0.3,0.4l-3.2,0.7l-20.3-2.2
		l-0.4-0.2l-0.8-3.6l0.3-0.3l17.4-10.6l3.2-0.7L72.5,241.2z M57.4,253l0.1,0.3l8.4,0.8l0.3-0.3L65,249l-0.4-0.2L57.4,253z"/>
</g>
<g class="st2">
	<path d="M72.6,258.9L72.6,258.9l-20.4-2.2l-0.5-0.3l-0.9-3.8l0.4-0.5l17.5-10.6l3.3-0.7l0.6,0.3l0.6,2.7l-0.4,0.5l-3.8,2.3
		l-0.1,0.5l1.5,6.8l0.3,0.4l4.5,0.5l0.5,0.3l0.6,2.7l-0.4,0.5L72.6,258.9z M52.4,256.2l20.2,2.2l3.1-0.7l0.1-0.2l-0.5-2.3l-0.2-0.1
		l-4.6-0.4l-0.6-0.6l-1.6-7.1l0.3-0.8l4-2.4l0.2-0.2l-0.5-2.3l-0.2-0.1l-3.1,0.7l-17.3,10.6l-0.2,0.2l0.8,3.4L52.4,256.2z
		 M65.9,254.3l-8.7-0.8l-0.1-0.7l7.5-4.4l0.6,0.3l1.1,5L65.9,254.3z M57.8,253.1l7.8,0.7l0.1-0.1l-1-4.5l-0.1-0.1L57.8,253.1z"/>
</g>
<g class="st2">
	<path d="M61.3,225.3l0.3,0l5.4-4.1l3.3-0.3l0.4,0.3l0.1,1.7l-0.3,0.6l-8.2,6.3l-0.3,0.6l0.2,2.8l0.4,0.3l8.6-0.7l0.4,0.3l0.3,3.4
		l-0.3,0.3l-22.6,1.8l-0.4-0.3l-0.7-9.4c-0.3-4,1.8-7,6.4-7.4C57.9,221.3,60.4,223.1,61.3,225.3z M51.8,228.6l0.4,5.4l0.4,0.3
		l5.3-0.4l0.3-0.3l-0.4-5.4c-0.1-1.7-0.9-2.8-3.2-2.6S51.7,226.9,51.8,228.6z"/>
</g>
<g class="st2">
	<path d="M48.9,238.8l-0.5-0.4l-0.7-9.5c-0.2-2.1,0.3-3.9,1.4-5.2c1.2-1.4,3-2.2,5.3-2.4c4-0.3,6.3,1.8,7.2,3.7l0.1,0l5.4-4.1
		l3.5-0.3l0.5,0.4l0.1,1.9l-0.4,0.8l-8.1,6.3l-0.2,0.5l0.2,2.6l0.2,0.1l8.6-0.7l0.5,0.4l0.3,3.6l-0.5,0.5l-0.1,0L48.9,238.8z
		 M48.9,238.1l0.2,0.1l22.4-1.8l0.2-0.2l-0.2-3.2l-0.2-0.1l-8.6,0.7l-0.5-0.4l-0.2-3l0.4-0.8l8.1-6.3l0.2-0.5l-0.1-1.5l-0.2-0.1
		l-3.1,0.2l-5.4,4.1l-0.6,0l-0.1-0.2c-0.7-1.8-2.9-3.9-6.7-3.6c-2.2,0.2-3.8,0.9-4.9,2.2c-1,1.2-1.5,2.9-1.3,4.8L48.9,238.1z
		 M52.5,234.5l-0.5-0.4l-0.4-5.5c-0.2-2.1,0.8-3.2,3-3.4c1.2-0.1,2,0.1,2.6,0.7c0.5,0.5,0.8,1.2,0.9,2.2l0.4,5.5l-0.5,0.5
		L52.5,234.5z M52.5,233.9l0.2,0.1l5.1-0.4l0.2-0.2l-0.4-5.3c-0.1-0.9-0.3-1.5-0.7-1.8c-0.5-0.4-1.2-0.6-2.2-0.5
		c-1.9,0.1-2.7,1-2.5,2.8L52.5,233.9z"/>
</g>
<g class="st2">
	<path d="M52.3,200.1l-0.3,5.7l0.3,0.3l18.6,1.1l0.3,0.3l-0.2,3.4l-0.3,0.3L52,210.1l-0.3,0.3l-0.3,5.7l-0.3,0.3l-3.3-0.2l-0.3-0.3
		l1-15.9l0.3-0.3l3.3,0.2L52.3,200.1z"/>
</g>
<g class="st2">
	<path d="M51,216.6l-3.5-0.2l-0.5-0.5l1-16.1l0.5-0.4l3.5,0.2l0.5,0.5l-0.3,5.7l0.2,0.2l18.6,1.1l0.5,0.5l-0.2,3.7l-0.5,0.4
		l-18.6-1.1l-0.2,0.1l-0.3,5.7L51,216.6z M47.7,215.9l3.1,0.2l0.2-0.1l0.3-5.7l0.5-0.4l18.6,1.1l0.2-0.1l0.2-3.2l-0.2-0.2l-18.6-1.1
		l-0.5-0.5l0.3-5.7l-0.2-0.2l-3.1-0.2l-0.2,0.1l-0.9,15.7L47.7,215.9z"/>
</g>
<g class="st2">
	<path d="M72.9,193l-0.5,3.4l-0.4,0.2L49.7,193l-0.3-0.3l0.5-3.4l0.4-0.2l22.3,3.6L72.9,193z"/>
</g>
<g class="st2">
	<path d="M72.1,196.9l-22.5-3.7l-0.4-0.5l0.6-3.6l0.6-0.3l22.5,3.7l0.4,0.5l-0.6,3.6L72.1,196.9z M49.8,192.7l22.1,3.6l0.2-0.1
		l0.5-3.1l-0.1-0.2l-22.1-3.6l-0.2,0.1l-0.5,3.1L49.8,192.7z"/>
</g>
<g class="st2">
	<path d="M76.2,180c-1.5,5.5-5.4,7-9.5,5.9l-0.2-0.4l0.9-3.3l0.4-0.2c2.3,0.6,3.8-0.1,4.7-3.4c0.7-2.5,0.1-4.1-1.9-4.6
		c-2.2-0.6-3.2,0.3-4.9,3.9c-1.7,3.6-4.1,6.2-8.6,5c-3.2-0.9-5.5-3.9-4.1-9c1.4-5.2,4.9-6.6,8.7-5.5l0.2,0.4l-0.9,3.3l-0.4,0.2
		c-1.9-0.5-3.1,0-3.9,3c-0.7,2.5,0.1,3.5,1.4,3.9c1.9,0.5,2.9-0.4,4.5-4c1.7-3.6,4.4-6.1,8.9-4.9C75.1,171.2,77.7,174.2,76.2,180z"
		/>
</g>
<g class="st2">
	<path d="M69.1,186.5c-0.8,0-1.7-0.1-2.5-0.4l-0.1,0l-0.4-0.5l1-3.5l0.6-0.3l0.1,0c1,0.3,1.9,0.2,2.5-0.1c0.8-0.5,1.4-1.5,1.9-3.1
		c0.6-2.4,0.1-3.8-1.7-4.3c-2-0.6-2.9,0.2-4.6,3.8c-1.3,2.9-3.7,6.6-8.9,5.1c-3.1-0.8-5.8-3.7-4.3-9.4c0.7-2.5,1.9-4.3,3.6-5.2
		c1.5-0.9,3.4-1,5.5-0.5l0.1,0l0.4,0.5l-1,3.5l-0.6,0.3l-0.1,0c-0.9-0.2-1.5-0.2-2,0.1c-0.7,0.4-1.2,1.3-1.6,2.8
		c-0.6,2-0.2,3.2,1.2,3.6c1.6,0.4,2.5-0.1,4.2-3.9c2.1-4.5,5.2-6.1,9.2-5c4.4,1.2,6.2,5,4.8,10.1c-0.7,2.6-2,4.5-3.8,5.5
		C71.6,186.2,70.4,186.5,69.1,186.5z M66.8,185.6c2.1,0.6,4,0.4,5.6-0.5c1.7-1,2.9-2.7,3.6-5.2c1.3-4.8-0.4-8.3-4.4-9.4
		c-3.8-1-6.7,0.6-8.6,4.7c-1.6,3.4-2.6,4.8-4.9,4.2c-1.1-0.3-2.3-1.3-1.5-4.2c0.4-1.7,1-2.6,1.8-3.1c0.6-0.3,1.4-0.4,2.3-0.1
		l0.2-0.1l0.8-3l-0.1-0.2c-1.9-0.5-3.6-0.4-5,0.4c-1.5,0.9-2.7,2.5-3.3,4.9c-1.4,5.2,1.1,7.9,3.9,8.7c3.7,1,6.3-0.5,8.3-4.8
		c1.7-3.6,2.7-4.8,5.2-4.1c2,0.6,2.8,2.3,2,4.9c-0.5,1.8-1.2,2.9-2.1,3.4c-0.8,0.4-1.7,0.5-2.8,0.2l-0.2,0.1l-0.8,3L66.8,185.6z"/>
</g>
<g class="st2">
	<path d="M67.5,146.8l-2.2,5.2l0.2,0.4l17.2,7.3l0.2,0.4l-1.3,3.1l-0.4,0.1L64,156.1l-0.4,0.1l-2.2,5.2l-0.4,0.1l-3.1-1.3l-0.2-0.4
		l6.2-14.7l0.4-0.1l3.1,1.3L67.5,146.8z"/>
</g>
<g class="st2">
	<path d="M81.1,163.6l-17.2-7.3l-0.2,0.1l-2.2,5.2l-0.6,0.2l-3.2-1.4l-0.3-0.6l6.3-14.9l0.6-0.2l3.2,1.4l0.3,0.6l-2.2,5.2l0.1,0.2
		l17.2,7.3l0.3,0.6l-1.4,3.4L81.1,163.6z M64,155.8l17.2,7.3l0.2-0.1l1.2-2.9l-0.1-0.2l-17.2-7.3L65,152l2.2-5.2l-0.1-0.2l-2.9-1.2
		l-0.2,0.1l-6.1,14.4l0.1,0.2l2.9,1.2l0.2-0.1l2.2-5.2L64,155.8z"/>
</g>
<g class="st2">
	<path d="M91.2,144.5c-2.9,4.9-7.1,5.4-10.8,3.2l-0.1-0.4l1.7-2.9l0.4-0.1c2,1.2,3.7,0.9,5.5-2.1c1.3-2.2,1.2-3.9-0.6-5
		c-2-1.2-3.2-0.5-5.8,2.6c-2.6,3.1-5.6,4.9-9.6,2.6c-2.9-1.7-4.3-5.2-1.5-9.8c2.7-4.7,6.5-5.1,9.9-3.1l0.1,0.4l-1.7,2.9l-0.4,0.1
		c-1.7-1-3-0.8-4.6,1.9c-1.3,2.2-0.9,3.4,0.3,4.1c1.7,1,2.9,0.4,5.5-2.7c2.6-3.1,5.9-4.8,9.9-2.4C92.5,135.7,94.2,139.4,91.2,144.5z
		"/>
</g>
<g class="st2">
	<path d="M84.5,149.3c-1.4,0-2.8-0.4-4.3-1.3l-0.1,0l-0.2-0.6l1.9-3.2l0.6-0.1l0.1,0c2,1.2,3.6,0.6,5.1-2c0.6-1.1,0.9-2,0.8-2.8
		c-0.1-0.8-0.5-1.4-1.3-1.8c-1.8-1.1-2.8-0.6-5.4,2.5c-2.1,2.4-5.3,5.4-10,2.6c-1.6-0.9-2.6-2.3-3-4c-0.4-1.9,0.1-4,1.4-6.2
		c2.6-4.3,6.3-5.5,10.3-3.2l0.1,0l0.2,0.6l-1.9,3.2l-0.6,0.1l-0.1,0c-0.9-0.5-1.5-0.6-2.1-0.4c-0.7,0.2-1.4,1-2.1,2.2
		c-0.6,1-0.8,1.8-0.7,2.5c0.1,0.5,0.4,1,0.9,1.3c1.5,0.9,2.4,0.6,5.1-2.7c3.2-3.8,6.6-4.6,10.3-2.5c1.8,1,2.9,2.5,3.4,4.3
		c0.5,2,0,4.3-1.4,6.8l0,0C89.6,147.7,87.2,149.3,84.5,149.3z M80.6,147.6c4,2.3,7.8,1.2,10.3-3.2l0,0c1.4-2.3,1.8-4.5,1.4-6.4
		c-0.4-1.6-1.5-3-3.1-3.9c-3.4-2-6.6-1.2-9.6,2.4c-2.5,2.9-3.8,4-5.8,2.8c-0.7-0.4-1.1-1-1.2-1.7c-0.1-0.8,0.2-1.7,0.8-2.8
		c0.8-1.4,1.6-2.2,2.4-2.5c0.7-0.3,1.5-0.1,2.5,0.4l0.2,0l1.6-2.7l-0.1-0.2c-3.7-2.1-7.1-1.1-9.5,3c-1.2,2.1-1.7,4.1-1.3,5.8
		c0.3,1.5,1.3,2.8,2.8,3.6c3.3,2,6.2,1.2,9.3-2.5c2.6-3.1,3.9-3.9,6.1-2.6c0.9,0.5,1.4,1.3,1.5,2.2c0.1,0.9-0.2,1.9-0.9,3.1
		c-1.6,2.8-3.5,3.5-5.7,2.2l-0.2,0l-1.6,2.7L80.6,147.6z"/>
</g>
<g class="st2">
	<path d="M103,114.1l0.9,6.5l-0.2,0.2l-6.6,0l-0.2-0.2L96,114l0.2-0.2l6.6,0L103,114.1z"/>
</g>
<g class="st2">
	<path d="M103.9,121.1l-6.8,0l-0.4-0.3l-1-6.7l0.3-0.4l6.8,0l0.4,0.3l1,6.7L103.9,121.1z M97.3,120.5l6.4,0l0,0l-0.9-6.3l-0.1-0.1
		l-6.4,0l0,0l0.9,6.3L97.3,120.5z"/>
</g>
<g class="st2">
	<path d="M125.3,95.7l0-0.4l2.7-2.1l0.4,0.1c2.5,4,1.7,8.1-1.9,10.9c-4.9,3.9-10.7,2.1-15-3.4c-4.4-5.5-4.8-11.5,0.1-15.4
		c3.6-2.8,7.7-2.7,10.8,0.4l0,0.4l-2.7,2.1l-0.4-0.1c-1.7-1.2-3.4-1.1-5.2,0.3c-3.1,2.5-2.4,6.1,0.5,9.8s6.3,5.2,9.4,2.8
		C125.9,99.5,126.3,97.8,125.3,95.7z"/>
</g>
<g class="st2">
	<path d="M121,106.4c-0.7,0-1.5-0.1-2.2-0.3c-2.6-0.7-5.2-2.5-7.5-5.3c-4.7-5.9-4.7-12,0.1-15.8c3.6-2.9,7.9-2.7,11.1,0.4l0.1,0.1
		l0,0.7l-2.9,2.3l-0.7-0.2c-1.6-1.2-3.2-1.1-4.9,0.3c-3.7,2.9-1.2,7.2,0.6,9.4c1.5,1.9,3,3.1,4.5,3.6c1.6,0.5,3.1,0.2,4.5-0.9
		c1.7-1.4,2.1-2.9,1.2-4.9l0-0.1l0-0.6l2.9-2.3l0.7,0.1l0.1,0.1c2.5,4.1,1.8,8.3-1.9,11.2C125,105.7,123,106.4,121,106.4z
		 M116.9,83.4c-1.7,0-3.5,0.7-5.1,2c-4.5,3.6-4.5,9.4,0,15c2.2,2.7,4.6,4.5,7.2,5.1c2.6,0.7,5.2,0.1,7.5-1.8
		c3.4-2.7,4.1-6.6,1.9-10.4l-0.2,0l-2.5,2l0,0.3c1,2.2,0.6,4-1.4,5.5c-1.6,1.2-3.3,1.6-5,1c-1.6-0.5-3.2-1.8-4.8-3.8
		c-3.3-4.2-3.5-7.8-0.5-10.2c1.9-1.5,3.7-1.6,5.5-0.3l0.3,0.1l2.5-2l0-0.2C120.6,84.2,118.8,83.4,116.9,83.4z"/>
</g>
<g class="st2">
	<path d="M144.4,92.2c-5.2,2.9-10.9,0.4-14.3-5.7c-3.4-6.1-2.7-12.2,2.5-15.2s10.9-0.4,14.3,5.7C150.4,83.1,149.6,89.2,144.4,92.2z
		 M134.6,74.8c-3.2,1.8-3.3,5.7-1,9.8c2.3,4.1,5.7,6,8.9,4.2c3.2-1.8,3.3-5.7,1-9.8C141.2,74.9,137.8,73,134.6,74.8z"/>
</g>
<g class="st2">
	<path d="M140,93.7c-3.8,0-7.5-2.5-10.1-7c-1.7-3.1-2.4-6.2-2-8.9c0.4-2.9,2-5.1,4.6-6.6c5.2-2.9,11.1-0.6,14.7,5.8
		c1.7,3.1,2.4,6.2,2,8.9c-0.4,2.9-2,5.1-4.6,6.6C143.1,93.2,141.5,93.7,140,93.7z M137.1,70.4c-1.4,0-2.9,0.4-4.3,1.2
		c-2.4,1.4-4,3.5-4.4,6.2c-0.4,2.7,0.3,5.6,1.9,8.6c3.4,6.1,9.1,8.3,14,5.6c2.4-1.4,4-3.5,4.4-6.2c0.4-2.7-0.3-5.6-1.9-8.6
		C144.2,72.8,140.7,70.4,137.1,70.4z M140,89.6c-0.8,0-1.6-0.2-2.4-0.6c-1.6-0.8-3-2.3-4.2-4.4s-1.7-4.1-1.6-5.9
		c0.2-1.9,1.1-3.3,2.7-4.2v0c3.2-1.8,6.7-0.2,9.2,4.3c1.2,2.1,1.7,4.1,1.6,5.9c-0.2,1.9-1.1,3.3-2.7,4.2
		C141.7,89.4,140.8,89.6,140,89.6z M134.7,75c-1.5,0.8-2.3,2.1-2.4,3.8c-0.1,1.6,0.4,3.6,1.5,5.6c1.1,2,2.5,3.4,4,4.2
		c1.5,0.7,3.1,0.7,4.5-0.1c1.5-0.8,2.3-2.1,2.4-3.8c0.1-1.6-0.4-3.6-1.5-5.6C140.9,74.9,137.6,73.4,134.7,75L134.7,75z"/>
</g>
<g class="st2">
	<path d="M176.7,77.9l-3.2,1.2l-0.4-0.2l-4.3-12.2l-0.3,0.1l0,13.8l-0.2,0.4l-2.9,1.1l-0.4-0.2l-8.6-10.7l-0.3,0.1l4.3,12.2
		l-0.2,0.4l-3.2,1.2l-0.4-0.2l-7.5-21.3l0.2-0.4l4-1.5l0.4,0.2l10.8,13.4l0.3-0.1l-0.1-17.3l0.2-0.4l4-1.5l0.4,0.2l7.5,21.3
		L176.7,77.9z"/>
</g>
<g class="st2">
	<path d="M157.1,85.3l-0.6-0.3l0-0.1l-7.6-21.4l0.2-0.6l4.2-1.5l0.6,0.3l10.6,13.1l-0.1-17l0.2-0.6l4.2-1.5l0.6,0.3l0,0.1l7.6,21.4
		l-0.2,0.6l-3.4,1.2l-0.6-0.3l-4.1-11.6l0,13.1l-0.2,0.6l-3.2,1.1l-0.6-0.3l-8.2-10.1l4.1,11.6l-0.2,0.6L157.1,85.3z M157,84.6
		l0.2,0.1l3-1.1l0.1-0.2l-4.4-12.4l0.7-0.3l8.7,10.8l0.2,0.1l2.7-1l0.1-0.2l0-13.9l0.7-0.3l4.4,12.4l0.2,0.1l3-1.1l0.1-0.2L169,56.4
		l-0.2-0.1l-3.8,1.4L165,58l0.1,17.4l-0.6,0.2l-10.9-13.5l-0.2-0.1l-3.8,1.4l-0.1,0.2L157,84.6z"/>
</g>
<g class="st2">
	<path d="M203.3,73.2l-3.4,0.5l-0.3-0.3l-2-12.9l-0.3,0l-2.5,13.6l-0.2,0.4l-3.1,0.5l-0.3-0.3l-6.5-12.1l-0.3,0l2,12.9l-0.2,0.4
		l-3.4,0.5l-0.3-0.3L179,53.8l0.2-0.4l4.2-0.7l0.3,0.3l8.1,15.3l0.3,0l3.1-17.1l0.2-0.4l4.2-0.7l0.3,0.3l3.5,22.4L203.3,73.2z"/>
</g>
<g class="st2">
	<path d="M182.7,76.8l-0.5-0.4l0-0.1l-3.5-22.5l0.3-0.6l4.5-0.7l0.5,0.4l8,15l3.1-16.9l0.3-0.5l4.5-0.7l0.5,0.4l0,0.1l3.5,22.5
		l-0.3,0.6l-3.6,0.6l-0.5-0.4l0-0.1l-1.9-12.1l-2.4,13l-0.3,0.5l-3.3,0.5l-0.5-0.4l-6.2-11.5l1.9,12.2l-0.3,0.6L182.7,76.8z
		 M182.7,76.1l0.2,0.1l3.1-0.5l0.1-0.2l-2-13l0.7-0.1l6.6,12.3l0.2,0.2l2.9-0.5l0.1-0.2l2.5-13.7l0.7-0.1l2,13l0.2,0.1l3.1-0.5
		l0.1-0.2l-3.5-22.3l-0.2-0.1l-4,0.6l-0.1,0.2l-3.1,17.2l-0.7,0.1l-8.2-15.4l-0.2-0.2l-4,0.6l-0.1,0.2L182.7,76.1z"/>
</g>
<g class="st2">
	<path d="M225.3,64.2c-0.1,6-2.9,9.3-8,9.2c-5.1-0.1-7.9-3.4-7.9-9.4l0.1-14l0.3-0.3l3.4,0l0.3,0.3l-0.1,14c0,3.3,1.1,5.3,3.9,5.4
		c2.8,0,4-2,4-5.3l0.1-14l0.3-0.3l3.4,0l0.3,0.3L225.3,64.2z"/>
</g>
<g class="st2">
	<path d="M217.4,73.7c0,0-0.1,0-0.1,0c-5.3-0.1-8.2-3.5-8.2-9.7l0.1-14.1l0.4-0.5l3.7,0l0.4,0.5l0,0.1l-0.1,14
		c0,3.4,1.2,5.1,3.7,5.1c1.1,0,1.9-0.3,2.5-0.9c0.8-0.8,1.2-2.2,1.3-4.2l0.1-14.1l0.4-0.5l3.7,0l0.4,0.5l-0.1,14.1
		c0,3.3-0.9,5.8-2.6,7.4C221.7,73,219.8,73.7,217.4,73.7z M209.8,50.1L209.7,64c0,5.8,2.7,9.1,7.6,9.1c2.3,0,4.1-0.6,5.4-1.9
		c1.6-1.5,2.4-3.9,2.4-7.1l0.1-13.9l-0.1-0.2l-3.2,0l-0.1,0.2l-0.1,13.9c0,2.1-0.5,3.6-1.4,4.5c-0.7,0.7-1.6,1-2.8,1c0,0,0,0-0.1,0
		c-2.8,0-4.2-1.9-4.2-5.6l0.1-13.9l-0.1-0.2l-3.2,0L209.8,50.1z"/>
</g>
<g class="st2">
	<path d="M235.2,50.8l3.9,0.6l0.5,0.4l5.1,16.3l0.3,0l2.5-15l0.3-0.3l3.4,0.5l0.2,0.4L247.8,76l-0.3,0.3l-3.9-0.6l-0.5-0.4L237.9,59
		l-0.3,0l-2.5,15l-0.3,0.3l-3.4-0.5l-0.2-0.4l3.7-22.2L235.2,50.8z"/>
</g>
<g class="st2">
	<path d="M247.5,76.6l-4.1-0.7l-0.6-0.5l0-0.1l-5-15.8l-2.4,14.6l-0.5,0.4l-3.6-0.6l-0.3-0.6l0-0.1l3.7-22.3l0.5-0.4l4.1,0.7
		l0.6,0.5l0,0.1l5,15.8l2.4-14.6l0.5-0.4l3.6,0.6l0.3,0.6l0,0.1L248,76.2L247.5,76.6z M243.6,75.4l3.8,0.6l0.2-0.1l3.6-22.1
		l-0.1-0.2l-3.1-0.5l-0.2,0.1l-2.5,15.2l-0.7-0.1L239.4,52l-0.4-0.3l-3.8-0.6l-0.2,0.1l-3.6,22.1l0.1,0.2l3.1,0.5l0.2-0.1l2.5-15.2
		l0.7,0.1l5.1,16.4L243.6,75.4z"/>
</g>
<g class="st2">
	<path d="M257,79.1l-3.3-0.9l-0.2-0.4l6.2-21.8l0.4-0.2l3.3,0.9l0.2,0.4l-6.2,21.8L257,79.1z"/>
</g>
<g class="st2">
	<path d="M257.1,79.4l-3.5-1l-0.3-0.6l0-0.1l6.3-21.8l0.5-0.4l3.5,1l0.3,0.6l0,0.1l-6.3,21.8L257.1,79.4z M253.9,78l3,0.9l0.2-0.1
		l6.2-21.6l-0.1-0.2l-3-0.9l-0.2,0.1l-6.2,21.6L253.9,78z"/>
</g>
<g class="st2">
	<path d="M283.8,68.4l-5.3-2.1l-0.4,0.2l-6.9,17.4l-0.4,0.2l-3.2-1.3l-0.1-0.4l6.9-17.4l-0.1-0.4l-5.3-2.1l-0.1-0.4L270,59l0.4-0.2
		l14.8,5.9l0.1,0.4l-1.2,3.1L283.8,68.4z"/>
</g>
<g class="st2">
	<path d="M270.9,84.3l-3.4-1.4l-0.2-0.6l0-0.1l6.8-17.3l-0.1-0.2l-5.3-2.1l-0.2-0.6l1.3-3.3l0.6-0.3l0.1,0l14.9,5.9l0.2,0.6
		l-1.3,3.3l-0.6,0.3l-5.3-2.1l-0.2,0.1L271.4,84L270.9,84.3z M267.9,82.6l2.9,1.2l0.2-0.1l6.9-17.4l0.6-0.3l5.3,2.1l0.2-0.1l1.2-2.9
		l-0.1-0.2L270.4,59l-0.2,0.1l-1.2,2.9l0.1,0.2l5.3,2.1l0.2,0.6l0,0.1l-6.8,17.3L267.9,82.6z"/>
</g>
<g class="st2">
	<path d="M292.3,85.1l-4.1,7.3l-0.4,0.2l-3-1.7l-0.1-0.4l4.1-7.3l0.4-12.4l1.6-2.9l0.4-0.2l1.7,1l0.3,0.6L293,79.3l0.5,0.3l8.3-5.6
		l0.7,0l1.7,1l0.1,0.4l-1.6,2.9L292.3,85.1z"/>
</g>
<g class="st2">
	<path d="M287.8,92.7l-3.2-1.8l-0.1-0.6l0-0.1l4-7.2l0.4-12.4l1.7-3l0.6-0.2l1.9,1.1l0.4,0.7l0,0.1l-0.4,9.9l0.2,0.1l8.3-5.6l0.8,0
		l1.9,1.1l0.1,0.6l-1.8,3.1l-10.2,6.8l-4.1,7.3L287.8,92.7z M285.1,90.6l2.8,1.6l0.2-0.1l4.1-7.3l10.2-6.8l1.5-2.8l0-0.2l-1.6-0.9
		l-0.5,0l-8.4,5.7l-0.8-0.4l0.4-10.2l-0.3-0.4l-1.6-0.9l-0.2,0.1l-1.5,2.8l-0.4,12.4l-4,7.2L285.1,90.6z"/>
</g>
<g class="st2">
	<path d="M316.2,102.4l-6.4,1.2l-0.2-0.2l-0.1-6.5l0.2-0.3l6.4-1.2l0.2,0.2l0.1,6.5L316.2,102.4z"/>
</g>
<g class="st2">
	<path d="M309.7,103.8l-0.4-0.3l-0.1-6.7l0.3-0.4l6.7-1.2l0.4,0.3l0.1,6.7l-0.3,0.4L309.7,103.8z M309.8,103.3L309.8,103.3l6.3-1.1
		l0.1-0.1l-0.2-6.3l-6.2,1.1l-0.1,0.1L309.8,103.3z"/>
</g>
<g class="st2">
	<path d="M348.4,114.8l-0.1,0.4l-9.7,12.4l0.2,0.2l13.8-7.3l0.4,0l1.8,2.2l-0.1,0.4l-2.6,2.1l-17.8,8.7l-0.4,0l-2.3-2.9l0.1-0.4
		l10.2-12.8l-0.2-0.2l-14.8,7l-0.4,0l-2.3-2.9l0.1-0.4l12.5-15.3l2.6-2.1l0.4,0l1.8,2.2l-0.1,0.4l-10.2,11.7l0.2,0.2l14.3-6.6l0.4,0
		L348.4,114.8z"/>
</g>
<g class="st2">
	<path d="M334.4,134.3l-0.6,0l-2.5-3.1l0.2-0.7l9.9-12.4l-14.4,6.8l-0.6,0l-2.5-3.1l0.2-0.7l12.5-15.3l2.7-2.2l0.7,0l1.9,2.4
		l-0.1,0.6l0,0.1l-9.8,11.3l13.8-6.4l0.6,0l2.5,3.1l-0.2,0.7l-9.3,12l13.3-7.1l0.6,0l1.9,2.4l-0.1,0.6l-2.7,2.1L334.4,134.3z
		 M334,133.7l0.2,0l17.7-8.6l2.5-2l0-0.2l-1.6-2l-0.2,0l-13.9,7.4l-0.4-0.6l9.8-12.5l0-0.2l-2.1-2.7l-0.3,0l-14.4,6.7l-0.4-0.6
		l10.3-11.9l0-0.2l-1.6-2l-0.2,0l-2.5,2l-12.4,15.3l0,0.2l2.1,2.7l0.2,0l14.9-7.1l0.4,0.6l-10.3,12.9l0,0.2L334,133.7z"/>
</g>
<g class="st2">
	<path d="M342.6,149c-2.8-5.3-0.2-10.9,5.9-14.2s12.3-2.5,15.1,2.8s0.2,10.9-5.9,14.2S345.4,154.3,342.6,149z M360.1,139.5
		c-1.8-3.3-5.6-3.4-9.7-1.2s-6.1,5.6-4.3,8.8c1.8,3.3,5.6,3.4,9.7,1.2C359.9,146.1,361.9,142.8,360.1,139.5z"/>
</g>
<g class="st2">
	<path d="M350.7,154c-3.6,0-6.6-1.7-8.4-4.9c-1.4-2.6-1.6-5.4-0.4-8.1c1.1-2.6,3.3-4.8,6.5-6.5c6.4-3.5,12.7-2.3,15.5,2.9
		c1.4,2.6,1.6,5.4,0.4,8.1c-1.1,2.6-3.3,4.8-6.5,6.5C355.4,153.4,352.9,154,350.7,154z M355.5,133.1c-2.1,0-4.5,0.6-6.9,1.9
		c-3,1.6-5.2,3.8-6.2,6.3c-1.1,2.5-0.9,5.1,0.4,7.6c2.7,4.9,8.6,6,14.8,2.7c3-1.6,5.2-3.8,6.2-6.3c1.1-2.5,0.9-5.1-0.4-7.6
		C361.8,134.7,358.9,133.1,355.5,133.1z M350.7,150.1c-0.2,0-0.5,0-0.7,0c-1.9-0.2-3.3-1.2-4.2-2.8s-0.9-3.4,0-5
		c0.8-1.6,2.4-3,4.5-4.1c4.5-2.4,8.3-1.9,10.1,1.3l0,0c0.9,1.6,0.9,3.4,0,5c-0.8,1.6-2.4,3-4.5,4.1
		C354.1,149.5,352.3,150.1,350.7,150.1z M355.5,137.1c-1.5,0-3.1,0.5-4.9,1.4c-2,1.1-3.5,2.4-4.2,3.9c-0.8,1.5-0.8,3.1,0,4.5
		c0.8,1.5,2.1,2.3,3.8,2.5c1.6,0.2,3.6-0.3,5.6-1.4c2-1.1,3.5-2.4,4.2-3.9c0.8-1.5,0.8-3.1,0-4.5C359,137.9,357.4,137.1,355.5,137.1
		z"/>
</g>
<g class="st2">
	<path d="M362.5,170l-0.3,0.1l-4.1,5.4l-3.1,1.1l-0.4-0.2l-0.6-1.6l0.1-0.6l6.2-8.3l0.1-0.6l-1-2.7l-0.4-0.2l-8.1,2.9l-0.4-0.2
		l-1.2-3.2l0.2-0.4l21.3-7.6l0.4,0.2l3.2,8.8c1.3,3.7,0.1,7.2-4.3,8.8C366.7,173,363.9,171.9,362.5,170z M370.7,164.4l-1.8-5.1
		l-0.4-0.2l-5,1.8l-0.2,0.4l1.8,5.1c0.6,1.6,1.6,2.5,3.8,1.7C371,167.3,371.3,166,370.7,164.4z"/>
</g>
<g class="st2">
	<path d="M355,176.9l-0.6-0.2l-0.6-1.8l0.2-0.8l6.2-8.2l0.1-0.5l-0.9-2.5l-0.2-0.1l-8.1,2.9l-0.6-0.2l-1.2-3.4l0.3-0.6l21.5-7.7
		l0.6,0.2l0,0.1l3.2,8.8c1.5,4.2-0.2,7.6-4.4,9.1c-3.8,1.4-6.6,0-7.9-1.7l-0.1,0l-4.1,5.4L355,176.9z M354.8,176.3l0.2,0.1l3-1.1
		l4.1-5.4l0.6-0.2l0.1,0.2c1.1,1.6,3.8,3,7.4,1.7c4-1.4,5.5-4.6,4.1-8.4l-3.1-8.7l-0.2-0.1l-21.1,7.6l-0.1,0.2l1.1,3l0.2,0.1
		l8.1-2.9l0.6,0.2l1,2.9l-0.2,0.8l-6.2,8.2l-0.1,0.5L354.8,176.3z M367.4,168.6c-1.2,0-2-0.7-2.5-2.1l-1.9-5.2l0.3-0.6l5.2-1.9
		l0.6,0.2l0,0.1l1.8,5.1h0c0.3,0.9,0.4,1.7,0.1,2.3c-0.3,0.7-1,1.3-2.1,1.7C368.4,168.5,367.8,168.6,367.4,168.6z M363.5,161.3
		l1.8,5c0.6,1.7,1.6,2.2,3.4,1.5c1-0.3,1.6-0.8,1.8-1.4c0.2-0.5,0.2-1.1-0.1-2h0l-1.8-5l-0.2-0.1l-4.8,1.7L363.5,161.3z"/>
</g>
<g class="st2">
	<path d="M359,196.7l-0.4-2l0.2-0.6l7.6-8l-0.1-0.3l-2.7-1.5l-6.5,1.4l-0.4-0.2l-0.7-3.3l0.3-0.3l22.2-4.6l0.4,0.2l0.7,3.3l-0.3,0.3
		l-9.5,2l0.1,0.3l11.1,6.1l0.4,0.5l0.3,1.4l-0.3,0.3l-3.3,0.7l-7.7-4.2l-0.3,0.1l-7.6,8l-3.3,0.7L359,196.7z"/>
</g>
<g class="st2">
	<path d="M359.3,197.2l-0.6-0.3l-0.4-2.1l0.3-0.8l7.5-7.9l0,0l-2.5-1.4l-6.5,1.4l-0.6-0.3l-0.7-3.6l0.4-0.5l0.1,0l22.3-4.7l0.6,0.3
		l0.7,3.6l-0.4,0.5l-0.1,0l-9.1,1.9l11,6l0.5,0.5l0.3,1.6l-0.4,0.5l-3.5,0.7l-7.7-4.2l-0.2,0l-7.6,8L359.3,197.2z M359.2,196.5
		l0.2,0.1l3.1-0.6l7.6-8l0.5-0.1l7.7,4.2l3.1-0.6l0.1-0.2l-0.2-1.2l-0.4-0.4l-11.2-6.1l-0.1-0.7l9.7-2l0.1-0.2l-0.6-3.1l-0.2-0.1
		l-22.1,4.6l-0.1,0.2l0.6,3.1l0.2,0.1l6.5-1.4l2.9,1.6l0.1,0.5l-0.1,0.1l-7.5,7.9l-0.2,0.5L359.2,196.5z"/>
</g>
<g class="st2">
	<path d="M360.5,214.8l-0.9-13.3l0.3-0.3l22.6-1.6l0.4,0.3l0.9,13.3l-0.3,0.3l-3.3,0.2l-0.4-0.3l-0.7-9.4l-0.4-0.3l-4.6,0.3
		l-0.3,0.3l0.6,8.8l-0.3,0.3l-3.3,0.2l-0.4-0.3l-0.6-8.8l-0.4-0.3l-5.3,0.4l-0.3,0.3l0.7,9.4l-0.3,0.3l-3.3,0.2L360.5,214.8z"/>
</g>
<g class="st2">
	<path d="M360.8,215.3l-0.5-0.4l-1-13.6l0.5-0.5l22.8-1.6l0.5,0.4l1,13.6l-0.5,0.5l-3.5,0.2l-0.5-0.4l-0.7-9.4l-0.2-0.1l-4.5,0.3
		l-0.2,0.2l0.6,8.8l-0.5,0.5l-3.5,0.2l-0.5-0.4l-0.6-8.8l-0.2-0.1l-5.1,0.4l-0.2,0.2l0.7,9.4l-0.5,0.5L360.8,215.3z M360.8,214.7
		l0.2,0.1l3.1-0.2l0.2-0.2l-0.7-9.4l0.5-0.5l5.5-0.4l0.5,0.4l0.6,8.8l0.2,0.1l3.1-0.2l0.2-0.2l-0.6-8.8l0.5-0.5l4.8-0.3l0.5,0.4
		l0.7,9.4l0.2,0.1l3.1-0.2l0.2-0.2l-0.9-13.1l-0.2-0.1l-22.4,1.6l-0.2,0.2L360.8,214.7z"/>
</g>
<g class="st2">
	<path d="M369.3,233.3l-0.3,0l-5.9,3.3l-3.3-0.2l-0.3-0.3l0.1-1.7l0.4-0.5l9-5.1l0.4-0.5l0.2-2.8l-0.3-0.3l-8.6-0.6l-0.3-0.3
		l0.2-3.4l0.4-0.3l22.6,1.6l0.3,0.3l-0.7,9.4c-0.3,4-2.8,6.6-7.5,6.3C372,237.8,369.8,235.6,369.3,233.3z M379.1,231.4l0.4-5.4
		l-0.3-0.3l-5.3-0.4l-0.4,0.3l-0.4,5.4c-0.1,1.7,0.5,2.9,2.8,3C378.3,234.2,379,233.1,379.1,231.4z"/>
</g>
<g class="st2">
	<path d="M376.4,238.3c-0.3,0-0.5,0-0.8,0c-4-0.3-6-2.7-6.5-4.7l-0.1,0l-5.9,3.3l-3.5-0.2l-0.5-0.5l0.1-1.9l0.5-0.7l9-5l0.3-0.4
		l0.2-2.6l-0.2-0.2l-8.6-0.6l-0.5-0.5l0.3-3.6l0.5-0.4l22.8,1.6l0.5,0.5l0,0.1l-0.7,9.4C383.1,235.9,380.5,238.3,376.4,238.3z
		 M369,233l0.6,0l0,0.2c0.4,1.9,2.3,4.2,6.1,4.5c4.2,0.3,6.9-2,7.2-6.1l0.7-9.2l-0.2-0.2l-22.4-1.6l-0.2,0.1l-0.2,3.2l0.2,0.2
		l8.6,0.6l0.5,0.5l-0.2,3l-0.5,0.7l-9,5l-0.3,0.4l-0.1,1.5l0.2,0.2l3.1,0.2L369,233z M376.4,234.3c-0.1,0-0.3,0-0.5,0
		c-2.2-0.2-3.2-1.2-3-3.3l0.4-5.5l0.5-0.4l5.5,0.4l0.5,0.5l0,0.1l-0.4,5.4c-0.1,1-0.3,1.7-0.9,2.2
		C378.1,234.1,377.4,234.3,376.4,234.3z M373.8,225.8l-0.4,5.3c-0.1,1.8,0.6,2.6,2.5,2.8c1,0.1,1.8-0.1,2.2-0.5
		c0.4-0.4,0.6-1,0.7-1.8l0.4-5.3l-0.2-0.2l-5.1-0.4L373.8,225.8z"/>
</g>
<g class="st2">
	<path d="M356.8,248.5c1.2-5.6,5-7.4,9.2-6.5l0.3,0.4l-0.7,3.3l-0.4,0.2c-2.3-0.5-3.8,0.3-4.5,3.7c-0.5,2.5,0.1,4.1,2.1,4.5
		c2.3,0.5,3.2-0.5,4.6-4.2c1.5-3.8,3.8-6.5,8.3-5.5c3.2,0.7,5.7,3.6,4.5,8.9s-4.5,6.9-8.4,6l-0.3-0.4l0.7-3.3l0.4-0.2
		c1.9,0.4,3.1-0.2,3.8-3.3c0.5-2.5-0.3-3.6-1.6-3.8c-1.9-0.4-2.8,0.5-4.3,4.3c-1.5,3.8-4.1,6.4-8.6,5.4
		C358.3,257.3,355.5,254.4,356.8,248.5z"/>
</g>
<g class="st2">
	<path d="M373.7,259.9c-0.6,0-1.3-0.1-1.9-0.2l-0.1,0l-0.4-0.5l0.8-3.6l0.6-0.3l0.1,0c0.9,0.2,1.5,0.1,2-0.2
		c0.6-0.4,1.1-1.3,1.4-2.9c0.4-2.1,0-3.2-1.4-3.5c-1.6-0.4-2.5,0.2-4,4.1c-1.8,4.6-4.8,6.5-8.9,5.6c-4.4-1-6.4-4.7-5.3-9.9
		c0.6-2.7,1.8-4.7,3.5-5.8c1.6-1,3.7-1.3,6-0.8l0.1,0l0.4,0.5l-0.8,3.6l-0.6,0.3l-0.1,0c-1.1-0.2-1.9-0.1-2.5,0.3
		c-0.8,0.5-1.4,1.6-1.7,3.2c-0.5,2.4,0.1,3.8,1.9,4.2c2,0.4,2.9-0.3,4.3-4.1c1.2-3,3.3-6.8,8.6-5.6c3.1,0.7,6,3.5,4.8,9.2
		c-0.6,2.6-1.7,4.4-3.3,5.5C376.2,259.5,375,259.9,373.7,259.9z M371.9,259.2c1.9,0.4,3.6,0.2,4.9-0.7c1.5-1,2.5-2.7,3.1-5.2
		c1.1-5.4-1.5-7.9-4.3-8.6c-3.8-0.8-6.2,0.8-8,5.3c-1.5,3.7-2.4,5-4.9,4.4c-2-0.5-2.9-2.2-2.3-4.9c0.4-1.8,1-3,1.9-3.5
		c0.7-0.5,1.6-0.6,2.8-0.4l0.2-0.1l0.7-3.1l-0.1-0.2c-2.1-0.4-4-0.2-5.5,0.8c-1.7,1.1-2.8,2.9-3.3,5.5l0,0c-1,4.9,0.8,8.4,4.9,9.3
		c3.8,0.8,6.6-0.9,8.3-5.2c1.4-3.6,2.4-5,4.6-4.5c1.2,0.3,2.4,1.2,1.8,4.2c-0.4,1.7-0.9,2.7-1.7,3.2c-0.6,0.4-1.3,0.5-2.3,0.3
		l-0.2,0.1l-0.7,3.1L371.9,259.2z"/>
</g>
<g>
	<path d="M171.2,290.9l0.4-0.4h4.3l0.4,0.4c-0.7,5-4.6,7.8-10.3,7.8c-7.9,0-12.1-5.4-12.1-12.8S158,273,165.8,273
		c5.7,0,9.6,2.9,10.3,7.5l-0.4,0.4h-4.3l-0.4-0.4c-0.7-2.1-2.5-3.2-5.4-3.2c-5,0-7.1,3.6-7.1,8.6s2.1,8.5,7.1,8.5
		C168.7,294.4,170.5,293.3,171.2,290.9z"/>
	<path d="M165.8,299c-7.6,0-12.4-5-12.4-13.1c0-8.1,4.7-13.1,12.4-13.1c5.8,0,9.9,3,10.6,7.7l0,0.1l-0.5,0.5h-4.5l-0.5-0.5
		c-0.7-2-2.4-3-5.1-3c-6,0-6.9,5.2-6.9,8.3c0,3.1,0.9,8.3,6.9,8.3c0,0,0.1,0,0.1,0c2.8,0,4.4-1.1,5-3.3l0.1-0.1l0.4-0.4h4.5l0.5,0.5
		l0,0.1C175.7,295.9,171.8,299,165.8,299z M165.8,273.3c-7.3,0-11.9,4.8-11.9,12.6c0,7.8,4.5,12.6,11.9,12.6c5.6,0,9.3-2.8,10.1-7.5
		l-0.2-0.2h-4.1l-0.2,0.2c-0.7,2.5-2.5,3.7-5.5,3.7c0,0-0.1,0-0.1,0c-4.8,0-7.4-3.1-7.4-8.8c0-5.7,2.6-8.8,7.4-8.8
		c2.9,0,4.8,1.1,5.6,3.3l0.2,0.2h4.1l0.2-0.2C175.1,276,171.3,273.3,165.8,273.3z"/>
</g>
<g>
	<path d="M192.9,297.2c-7.5,0-12.1-5.4-12.1-12.8s4.6-12.8,12.1-12.8s12.1,5.4,12.1,12.8S200.4,297.2,192.9,297.2z M192.9,275.8
		c-4.6,0-7.1,3.6-7.1,8.6s2.5,8.5,7.1,8.5s7.1-3.6,7.1-8.5S197.6,275.8,192.9,275.8L192.9,275.8z"/>
	<path d="M192.9,297.4c-7.4,0-12.4-5.3-12.4-13.1c0-7.8,5-13.1,12.4-13.1c7.4,0,12.4,5.3,12.4,13.1
		C205.3,292.2,200.3,297.4,192.9,297.4z M192.9,271.8c-7.1,0-11.9,5.1-11.9,12.6c0,7.5,4.8,12.6,11.9,12.6c7.1,0,11.9-5,11.9-12.6
		C204.8,276.8,200,271.8,192.9,271.8z M192.9,293.2c-4.6,0-7.4-3.4-7.4-8.8c0-5.4,2.8-8.8,7.4-8.8s7.4,3.4,7.4,8.8
		C200.3,289.8,197.5,293.2,192.9,293.2z M192.9,276.1c-4.2,0-6.9,3.2-6.9,8.3c0,5.1,2.6,8.3,6.9,8.3c4.2,0,6.9-3.2,6.9-8.3
		C199.8,279.2,197.2,276.1,192.9,276.1z"/>
</g>
<g>
	<path d="M221.1,291.2h-10.3l-0.4-0.4v-3.6l0.4-0.4h10.3l0.4,0.4v3.6L221.1,291.2z"/>
	<path d="M221.2,291.5h-10.6l-0.5-0.5v-3.8l0.5-0.5h10.6l0.5,0.5v3.8L221.2,291.5z M210.9,290.9H221l0.2-0.2v-3.3l-0.2-0.2h-10.1
		l-0.2,0.2v3.4L210.9,290.9z"/>
</g>
<g>
	<path d="M238.9,298.7c-7.5,0-12.1-5.4-12.1-12.8s4.6-12.9,12.1-12.9s12.1,5.4,12.1,12.9S246.4,298.7,238.9,298.7z M238.9,277.3
		c-4.6,0-7.1,3.6-7.1,8.6s2.5,8.5,7.1,8.5s7.1-3.6,7.1-8.5S243.6,277.3,238.9,277.3z"/>
	<path d="M238.9,299c-7.4,0-12.4-5.3-12.4-13.1c0-7.9,5-13.1,12.4-13.1c7.4,0,12.3,5.3,12.3,13.1C251.3,293.7,246.3,299,238.9,299z
		 M238.9,273.3c-7.1,0-11.9,5.1-11.9,12.6c0,7.5,4.8,12.6,11.9,12.6c7.2,0,11.8-4.9,11.8-12.6C250.7,278.3,246,273.3,238.9,273.3z
		 M238.9,294.7c-4.6,0-7.4-3.4-7.4-8.8c0-5.4,2.8-8.8,7.4-8.8s7.4,3.4,7.4,8.8C246.3,291.3,243.5,294.7,238.9,294.7z M238.9,277.6
		c-4.2,0-6.9,3.2-6.9,8.3c0,5.1,2.6,8.3,6.9,8.3s6.9-3.2,6.9-8.3C245.8,280.7,243.2,277.6,238.9,277.6z"/>
</g>
<g>
	<path d="M269.4,285.2l-6.8,0.4l-0.3,0.4l0.5,9.2l-0.3,0.4l-4.3,0.2l-0.4-0.3l-1.4-24.2l0.3-0.4l11.8-0.7c5-0.3,8.7,2,9,7
		S274.4,284.9,269.4,285.2z M268.8,274.6l-6.8,0.4l-0.3,0.4l0.3,5.7l0.4,0.3l6.8-0.4c2.1-0.1,3.5-0.9,3.4-3.4
		S270.9,274.4,268.8,274.6L268.8,274.6z"/>
	<path d="M258.1,296.2l-0.5-0.5l0-0.1l-1.4-24.3l0.5-0.5l0.1,0l11.8-0.7c5.5-0.3,9,2.4,9.3,7.2c0.1,2.2-0.4,4-1.7,5.4
		c-1.5,1.6-3.8,2.6-6.7,2.8l-6.7,0.4l-0.2,0.2l0.5,9.2l-0.5,0.5L258.1,296.2z M258.1,295.4l0.2,0.2l4.1-0.2l0.2-0.2l-0.5-9.3
		l0.5-0.5l0.1,0l6.8-0.4c2.8-0.2,5-1.1,6.3-2.6c1.1-1.3,1.7-3,1.5-5.1c-0.3-4.5-3.5-7.1-8.7-6.8l-11.6,0.7l-0.2,0.2L258.1,295.4z
		 M262.3,281.6l-0.5-0.5l-0.4-5.9l0.5-0.5l6.9-0.4c1.2-0.1,2.1,0.1,2.8,0.6c0.8,0.5,1.2,1.4,1.3,2.7c0.1,1.1-0.2,2-0.7,2.6
		c-0.6,0.7-1.5,1-2.9,1.1L262.3,281.6z M262.3,280.9l0.2,0.2l6.6-0.4c1.2-0.1,2.1-0.4,2.5-0.9c0.4-0.5,0.6-1.2,0.6-2.2
		c-0.1-1.1-0.4-1.8-1-2.3c-0.6-0.4-1.4-0.5-2.5-0.5h0l-6.7,0.4l-0.2,0.2L262.3,280.9z"/>
</g>
<g>
	<path d="M160.8,372.6c1.6-4.9,4-6.5,9.5-6.2l3.8,0.2c3.5,0.2,5.1-0.5,5.8-2.7c0.9-2.7-0.9-5.6-4.4-6.7c-3.1-1-6.4-0.1-8.6,2.2
		l-0.7-1.5c2.6-2.6,6.4-3.5,9.9-2.4c4.4,1.4,6.5,5.1,5.4,8.9c-0.9,3-3,4-7.4,3.8l-3.7-0.2c-4.5-0.2-6.5,1.1-7.7,5l15.3,4.8l-0.5,1.6
		l-16.9-5.3L160.8,372.6z"/>
	<path d="M178.2,381.4l-19.9-6.2l1-3c1.8-5.6,4.9-7.7,11.1-7.4l3.8,0.2c3.6,0.2,3.9-0.7,4.2-1.6c0.3-0.9,0.1-1.8-0.4-2.6
		c-0.6-0.9-1.7-1.7-3-2.1c-2.5-0.8-5.2-0.1-7,1.8l-1.6,1.7l-2.3-4.5l0.8-0.8c3-3,7.4-4.1,11.5-2.7c2.6,0.8,4.7,2.5,5.9,4.6
		c1,1.9,1.2,4.1,0.5,6.2c-1.4,4.6-5.4,5.1-9,4.9l-3.7-0.2c-3.1-0.2-4.6,0.4-5.6,2.4l15.2,4.8L178.2,381.4z"/>
</g>
<g>
	<path d="M193.8,371.9c0.5-6.7,5.2-11.2,11.3-10.8s10,5.7,9.5,12.4s-5.2,11.2-11.3,10.7S193.3,378.6,193.8,371.9z M213.1,373.4
		c0.5-5.8-2.8-10.3-8.1-10.7s-9.2,3.5-9.6,9.3s2.8,10.3,8.1,10.7S212.6,379.2,213.1,373.4z"/>
	<path d="M204.2,385.9c-0.3,0-0.7,0-1,0c-6.9-0.5-11.6-6.5-11-14.1l0,0c0.6-7.6,6.1-12.8,13-12.2c6.9,0.5,11.5,6.5,11,14.1
		c-0.3,3.9-1.9,7.2-4.4,9.5C209.7,384.9,207,385.9,204.2,385.9z M204.3,364.3c-4,0-6.9,3.1-7.3,7.9c-0.2,2.4,0.4,4.7,1.6,6.3
		c1.2,1.6,2.9,2.5,5,2.7c2.1,0.2,3.9-0.5,5.4-1.9c1.5-1.4,2.4-3.5,2.5-6l0,0c0.2-2.4-0.4-4.7-1.6-6.3c-1.2-1.6-2.9-2.5-5-2.7
		C204.7,364.3,204.5,364.3,204.3,364.3z"/>
</g>
<g>
	<path d="M229.4,381.9l8.1-1.2l-2.6-17.4l0,0c-1.1,2.2-3.2,3.6-6.3,4.9l-0.5-1.5c3.2-1.2,5.4-3,6.6-5.7l1.4-0.2l2.9,19.8l6.6-1
		l0.2,1.6l-16.3,2.4L229.4,381.9z"/>
	<path d="M228.3,385.3l-0.7-4.8l8.2-1.2L234,367c-1.4,1.1-3.1,1.9-4.6,2.6l-1.6,0.6l-1.6-4.6l1.4-0.5c2.9-1.1,4.8-2.7,5.7-4.9
		l0.4-0.8l1.5-0.2l0.6-1.3l0.2,1.2l1.6-0.2l2.9,19.7l6.6-1l0.7,4.8L228.3,385.3z"/>
</g>
<g>
	<path d="M257.4,371.9l1.5-0.5l0,0c2.8,3.8,5.9,3.5,10,2c4.5-1.7,6.5-5.9,4.2-13.1c-0.4,2.9-2.2,5.2-6.3,6.7c-5,1.9-9.5,0.5-11-3.7
		s1-8.4,6-10.2c5.3-2,9.9-0.5,11.9,4.8c3.2,8.7,2,14.7-4.3,17C264.9,376.7,260.7,376.4,257.4,371.9z M272,357.3
		c-1.2-3.3-5.1-4.3-9.5-2.7c-4.1,1.5-6.3,4.8-5.1,8.1s5,4.2,9.1,2.7S273.1,360.5,272,357.3z"/>
	<path d="M264.6,377.5c-3.4,0-6.2-1.6-8.5-4.7l-1.2-1.7l4.7-1.6l0.7,1c2,2.7,3.9,3,8.1,1.4c2.9-1.1,4.3-3.3,4.1-6.6
		c-1.2,1.3-2.9,2.4-5.1,3.2c-5.9,2.2-11.2,0.3-13-4.6c-0.9-2.5-0.7-5.1,0.7-7.3c1.3-2.2,3.5-3.9,6.3-4.9c3.3-1.2,6.3-1.3,8.8-0.1
		c2.3,1.1,4.1,3.1,5.1,5.9c2.1,5.7,2.4,10.4,0.8,13.8c-1.1,2.5-3.2,4.2-6.1,5.3C268.1,377.1,266.3,377.5,264.6,377.5z M266.5,355.5
		c-1.1,0-2.3,0.2-3.4,0.7c-1.7,0.6-3,1.6-3.8,2.8c-0.7,1.1-0.8,2.2-0.4,3.3c0.4,1.1,1.2,1.8,2.4,2.2c1.3,0.4,3,0.2,4.7-0.4
		c3.4-1.3,5.3-3.8,4.5-6.1C269.9,356.2,268.3,355.5,266.5,355.5z"/>
</g>
<path d="M157.1,161.6h-3.5l-0.4-0.4l-2-5.4l-0.8-0.4l-9.7,0.1l-0.8,0.4l-1.9,5.4l-0.4,0.4h-3.5l-0.4-0.4v-4.1l8.8-24.1l0.4-0.4h5.1
	l0.4,0.4l9.1,24v4.1L157.1,161.6z M191.4,161.6l-4.7,0.2l-0.4-0.4l-0.6-16.1h-0.4l-5.6,16.4l-0.4,0.4l-4.3,0.2l-0.4-0.4l-6.8-15.9
	h-0.4l0.6,16.1l-0.4,0.4l-4.7,0.2l-0.4-0.4l-1.1-28.1l0.4-0.4l5.8-0.3l0.4,0.4l8.6,19.9h0.4l7-20.6l0.4-0.4l5.8-0.3l0.4,0.4
	l1.1,28.2L191.4,161.6z M210.9,152.2l-7.4,0.2l-0.4,0.4l0.2,10.8L203,164l-4.7,0.1l-0.4-0.4l-0.6-28.2l0.4-0.4l12.8-0.3
	c5.4-0.1,9.4,2.7,9.5,8.5S216.4,152,210.9,152.2L210.9,152.2z M244.3,161.9l-17.5,0.4l-0.4-0.4l-0.5-28.2l0.4-0.4l4.7-0.1l0.4,0.4
	l0.4,23.2l0.4,0.4l12.1-0.3l0.4,0.4l0.1,4.1L244.3,161.9z M267.5,160.3l-18.3-0.1l-0.4-0.4l0.1-28.2l0.4-0.4l18.3,0.1l0.4,0.4v4.1
	l-0.4,0.4l-12.8-0.1l-0.4,0.4v5.8l0.4,0.4l12.1,0.1l0.4,0.4v4.1l-0.4,0.4l-12.1-0.1l-0.4,0.4v6.6l0.4,0.4l12.8,0.1l0.4,0.4v4.1
	L267.5,160.3z M284.9,160.4l-8.5,0.5l-0.4-0.4l-1.3-28.1l0.4-0.4l8.5-0.5c9.7-0.5,13.5,4.7,13.9,13.8S294.6,159.9,284.9,160.4
	L284.9,160.4z M142.3,150.6l6.6-0.1l0.4-0.4l-3.6-9.9h-0.4l-3.4,10L142.3,150.6z M202.9,140.4l0.1,6.6l0.4,0.4l7.4-0.2
	c2.3-0.1,3.9-0.9,3.8-3.8s-1.6-3.7-4-3.6l-7.4,0.2L202.9,140.4z M281.5,155.6l3.5-0.2c5.4-0.3,7.2-3.3,6.9-9.9s-2.4-9.4-7.8-9.1
	l-3.5,0.2l-0.4,0.4l0.9,18.2L281.5,155.6z"/>
<g id="Lz8oWE">
	<g>
		<path d="M300.7,228.3c1-0.1,2-0.2,3-0.3c0.6,0,2.6-0.4,3.3-1.2c0.1-2.5,0.1-4.9,0-7.4c-0.1-3.4-0.6-6.8-1-10.2
			c-0.5-5.3-1.3-10.5-2.3-15.7c-0.7-3.2-1.8-6.4-2.2-9.7c-0.1-0.7-0.4-1.3-0.7-1.9c-0.1-0.2-0.3-0.4-0.4-0.6c-1-0.3-2.1-0.5-3.2-0.5
			c-2,0.1-4.1,0.4-6.1,0.4s-4,0.5-4.9,2.9c-0.3,0.9-1.1,1.6-2.1,1.6c-3.6-0.4-7.2-0.8-10.8-1.2c-0.7-0.1-5.4-0.7-6.3-0.9
			c-1.6-0.4-3.2-0.5-4.9-0.5c-2.2,0-4.4-0.3-6.5-0.8c-2.2-0.4-4.4-0.7-6.6-0.9c-2.3,0.1-4.5,0.7-6,0.4c-3.9-0.4-7.9-0.3-11.8,0.5
			c-0.3,0.1-0.7,0.2-1,0c-1.4-1-3.1-1.1-4.7-1.2c-1.4-0.2-2.8-0.6-4.2-0.8c-1.4-0.2-2.8-0.3-4.2-0.3c-1,0.1-2,0.2-3,0.3
			c-1.6,0.2-3.1,0.4-4.7,0.6L209,181c-0.6,0.2-3.5,0.4-4.3,0.9s-4,1-5,1.2c-2.4,0.4-4.8,0.6-7.3,0.7c-0.5,0-1,0.1-1.5,0.2
			c-2.1,0.8-4.3,1.1-6.5,0.9H184c-2.1,0.2-9.3,0.4-10.8,0.3c-3-0.1-6-0.4-9-0.5c-0.7,0-0.9-0.4-1.2-0.9c-0.5-0.9-0.6-1.9-1.1-2.9
			c-0.4-0.7-0.7-1.3-1.5-1.4c-2.3-0.4-4.6-0.8-6.8-1.3c-3.8-0.8-7.7-1.2-11.6-1.9c-1.3-0.2-2.7-0.3-4-0.4s-1.7,0.4-1.8,1.7
			c-0.1,1.4-0.2,2.8-0.5,4.2c-1.2,4.7-2.8,9.3-4.8,13.7c-1.2,2.8-2.5,5.5-3.4,8.4c-1.1,3.1-1.9,6.3-2.5,9.5c-0.7,4.2-1,8.4-0.8,12.7
			c0.1,1.8,0.6,3.5,0.4,5.2c0,0.9,0.7,1.6,1.6,1.6c0.9,0,1.7,0.3,2.5,0.4c3,0.3,6,0.9,9.1,1.1c2.6,0.2,5.2,1,7.9,0.8
			c0.3,0,0.7,0.2,1,0.2c1.6,0,3.2,0.5,4.6-0.4c2.2-1.1,3.9-3,4.7-5.4c0.5-1.4,0.1-1.5,2-1c2.8,0.7,5.6,1.6,8.4,2.7
			c3.2,1.4,6.5,2.3,9.9,2.8c-1,1.6-1.6,3.3-2,5.1c-0.3,2.1,1.2,5.7,4.1,6.2c1.7,0.4,3.5,0.3,5.2-0.3c0.6-0.3,1.2-0.4,1.8-0.4
			c-0.9,1.8-0.9,4,0,5.8c0.7,1.6,2.2,2.7,3.9,2.8c0.9,0.1,1.8,0.1,2.7-0.1c0.9-0.2,1.1,0.2,1.3,0.9c0.7,3.2,3.8,5.3,7,4.6
			c0,0,0,0,0,0c1.3-0.1,2.6-0.5,3.8-1c0.1,0.9,0.4,1.8,0.8,2.6c1.5,2.9,4.1,3.8,7.1,2.4c0.5-0.3,1.1-0.5,1.7-0.7
			c0.9-0.2,1.7-0.7,2.3-1.4c1.5-1.7,3.3-3,4.4-5.1c0.7-1.4,1.3-1.5,2.9-0.9c4.3,1.8,8.9,2.4,13.5,1.7c2.2-0.2,4.2-1.5,5.3-3.5
			c0.2-0.7,0.9-1.1,1.6-0.9c0.3,0,0.7,0,1,0c3.6,0.1,6.2-1.7,8.6-4.2c0.3-0.3,0.6-0.7,0.6-1.2c0-1.1,0.7-1.3,1.6-1.2
			c0.2,0,0.5,0,0.7-0.1c3.4-0.1,6.3-1,7.9-4.3c0.2-0.4,0.5-0.4,0.8-0.3c0.7,0,1.4,0.2,2,0.4c1.4,0.5,2.9,0.5,4.4,0.1
			c3.3-0.7,4-3.4,2.4-5.6c-0.5-0.6-0.9-1.3-1.4-1.9c-0.2-0.3-0.6-0.5-0.5-1c2.2-1,4.6-1.5,6.5-3.1c0,0,0.1-0.1,0.1-0.1
			c1.4-0.5,2.8-1.3,4-2.2c2-1.4,4.1-2.8,6.3-3.9c0.5,0.9,1.1,1.9,1.5,2.8c0.6,1.4,2,2.4,3.5,2.5c0.9,0.1,1.8,0,2.7-0.1
			C297.2,228.6,299.8,228.4,300.7,228.3z M148.2,222.3c-0.1,3.5,0.1,7.1,0.6,10.6c-0.4,0.2-0.9,0.3-1.3,0.2
			c-2.6-0.3-5.2-0.5-7.8-0.8c-0.7-0.1-1.5-0.1-2.2-0.1c-2.1,0-4.2-0.3-6.2-0.8c-0.8-0.1-1.6-0.2-2.4-0.2c-1.1,0.1-2-0.7-2.1-1.7
			c-0.4-2-0.6-4-0.6-6c0-2,0.2-4,0.4-5.9c0.2-2,0.6-4,1.1-6c0.3-1.4,0.6-2.7,1-4.1c0.9-3.1,2-6.1,3.4-9c1.2-2.6,2.1-5.2,3.2-7.8
			c0.7-1.7,1.1-3.4,1.8-5.1c0.6-1.8,0.9-3.7,0.9-5.7c0.1-1.4,0.2-1.6,1.5-1.4c4.1,0.6,8.3,1.1,12.4,2c1.9,0.6,3.8,1,5.8,1.1
			c1.2,0,1.3,0.2,1.2,1.4c-0.3,3.8-1.1,7.6-2.4,11.2c-1.1,3.4-2.6,6.7-3.8,10.1c-1,2.7-1.9,5.5-2.6,8.3
			C148.9,215.7,148.4,219,148.2,222.3L148.2,222.3z M153.1,230.6c-0.4,0.4-0.8,0.8-1.2,1.2s-0.8,0.4-0.9-0.1
			c-0.3-1.2-0.5-2.4-0.6-3.7c0-0.6,0.2-1.1,1-1.2c0.2,0.1,0.3,0.1,0.5,0.1C154.4,227.4,154.8,228.6,153.1,230.6z M181.4,243.3
			c-2.3,0.5-4.5-1-5-3.2c0,0,0,0,0-0.1c-0.1-0.3,0-0.7,0.1-1c0.9-2.5,2.4-4.8,4.5-6.5c0.9-0.7,1.9-1.4,2.9-2.1
			c0.4-0.2,0.8-0.3,1.1-0.3c-0.4,0.8-0.6,1.4-0.8,1.9c-0.9,2-0.1,4.3,1.8,5.3c0,0,0,0,0,0c1.1,0.5,2.4,0.4,3.4-0.2
			c0.4-0.3,0.9-0.5,1.4-0.8c-0.1,1.7-0.7,2.7-2.2,3.1c-0.7,0.2-1.2,0.6-1.7,1.1C185.4,242.3,183.4,242.9,181.4,243.3z M186.8,231.3
			c0.8-1,1.9-1.8,3-2.4c0.8-0.6,1.9-0.5,2.6,0.3c0.7,0.8,0.7,2-0.1,2.8c-1,1.3-2.3,2.3-3.7,3.1c-0.7,0.4-1.5,0.4-2.1,0
			c-0.7-0.4-0.6-1.1-0.6-1.8C185.9,232.5,186.2,231.8,186.8,231.3z M190.6,251.2c-1.9,0.1-3.6-1.4-3.7-3.3c0-0.4,0-0.8,0.1-1.2
			c0.6-1.7,1.5-3.3,2.7-4.6c1.7-2,3.6-3.8,5.4-5.6c0.1-0.2,0.4-0.3,0.6-0.3c0.4,0.3,0.1,0.8,0.1,1.2c-0.3,3.9,2.6,4.9,5.3,4.2
			c0.5-0.3,1-0.3,1.6-0.2c-0.7,0.8-1,1.7-1.9,2.1c-0.2,0.1-0.3,0.2-0.4,0.3c-1.2,1.8-2.7,3.4-4.5,4.5
			C194.4,249.5,192.9,251,190.6,251.2z M198.3,236.7c0.7-1.4,1.7-2.6,2.9-3.5c1-0.6,2.3-0.6,3.4,0c0.6,0.3,0.7,0.8,0.7,1.8
			c-0.5,1.1-1.2,2.1-2.2,2.9c-0.8,0.6-1.7,1-2.6,1.2c-0.7,0.3-1.5,0.2-2.1-0.4C198,238.2,197.9,237.3,198.3,236.7L198.3,236.7z
			 M202,256c-1.4,0.7-3.1,0.8-4.6,0.3c-1.8-0.7-2.6-3.5-1.3-4.9c0.4-0.5,0.9-0.9,1.4-1.2c2.2-1.7,4.2-3.6,5.9-5.8
			c0.9-1.2,2-2.3,3.2-3.2c-0.6,1.7-0.9,3.5,0.4,5c1.4,1.7,3.4,1.6,5.4,1.1c-0.4,0.8-0.9,1.5-1.5,2.2
			C208.6,252.3,205.5,254.6,202,256z M208.6,242.6c1-1.8,2.9-2.6,4.5-3.7c0.2-0.1,0.4-0.1,0.6,0c0.8,0.7,1.1,1.7,0.8,2.7
			c-0.8,1.3-1.9,2.4-3.2,3.2c-0.4,0.3-1,0.2-1.5,0.3c-0.6-0.1-1.2-0.1-1.6-0.8C208.1,243.8,208.2,243.1,208.6,242.6L208.6,242.6z
			 M218.6,254.9c-0.9,0.9-6.4,5.8-8.2,6.2c-1.4,0.3-2.8-0.2-3.5-1.4c-0.5-1.1-0.4-2.3,0.2-3.4c0.3-0.5,0.7-0.9,1.1-1.2
			c2.2-2,4.5-3.9,5.9-6.6c0.5-0.9,1.5-1.5,2-2.6c0.2,0.5,0.2,1,0,1.5c-0.4,1.3,0,2.8,1,3.7c0.9,1,2,1.2,3.4,0.1
			C220.2,252.7,219.6,253.9,218.6,254.9L218.6,254.9z M222.9,245.1c-0.7,1.7-1.9,3.1-3.4,4.1c-0.3,0.2-0.8,0.4-1.1,0.1
			c-0.4-0.3-0.6-0.8-0.4-1.3c0.5-1.6,1.3-3.1,2.3-4.5c0.4-0.4,0.7-1.2,1.5-0.8c0.8,0.4,1.3,1.2,1.2,2.1
			C223,244.9,222.9,245,222.9,245.1L222.9,245.1z M239.5,253c-0.8,0.9-1.9,1.4-3.1,1.6c-2.6,0.3-5.3,0.2-7.9-0.4
			c-2-0.4-3.6-1.5-5.4-2.1l2.1-5.9c1.3,0.4,2.6,0.9,3.8,1.5c0.4,0.3,0.9,0.5,1.4,0.7c2.9,1,5.8,2.1,8.8,3.1
			C240.1,251.8,240.3,252.2,239.5,253L239.5,253z M272,238.2c0.2,0.4-0.3,0.9-0.9,1c-0.9,0.2-1.8,0.3-2.7,0.1
			c-2.4-0.7-5-0.8-7.2-1.9s-4.3-1.9-6.4-3c-3.1-1.6-6.2-3.2-9.2-4.9c-3.1-1.5-6-3.4-8.6-5.6c-0.5-0.4-1-0.8-1.7-0.2
			c-0.4,0.5-0.4,1.2,0,1.7c0.1,0.1,0.1,0.1,0.2,0.1c1.1,1.1,2.4,2.1,3.8,2.8c1.5,0.8,2.9,1.7,4.4,2.6c0.9,0.5,1.9,0.8,2.7,1.4
			c3.1,2.1,6.7,3.5,10,5.4c1.5,0.9,3.3,1.1,4.9,2c1.1,0.6,1.3,1.1,0.4,2c-0.9,0.9-2.1,1.4-3.4,1.6c-2.1,0.3-4.2,0.3-6.2-0.1
			c-1.8-0.4-3.6-0.9-5.4-1.3c-1.8-0.4-3.6-1-5.3-1.9c-2.3-1.1-4.6-2.2-6.8-3.4c-2.4-1.1-4.7-2.5-6.7-4.1c-0.4-0.5-1.1-0.6-1.6-0.2
			c0,0,0,0-0.1,0.1c-0.7,0.6-0.3,1.1,0,1.6c0.3,0.4,0.6,0.7,1,0.9c1.5,0.8,2.7,2,4.1,2.6c2.5,1.1,4.8,2.4,7.2,3.7
			c2.5,1.2,5.1,2.1,7.8,2.8c1.5,0.5,3,1,4.6,1.3c0.9,0.1,0.9,0.6,0.6,1.3c-0.5,1.2-1.6,2.1-2.9,2.4c-0.6,0.2-1.2,0.4-1.7,0.6
			c-1.9,0.6-4.1,0.6-6,0c-1.9-0.5-3.8-1.1-5.6-1.8c-3-1.3-6.2-2.2-9.2-3.8c-0.4-0.2-0.7-0.5-0.9-0.9c-0.5-1-1.3-1.8-2.2-2.3
			c-0.9-0.8-2.2-1-3.3-0.5c-0.4,0.2-0.8,0.3-1.3,0.4c-0.6,0.1-1,0.1-1.1-0.8c-0.3-2.3-1.8-4-3.9-4.1c-1.5-0.1-3,0.1-4.3,0.7
			c-0.3,0.1-0.6,0.4-0.8,0.3c-0.2-0.1-0.3-0.3-0.2-0.5c1-3.6-2.7-6.5-6.2-5.7c-1.1,0.2-2.1,0.6-3.1,0.9c-1,0.3-2,0.8-2.8,1.6
			c-0.1-1.2-0.2-2.2-0.3-3.2c-0.4-2.8-3.1-4.7-5.9-4.3c-0.1,0-0.1,0-0.2,0c-1.6,0.5-3.1,1.1-4.5,1.9c-2.8,1.3-5.4,3.1-7.5,5.3
			c-0.2,0.2-0.3,0.3-0.6,0.5c-0.3-0.5-0.5-1.1-1.1-1.2c-1.4-0.1-2.6-0.9-4-1.1c-2-0.4-3.7-1.5-5.6-2c-2.2-0.6-4.4-1.4-6.6-2.2
			c-2.6-1-5.3-1.7-8-2.2c-1.4-0.3-1.3-0.4-1.4-1.8c0-1.6,0.3-3.2,0.7-4.8c0.5-2.4,0.8-4.9,1.6-7.3c0.5-1.7,1.2-3.4,1.9-5.1
			c0.4-1.1,0.5-2.2,1-3.2c0.7-1.3,1.2-2.6,1.7-3.9c1-2.4,1.8-4.9,2.4-7.4c0.4-1.2,0.7-2.5,1-3.8c0.1-0.7,0.6-0.7,1.2-0.6
			c1.6,0.2,3.2,0.4,4.8,0.5c3.1,0.3,6.1,0.2,9.2,0.2c1.9,0,3.9,0,5.8-0.1c1.7-0.1,3.4-0.3,5.1-0.5c3-0.4,6.1-0.9,9.1-1.2
			c3.3-0.3,6.6-0.8,9.9-1.4c1.6-0.3,3.1-0.9,4.6-1.2c3.5-0.9,7.1-1,10.6-0.4c1.5,0.3,3.1,0.6,4.7,1c-0.2,0.2-0.2,0.4-0.4,0.5
			c-2.1,1-4.3,1.7-6.5,2.3c-2.3,0.4-4.5,1.1-6.5,2.2c-1.4,0.7-2.5,1.9-2.9,3.4c-0.4,1.6-1.5,2.7-2.3,4.1c-1.7,3-3.7,5.8-6,8.4
			c-1.8,2.1-3.6,4.2-5.6,6.2c-0.9,0.9-0.9,1.9-1.3,2.9c-0.1,0.3,0,0.6,0.2,0.8c1.1,1.2,2.5,2.1,4.1,2.5c2.2,0.4,4-0.4,5.9-1
			c2.5-0.8,4.9-2,7.1-3.6c3-2,5.8-4.4,8.2-7c0.5-0.5,1-1,1.7-0.8c2.3,0.5,4.3-0.5,6.4-1.2c0.8-0.4,1.7-0.7,2.5-1
			c0.5-0.2,1,0,1.4,0.3c2,1.7,4.4,3,6.3,4.8c0.4,0.3,0.8,0.6,1.3,0.8c1.1,0.4,2,1.1,2.8,1.9c0.8,0.9,1.9,1.2,2.8,1.9
			c3.1,2.4,6,5,9.1,7.4c2.1,1.6,3.9,3.6,6.1,5.2c1.9,1.6,3.6,3.3,5.2,5.1c1.6,1.8,3.3,3.6,5,5.2C271.4,235.7,271.4,237.1,272,238.2z
			 M288.2,221.1c-0.4,0.5-1.1,0.5-1.6,0.9c-2,1.5-4,2.9-6.1,4.2c-1.9,1.2-3.9,2.3-6,3.1c-1.1,0.4-2.1,0.9-3.1,1.3
			c-1.1,0.6-2.4,0.2-3-0.9c-0.7-0.9-1.5-1.7-2.3-2.5c-3-3.4-6.6-6-9.9-9c-0.9-0.8-1.9-1.4-2.7-2.3c0.2-0.3,0.6-0.5,0.9-0.4
			c2.4,0.3,4.6-0.6,6.8-1.1c1.7-0.5,3.4-1.3,4.9-2.3c0.6-0.4,1.3-0.8,1.9-1.2c0.5-0.2,0.7-0.8,0.5-1.3c0,0-0.1-0.1-0.1-0.1
			c-0.3-0.5-0.9-0.5-1.4-0.3s-1.1,0.9-1.7,1.1c-2.5,1.2-5,2.5-7.8,2.9c-2.2,0.4-4.4,0.4-6.6,0.1c-0.9-0.2-1.7-0.6-2.4-1.2
			c-2.1-1.4-3.8-3.3-6.2-4.3c-0.6-0.4-1.2-0.8-1.8-1.2c-2.4-1.7-4.7-3.5-7-5.3c-0.1-0.1-0.3-0.3-0.4-0.5c1.3-1.2,2.9-2.1,4.2-3.4
			c0.5-0.5,0.7-0.9,0.3-1.5s-1-0.6-1.6-0.3c-0.2,0.1-0.3,0.2-0.4,0.3c-0.9,0.9-1.9,1.7-2.9,2.3c-2.9,1.8-6,3.1-9.3,3.9
			c-0.4,0.1-0.8,0-1.2-0.3c0.2-0.4,0.3-0.9,0.4-1.4c0.1-0.5-0.2-0.9-0.6-1.1c-0.4-0.1-0.8,0-1.1,0.3c-0.3,0.3-0.6,0.6-0.9,1
			c-2.5,3.7-5.7,6.9-9.6,9.1c-0.3,0.2-0.7,0.4-0.9,0.7c-0.5,0.6-1.2,1.1-2,1.2c-0.5,0.1-0.9,0.4-1.4,0.6c-2.1,1.2-4.5,1.9-6.9,2
			c1.3-1,2.5-1.9,3.7-2.7c1.6-0.9,2.8-2.4,3.4-4.2c0.1-0.4,0.2-0.9,0.4-1.3c0.5-1,0.4-2.2-0.4-3c-0.9-1.1-0.6-2,0-3.1
			s1.9-2.1,2.4-3.5c0.6-1.5,1.4-3,2.2-4.4c0.7-1.4,2.2-2.1,3.6-2.6c2-0.7,4.1-1.3,6.2-1.6c2-0.5,4-1.2,5.9-2.1
			c2.3-0.9,4.8-1.4,7.3-1.5c4.8-0.6,9.6-0.1,14.4,0c3.4-0.1,6.8,0.1,10.2,0.5c2,0.3,4,0.6,6,0.9c2.6,0.4,5.1,1,7.7,1.1
			c2.3,0.1,4.6,0.7,6.9,0.8s4.5,0.3,6.8,0.2c1.6,0,1.7,0,2.4,1.6c1,2.3,1.4,4.9,2.1,7.3c0.8,3,1.4,6,1.8,9.1
			c0.5,3.6,1.1,7.2,1.2,10.9c0.1,0.6-0.2,1.2-0.8,1.4C291.2,219,289.4,219.6,288.2,221.1L288.2,221.1z M293,226.1
			c-0.4-0.1-0.8-0.4-1-0.8c-0.2-0.3-0.3-0.7-0.5-1.1c-1.2-2.4-1.2-2.4,1.2-3.6c0.2-0.1,0.4-0.2,0.6-0.2c0.1,0,0.2,0,0.3,0.1
			C293.9,222.4,293.7,224.3,293,226.1L293,226.1z M295.8,225.8c0.4-2.2,0.6-4.5,0.4-6.8c-0.3-3.3-0.4-6.5-0.9-9.8
			c-0.3-1.8-0.4-3.6-0.7-5.4c-0.5-3.1-1.4-6.1-2-9.1c-0.4-1.8-0.9-3.5-1.3-5.3c-0.4-1.5-1.2-2.9-2.2-4.1c-0.6-0.8-0.5-1.1,0.4-1.4
			c0.6-0.3,1.2-0.4,1.8-0.4c2.1,0,4.3-0.1,6.4-0.4c1.1-0.1,1.4,0,1.7,1.1s0.8,2.4,1,3.6c0.6,2.9,1.4,5.8,1.7,8.7
			c0.4,2.8,1.1,5.5,1.4,8.3c0.3,3.5,0.9,6.9,1.2,10.4c0.3,2.1,0.4,4.1,0.4,6.2c0,0.7,0,1.5,0,2.2c0.1,2.4-0.2,2.1-2,2.4
			c-2.2,0.3-4.4,0.5-6.6,0.5C295.9,226.6,295.6,226.4,295.8,225.8L295.8,225.8z"/>
		<path d="M209.4,265c-2.3,0-4.3-1.3-5.6-3.8c-0.2-0.5-0.4-1-0.6-1.5c-0.9,0.3-1.8,0.5-2.7,0.6c-1.9,0.4-3.8,0-5.4-1.1
			c-1.6-1-2.6-2.6-3.1-4.4c-1,0.2-2,0.2-2.9,0c-2.1-0.1-4.1-1.5-4.9-3.6c-0.7-1.4-0.9-3-0.7-4.5c-1.8,0.5-3.6,0.6-5.4,0.2
			c-3.7-0.7-5.6-5.1-5.2-7.7c0.3-1.4,0.7-2.7,1.3-3.9c-2.9-0.5-5.7-1.4-8.4-2.6c-2.6-1-5.4-1.9-8.2-2.6c-0.1,0-0.2-0.1-0.3-0.1
			c0,0.1,0,0.2-0.1,0.2c-1,2.6-2.9,4.8-5.4,6.1c-1.4,0.8-2.8,0.7-4.1,0.6c-0.4,0-0.8-0.1-1.2-0.1c-0.3,0-0.6-0.1-0.8-0.1
			c0,0-0.1,0-0.1,0c-1.7,0.1-3.4-0.2-5-0.4c-1-0.2-2-0.3-3-0.4c-1.9-0.1-3.8-0.4-5.7-0.7c-1.2-0.2-2.3-0.3-3.5-0.5
			c-0.4,0-0.9-0.1-1.2-0.2c-0.4-0.1-0.8-0.2-1.1-0.2c-1.6,0-2.9-1.4-2.9-3l0-0.1c0.1-0.9,0-1.9-0.2-2.9c-0.1-0.7-0.2-1.4-0.2-2.1
			c-0.2-4.3,0-8.7,0.8-13c0.6-3.3,1.5-6.6,2.6-9.7c0.7-2.1,1.6-4.2,2.5-6.2c0.3-0.8,0.7-1.5,1-2.3c2-4.4,3.5-8.9,4.7-13.5
			c0.2-1.2,0.4-2.6,0.4-3.9c0.1-0.8,0.3-3.2,3.2-2.9c1.6,0.1,2.9,0.3,4.1,0.4c1.3,0.2,2.6,0.4,3.9,0.6c2.5,0.4,5.1,0.8,7.7,1.3
			c2.5,0.5,4.7,0.9,6.8,1.3c1.5,0.3,2.1,1.5,2.5,2.1c0.3,0.5,0.5,1.1,0.6,1.6c0.1,0.4,0.3,0.9,0.5,1.2c0,0.1,0.1,0.2,0.2,0.3
			c1.4,0.1,2.8,0.2,4.1,0.2c1.6,0.1,3.3,0.2,4.9,0.3c1.4,0.1,8.5-0.1,10.6-0.3l0.2,0l0.6,0c2,0.2,4-0.1,5.9-0.8l0.2,0
			c0.6-0.1,1.2-0.2,1.8-0.2c2.3-0.1,4.7-0.3,7.1-0.7c3.6-0.6,4.4-0.9,4.5-1c0.7-0.4,2.1-0.7,3.7-0.9c0.4-0.1,0.7-0.1,0.9-0.1
			l0.5-0.1c1.6-0.2,3.1-0.4,4.7-0.6c1-0.1,2-0.2,3.1-0.3l0.1,0l0.1,0c1.4,0,2.9,0.1,4.4,0.3c0.7,0.1,1.4,0.2,2.1,0.4
			c0.7,0.2,1.4,0.3,2.1,0.4l0.5,0.1c1.5,0.2,3.1,0.3,4.6,1.3c0,0,0,0,0,0l0.2,0c4.1-0.8,8.2-1,12.2-0.5c0.8,0.1,1.9,0,3-0.2
			c0.9-0.1,1.8-0.2,2.8-0.3l0.1,0l0.1,0c2.2,0.2,4.5,0.5,6.7,0.9c2.1,0.5,4.2,0.8,6.3,0.8c1.7-0.1,3.4,0.1,5.1,0.5
			c0.8,0.2,5.4,0.8,6.1,0.9c1.8,0.2,3.6,0.4,5.4,0.6c1.8,0.2,3.5,0.4,5.3,0.6c0.4,0,0.7-0.3,0.8-0.6l0-0.1c1.4-3.6,4.8-3.7,6.1-3.7
			c1.1,0,2.2-0.1,3.3-0.2c0.9-0.1,1.9-0.2,2.8-0.2c1.3,0,2.5,0.2,3.7,0.6l0.3,0.1l0.2,0.2c0.3,0.3,0.5,0.6,0.7,0.9
			c0.4,0.7,0.7,1.4,0.8,2.2l0,0.1c0.3,2,0.8,4,1.3,6c0.3,1.2,0.6,2.4,0.9,3.6c1.1,5.2,1.8,10.6,2.3,15.9l0.2,2
			c0.3,2.7,0.7,5.5,0.8,8.3c0.1,2.5,0.1,5,0,7.5l0,0.4l-0.3,0.3c-1,1.3-3.7,1.7-4.3,1.7c-1,0.1-2,0.1-2.8,0.2l0,0
			c-0.5,0.1-1.4,0.1-2.3,0.2c-0.8,0.1-1.5,0.1-1.7,0.2c-1,0.1-2,0.2-3,0.1c-2.1-0.1-3.8-1.4-4.7-3.3c-0.2-0.5-0.5-1-0.8-1.6
			c-1.7,1-3.4,2-5,3.2c-1.3,1-2.7,1.9-4.2,2.4c-1.4,1.2-3,1.8-4.6,2.3c-0.2,0.1-0.5,0.2-0.7,0.3c0.3,0.3,0.5,0.7,0.7,1l0.3,0.5
			c1.1,1.5,1.3,3.2,0.8,4.7c-0.6,1.5-2,2.6-3.9,3c-1.7,0.5-3.5,0.5-5.1-0.1c-0.5-0.1-0.9-0.2-1.4-0.3c-2.2,3.9-6,4.5-8.8,4.6
			c-0.3,0-0.5,0-0.8,0.1l-0.1,0l-0.1,0c-0.1,0-0.1,0-0.1,0v0c-0.1,0.8-0.4,1.5-1,2.1c-2.1,2.1-5,4.5-9.3,4.5c-0.1,0-0.2,0-0.2,0
			c-0.4,0-0.7,0-1.1,0l-0.1,0c-0.1,0-0.1,0-0.1,0.1l-0.1,0.2c-1.2,2.4-3.7,4-6.4,4.2c-4.7,0.7-9.6,0.1-14.1-1.8
			c-0.5-0.2-0.8-0.3-0.9-0.3c-0.1,0.1-0.2,0.2-0.3,0.5c-0.8,1.7-2.1,2.9-3.2,4c-0.5,0.4-0.9,0.9-1.3,1.4c-0.8,0.9-1.8,1.5-3,1.8
			c-0.4,0.1-0.9,0.3-1.4,0.6C211.6,264.7,210.4,265,209.4,265z M217,258.1c-1.1,1-2.5,2.1-3.7,2.9c0.1,0,0.1,0,0.2-0.1
			c0.7-0.2,1.2-0.5,1.6-1c0.5-0.5,1-1,1.5-1.5C216.7,258.4,216.9,258.3,217,258.1z M208,259.1c0.5,0.6,1.3,0.9,2.1,0.7
			c1.3-0.3,6.3-4.6,7.6-5.9l0.1-0.1c0.2-0.2,0.3-0.4,0.5-0.6c-0.8-0.1-1.5-0.5-2.1-1.2c-0.6-0.6-1-1.4-1.3-2.2
			c-1.3,2.2-3.2,3.9-5,5.5l-0.8,0.7c-0.3,0.3-0.6,0.6-0.9,1C207.8,257.7,207.8,258.5,208,259.1z M206,255.5c-1,0.6-2,1.1-3.1,1.6
			c0.3-0.1,0.5-0.2,0.8-0.3l1.6-0.7l0.1,0.8c0.1-0.4,0.3-0.8,0.5-1.2L206,255.5C206,255.5,206,255.5,206,255.5z M204.8,244.6
			c-0.1,0.2-0.3,0.3-0.4,0.5c-1.8,2.3-3.9,4.3-6.1,6.1c-0.5,0.3-0.9,0.7-1.2,1.1c-0.3,0.3-0.4,0.8-0.2,1.4c0.2,0.6,0.6,1.2,1,1.4
			c1.1,0.4,2.4,0.3,3.6-0.2l0.1,0c3.2-1.2,5.9-3.3,8-6c-1.3-0.1-2.5-0.6-3.6-1.8C205.3,246.2,204.9,245.4,204.8,244.6z M224.8,251.3
			c0.3,0.1,0.7,0.3,1,0.4c1,0.5,2,0.9,3,1.1c2.5,0.6,5,0.7,7.5,0.3c0.7-0.1,1.3-0.3,1.8-0.7c-1.4-0.5-2.8-1-4.2-1.5
			c-1.3-0.5-2.6-0.9-3.9-1.4c-0.6-0.3-1.1-0.5-1.6-0.8c-0.7-0.4-1.5-0.7-2.4-1L224.8,251.3z M221.4,253c0,0.1-0.1,0.2-0.1,0.3
			c0.3-0.1,0.6-0.1,1-0.1L221.4,253z M192.6,252.1c0.4,0,0.8,0.1,1.1,0.3c0.2,0.1,0.3,0.3,0.5,0.4c0.1-0.7,0.3-1.3,0.6-1.9
			C194.1,251.4,193.4,251.8,192.6,252.1C192.5,252.1,192.6,252.1,192.6,252.1z M222.3,248.5l-0.5,3c-0.1,0.3-0.1,0.6-0.2,0.9l2-5.7
			C223.2,247.4,222.8,248,222.3,248.5z M241,251.1c0.2,0.2,0.3,0.4,0.3,0.7c0,0.1,0,0.1,0,0.2c0.2-0.3,0.4-0.5,0.7-0.6
			C241.6,251.3,241.3,251.2,241,251.1z M194.6,238.9c0,0-0.1,0.1-0.1,0.1c-1.3,1.3-2.6,2.6-3.8,3.9c-1.1,1.2-2,2.7-2.5,4.2
			c0,0.2-0.1,0.4-0.1,0.7c0,0.6,0.3,1.1,0.7,1.5c0.4,0.4,1,0.6,1.6,0.5c1.5-0.1,2.6-1,3.9-2c0.3-0.2,0.6-0.4,0.9-0.7
			c1.7-1.1,3.1-2.5,4.1-4.1c-1.2,0-2.3-0.4-3.1-1.1C195.6,241.4,194.8,240.5,194.6,238.9z M223.7,239.7c1.1,0.7,2,1.6,2.6,2.8l0,0.1
			c0.1,0.1,0.1,0.2,0.3,0.3c1.9,1,3.9,1.8,5.8,2.5c1.1,0.4,2.3,0.8,3.4,1.3c1.7,0.7,3.6,1.3,5.4,1.7c1.8,0.6,3.6,0.6,5.2,0
			c0.2-0.1,0.4-0.2,0.7-0.2c0.4-0.1,0.7-0.3,1.1-0.4l0.2,0c0.7-0.1,1.4-0.6,1.8-1.2c-1.4-0.3-2.8-0.7-4.2-1.2
			c-2.7-0.7-5.4-1.7-8-2.9c-0.8-0.4-1.5-0.8-2.2-1.2c-1.6-0.9-3.3-1.7-5-2.5c-0.9-0.4-1.7-1-2.5-1.5c-0.6-0.4-1.2-0.8-1.7-1.1
			c-0.6-0.4-1.1-0.8-1.5-1.4c-1.1-1.7-0.5-2.8,0.2-3.4l0.1-0.1c1-0.8,2.5-0.7,3.4,0.2c2,1.5,4.1,2.9,6.4,3.9
			c1.8,0.9,3.6,1.8,5.3,2.6l1.6,0.8c1.6,0.8,3.3,1.4,5,1.8c0.8,0.2,1.5,0.4,2.3,0.6c1,0.3,2.1,0.5,3.1,0.7c1.9,0.4,3.9,0.4,5.8,0.1
			c1-0.1,1.8-0.5,2.5-1.1c-0.7-0.4-1.4-0.6-2.2-0.9c-0.9-0.3-1.8-0.6-2.7-1.1c-1.3-0.7-2.6-1.4-3.9-2c-2.1-1-4.2-2.1-6.2-3.4
			c-0.4-0.3-0.9-0.5-1.4-0.7c-0.4-0.2-0.9-0.4-1.3-0.6c-0.6-0.3-1.2-0.7-1.7-1c-0.9-0.5-1.7-1.1-2.6-1.5c-1.5-0.8-2.9-1.8-4-3
			c-0.1-0.1-0.2-0.1-0.2-0.2c-0.5-0.5-0.8-1.1-0.8-1.7c0-0.7,0.2-1.3,0.7-1.8l0.1-0.1c0.7-0.6,1.9-1.1,3.4,0.2
			c2.6,2.1,5.4,3.9,8.4,5.4c2.8,1.5,5.7,3,8.5,4.5l0.7,0.4c1.1,0.6,2.1,1,3.3,1.5c1,0.4,2.1,0.9,3.2,1.5c1.2,0.6,2.6,0.9,4.1,1.2
			c0.9,0.2,1.8,0.4,2.8,0.6c0.6,0.1,1.2,0.1,1.7,0c-0.1-0.2-0.1-0.3-0.2-0.5c-0.3-0.8-0.4-1.2-0.9-1.5l-0.1-0.1
			c-1.8-1.7-3.6-3.5-5.2-5.3c-1.5-1.8-3.2-3.4-5-5c-1.1-0.8-2.2-1.8-3.2-2.7c-1-0.9-1.9-1.7-2.8-2.4c-1.6-1.2-3.2-2.6-4.7-3.8
			c-1.4-1.2-2.9-2.4-4.4-3.6c-0.3-0.2-0.6-0.4-1-0.6c-0.6-0.4-1.3-0.8-2-1.4c-0.6-0.6-1.4-1.2-2.3-1.5c-0.6-0.2-1.2-0.6-1.7-1
			c-1.1-1-2.2-1.8-3.4-2.6c-1-0.7-2-1.4-2.9-2.2l-0.5-1.3l0.4,1.3c-0.8,0.3-1.6,0.6-2.3,0.9l-0.1,0c-0.3,0.1-0.5,0.2-0.8,0.3
			c-1.9,0.7-4,1.5-6.4,1c-0.1,0-0.4,0.3-0.5,0.5c-2.5,2.7-5.4,5.1-8.5,7.2c-2.3,1.6-4.8,2.8-7.4,3.7c-0.3,0.1-0.5,0.2-0.8,0.3
			c-1.8,0.6-3.6,1.2-5.8,0.8c-1.9-0.5-3.6-1.5-4.8-2.9c-0.6-0.5-0.8-1.4-0.5-2.1l0.1-0.1c0.1-0.2,0.2-0.5,0.3-0.8
			c0.2-0.7,0.5-1.6,1.3-2.4c1.8-1.8,3.5-3.8,5.2-5.7l0.3-0.4c2.2-2.5,4.2-5.3,5.9-8.2c0.3-0.5,0.6-0.9,0.9-1.4
			c0.5-0.8,1.1-1.5,1.3-2.4c0.6-1.9,1.9-3.4,3.7-4.3c2.1-1.1,4.4-1.9,6.8-2.3c1.1-0.3,2.2-0.6,3.3-1c-0.3-0.1-0.7-0.1-1-0.2
			c-3.3-0.6-6.7-0.5-10,0.4c-0.7,0.2-1.3,0.3-1.9,0.5c-0.9,0.3-1.8,0.5-2.8,0.7c-3.3,0.6-6.7,1.1-10,1.4c-2,0.2-4,0.4-6,0.7
			c-1,0.1-2.1,0.3-3.1,0.4c-1.7,0.2-3.4,0.4-5.2,0.5c-2,0.1-3.9,0.1-5.8,0.1l-0.3,0c-2.9,0-6,0-9-0.2c-1-0.1-2.1-0.2-3.1-0.3
			c-0.5-0.1-1.1-0.1-1.6-0.2c-0.3,1.2-0.6,2.3-0.9,3.4c-0.6,2.6-1.4,5.1-2.5,7.6l-0.2,0.5c-0.5,1.1-0.9,2.3-1.5,3.4
			c-0.2,0.4-0.3,0.9-0.5,1.4c-0.1,0.5-0.3,1.1-0.5,1.7c-0.7,1.6-1.3,3.3-1.9,5c-0.5,1.5-0.7,3.1-1,4.7c-0.2,0.8-0.3,1.7-0.5,2.5
			c-0.4,1.5-0.7,3-0.7,4.6l0,0.2c0,0.1,0,0.2,0,0.2c0.1,0,0.2,0,0.3,0.1c2.8,0.5,5.5,1.3,8.2,2.3c2.3,0.8,4.4,1.6,6.5,2.2
			c0.9,0.3,1.7,0.6,2.5,1c1,0.4,1.9,0.8,2.9,1c0.7,0.1,1.4,0.4,2,0.6c0.7,0.2,1.3,0.5,1.9,0.5c0.5,0,0.9,0.2,1.1,0.5
			c2.1-2.1,4.6-3.8,7.4-5.1c1.4-0.8,3-1.4,4.7-1.9l0.4-0.1c1.7-0.3,3.4,0.1,4.8,1.2c1.4,1,2.3,2.5,2.6,4.2c0,0.4,0.1,0.7,0.1,1.1
			c0.4-0.2,0.8-0.4,1.3-0.5c0.4-0.1,0.8-0.2,1.1-0.3c0.7-0.2,1.3-0.4,2-0.6c2.3-0.6,4.8,0.2,6.4,1.8c1,1.1,1.6,2.4,1.6,3.8
			c1.3-0.4,2.6-0.6,4-0.5c2.4,0.1,4.4,2,5,4.8c0.2-0.1,0.4-0.1,0.6-0.2C220.6,238.4,222.4,238.6,223.7,239.7z M221.5,244.2
			c-0.1,0.1-0.1,0.1-0.2,0.2c-0.7,0.9-1.2,2-1.7,3.1c0.9-0.8,1.6-1.8,2-2.9C221.6,244.4,221.6,244.3,221.5,244.2z M255.3,246.7
			L255.3,246.7L255.3,246.7z M214.7,245.1l-0.5,1.2c0.3-0.3,0.6-0.6,0.7-0.9l1.4-3.1l1.1,3.2c0,0.1,0.1,0.2,0.1,0.3
			c0.5-1.1,1.1-2.1,1.8-3.1c0.1-0.1,0.1-0.2,0.2-0.2c0.5-0.7,1-1.1,1.5-1.2c-0.3,0-0.6,0-0.8,0.2c-0.5,0.2-1.1,0.4-1.6,0.5
			c-0.3,0.1-1.1,0.3-1.8-0.2c-0.3-0.2-0.5-0.5-0.7-0.8c0,0.4,0,0.7-0.1,1.1l-0.1,0.2l-0.1,0.2c-0.8,1.3-1.9,2.4-3.2,3.3L214.7,245.1
			z M252.3,244.5c0.2,0.1,0.3,0.3,0.4,0.5c0.1,0.2,0.2,0.4,0.2,0.6c0.1-0.3,0.3-0.5,0.5-0.7c0.1-0.1,0.1-0.1,0.2-0.2
			C253.2,244.7,252.7,244.6,252.3,244.5z M224.3,244.4c0,0.1,0,0.2,0,0.3l0-0.1l0.1,0C224.4,244.5,224.4,244.4,224.3,244.4z
			 M209.5,243.8c0.1,0,0.2,0,0.3,0c0.2,0,0.4,0,0.5,0c0.1,0,0.3,0,0.4,0c1-0.7,1.9-1.6,2.6-2.6c0-0.2,0-0.5-0.1-0.7
			c-0.1,0.1-0.3,0.2-0.4,0.2c-0.6,0.3-1.2,0.7-1.7,1.1l-1.6,1.8C209.6,243.6,209.5,243.7,209.5,243.8z M185.1,243.6
			c0.2,0,0.4,0,0.5,0l1.2,0.1c0.5-0.9,1.2-1.8,1.9-2.6c0.2-0.2,0.3-0.4,0.5-0.6c-0.1,0-0.2,0.1-0.3,0.1c-0.4,0.1-0.7,0.3-1,0.7
			c-0.9,1.1-2,1.8-3.1,2.3C184.9,243.6,185,243.6,185.1,243.6z M182.4,233.1c-0.2,0.2-0.5,0.3-0.7,0.5c-1.8,1.6-3.2,3.6-4,5.9
			c0,0.1-0.1,0.2,0,0.3c0.2,0.8,0.6,1.4,1.3,1.8c0.6,0.4,1.4,0.6,2.2,0.4c2.1-0.5,3.6-1,4.8-2.3c0.2-0.3,0.5-0.5,0.8-0.8
			c-0.4-0.1-0.8-0.2-1.2-0.4C183.3,237.5,182.1,235.3,182.4,233.1z M208.9,238.1l-1,3.2c1-1.4,2.4-2.2,3.7-2.9
			c0.3-0.2,0.6-0.4,0.9-0.5c0.6-0.4,1.4-0.4,2,0l0.2,0.1c0.4,0.3,0.7,0.7,0.9,1.1c-0.4-1.1-1.3-1.9-2.3-1.9
			c-1.3-0.1-2.6,0.1-3.7,0.6c0,0,0,0-0.1,0C209.4,237.9,209.2,238,208.9,238.1z M202.4,239.9c0.2,0,0.4,0,0.7,0.1l2.2,0.4
			c0.2-0.1,0.3-0.3,0.5-0.4l2.4-1.8c-0.2,0-0.3,0-0.5-0.1c-0.9-0.4-1.3-1.3-1-2.1c0.2-0.7,0.1-1.3-0.1-1.8c0,0.3,0,0.6,0,0.9l0,0.2
			l-0.1,0.2c-0.6,1.3-1.4,2.5-2.5,3.4c-0.6,0.4-1.1,0.7-1.7,1C202.3,239.9,202.3,239.9,202.4,239.9z M263.1,239.5
			c0.1,0.2,0.2,0.4,0.3,0.6c0.2-0.2,0.4-0.3,0.6-0.4C263.7,239.7,263.4,239.6,263.1,239.5z M202,234.3c-1,0.8-1.9,1.8-2.4,3
			l-0.1,0.2c-0.1,0.1-0.1,0.3,0,0.5c0.1,0.1,0.3,0.1,0.5,0l0.2-0.1c0.8-0.2,1.5-0.6,2.2-1c0.6-0.6,1.2-1.3,1.6-2.2
			c0-0.1,0-0.2,0-0.3l0,0C203.3,234,202.6,234,202,234.3z M192.2,234l-0.1,2.4c0,0.6-0.1,1.1-0.2,1.5c0.3-0.3,0.6-0.6,0.8-0.8
			c0.5-0.5,1-1,1.5-1.5c0.2-0.2,0.3-0.3,0.5-0.5l-0.2-1.8c-0.1-0.6-0.1-1.1-0.2-1.6c0-0.4-0.1-0.7-0.1-1.1c0,0.8-0.3,1.6-0.9,2.2
			C193,233.2,192.6,233.6,192.2,234z M273,237.1c0,0.1,0.1,0.2,0.1,0.2C273,237.3,273,237.2,273,237.1z M209.2,236.7
			C209.2,236.7,209.2,236.7,209.2,236.7C209.2,236.7,209.2,236.7,209.2,236.7z M195.9,234.8C195.9,234.8,195.9,234.8,195.9,234.8
			l0.4,0l0.3,0.2c0.3,0.3,0.5,0.5,0.6,0.8c0.7-1.3,1.6-2.4,2.7-3.4c-0.3,0.1-0.6,0.2-1,0.3c-0.8,0.2-1.6,0.7-2.2,1.3L195.9,234.8z
			 M148.6,234.3c0.9,0.1,1.5,0,2-0.3c0.4-0.2,0.7-0.4,1-0.6c-0.3,0.1-0.5,0-0.8,0c-0.3-0.1-0.6-0.3-0.8-0.6l0.1,0.7l-0.8,0.5
			C149.2,234.2,148.9,234.3,148.6,234.3z M187.2,233.9c0.2,0.1,0.5,0.1,0.7,0c1.3-0.7,2.4-1.7,3.3-2.8l0.1-0.1
			c0.3-0.3,0.3-0.7,0-0.9c-0.2-0.2-0.6-0.3-0.9-0.1l-0.1,0.1c-1,0.5-1.9,1.2-2.6,2.1l-0.1,0.1c-0.3,0.2-0.4,0.6-0.4,1l0,0.2
			C187.2,233.6,187.2,233.8,187.2,233.9z M269.2,232.1c0.4,0.4,0.9,0.8,1.3,1.3c0-0.3,0-0.6,0.1-1l0-0.1
			C270.2,232.3,269.7,232.3,269.2,232.1z M137.6,230.8c0.7,0,1.5,0.1,2.3,0.2c2,0.2,3.9,0.4,5.9,0.6l1.5,0.2
			c-0.4-3.1-0.5-6.3-0.5-9.5l0,0c0.2-3.4,0.8-6.8,1.8-10.1c0.7-2.5,1.5-5.3,2.7-8.4c0.5-1.6,1.2-3.1,1.8-4.7c0.7-1.8,1.4-3.6,2-5.4
			c1.3-3.5,2.1-7.2,2.4-10.9c0,0,0,0,0,0c-2.1-0.1-4.1-0.5-6-1.1c-2.8-0.6-5.6-1-8.4-1.4c-1.2-0.2-2.5-0.4-3.7-0.6c0,0,0,0.1,0,0.1
			c0,2-0.3,4.1-1,6c-0.3,0.8-0.5,1.5-0.7,2.2c-0.3,1-0.7,2-1.1,3c-0.3,0.8-0.7,1.7-1,2.5c-0.7,1.7-1.4,3.5-2.2,5.3
			c-1.4,2.8-2.5,5.8-3.3,8.8c-0.2,0.7-0.4,1.5-0.5,2.2c-0.1,0.6-0.3,1.2-0.4,1.9c-0.5,1.9-0.8,3.9-1,5.8c-0.2,1.9-0.4,3.9-0.4,5.8
			c0,1.9,0.1,3.8,0.5,5.7c0.1,0.4,0.4,0.7,0.7,0.7l0.1,0l0.1,0c0.8,0,1.7,0.1,2.5,0.3C133.5,230.5,135.5,230.8,137.6,230.8
			C137.5,230.8,137.5,230.8,137.6,230.8z M126.3,231.7c0.1,0,0.3,0,0.4,0c-0.3-0.2-0.5-0.5-0.7-0.7c0,0.2,0,0.3,0,0.5
			C126,231.6,126.1,231.7,126.3,231.7C126.3,231.7,126.3,231.7,126.3,231.7z M151.8,228.3c0,0.5,0.1,1,0.2,1.6c0,0,0.1-0.1,0.1-0.1
			c0.6-0.7,0.7-1.1,0.7-1.1C152.8,228.6,152.5,228.4,151.8,228.3z M267,226.4c0.9,0.8,1.7,1.7,2.4,2.6l0.1,0.2
			c0.2,0.4,0.8,0.6,1.2,0.4l0.1-0.1c0.4-0.2,0.8-0.4,1.2-0.5c0.6-0.3,1.3-0.6,2-0.8c2-0.8,3.9-1.8,5.7-2.9c2-1.3,3.9-2.6,6.1-4.2
			c0.3-0.3,0.7-0.4,1-0.5c0.1,0,0.3-0.1,0.4-0.2l0.4-0.5l0.1,0c1.1-1.1,2.5-1.8,3.7-2.3c0.3-0.2,0.6-0.3,1-0.5l0.1-0.1l0-0.1
			c-0.2-3.5-0.7-6.9-1.2-10.8c-0.4-3-1-6.1-1.8-9c-0.3-0.9-0.5-1.8-0.7-2.7c-0.4-1.6-0.7-3-1.3-4.4c-0.1-0.2-0.2-0.6-0.3-0.8
			c-0.2,0-0.5,0-0.8,0c-1.5,0.1-3,0-4.4-0.1c-0.8,0-1.6-0.1-2.4-0.1c-1.3,0-2.5-0.2-3.8-0.4c-1.1-0.2-2.1-0.3-3.2-0.4
			c-1.8-0.1-3.5-0.4-5.2-0.7c-0.9-0.2-1.8-0.3-2.6-0.4c-1.2-0.2-2.4-0.4-3.6-0.6c-0.8-0.1-1.6-0.2-2.4-0.4c-3.3-0.4-6.7-0.5-10-0.5
			c-1.3,0-2.6-0.1-4-0.1c-3.4-0.1-6.9-0.3-10.3,0.1c-2.4,0.1-4.7,0.6-6.9,1.4c-2,1-4,1.7-6.1,2.2c-2.1,0.3-4.1,0.9-6,1.6
			c-1.3,0.5-2.4,1-2.8,1.9l-0.1,0.1c-0.8,1.3-1.5,2.8-2.1,4.2c-0.4,1.1-1.1,1.9-1.7,2.6c-0.3,0.4-0.6,0.7-0.8,1.1
			c-0.6,1-0.4,1.2-0.1,1.6c1,1.2,1.2,2.9,0.5,4.4c-0.1,0.4-0.3,0.7-0.3,1.1l0,0.1c-0.4,1.1-1,2.2-1.8,3.1c0.4-0.2,0.8-0.4,1.3-0.5
			c0.6-0.1,1-0.4,1.3-0.8c0.4-0.4,0.8-0.8,1.3-1c3.6-2.1,6.8-5.2,9.2-8.7c0.3-0.4,0.6-0.8,1-1.2c0.6-0.7,1.6-0.9,2.4-0.6l0.2,0.1
			c0.9,0.5,1.5,1.5,1.3,2.5c2.9-0.7,5.5-1.9,8-3.5c1-0.6,1.9-1.3,2.7-2.1c0.2-0.3,0.5-0.5,0.8-0.6l0.1-0.1c1.9-0.8,2.9,0.3,3.3,0.8
			c0.5,0.7,0.8,1.9-0.4,3.1c-0.7,0.8-1.6,1.4-2.4,2c-0.3,0.2-0.5,0.4-0.8,0.6l0.7,0.5c1.8,1.4,3.6,2.8,5.4,4.1l0.1,0.1
			c0.5,0.4,1,0.8,1.5,1.1c1.6,0.7,2.9,1.8,4.2,2.8c0.7,0.6,1.4,1.1,2.1,1.6c0.6,0.5,1.2,0.8,1.9,1c2,0.3,4.1,0.3,6.1-0.1
			c2.3-0.3,4.3-1.3,6.5-2.3l1-0.5c0.2-0.1,0.4-0.3,0.7-0.5c0.3-0.2,0.7-0.5,1-0.7c1.5-0.7,2.5-0.1,3,0.7c0.1,0.1,0.1,0.2,0.2,0.3
			c0.6,1.1,0.1,2.5-0.9,3.1c-0.6,0.4-1.2,0.8-1.9,1.2c-1.6,1.1-3.4,1.9-5.2,2.5l-0.1,0c-0.6,0.1-1.1,0.3-1.7,0.4
			c-1.1,0.3-2.2,0.6-3.3,0.7c0.2,0.1,0.4,0.3,0.5,0.5c1.1,1,2.2,2,3.3,2.9C262.7,222.2,265,224.1,267,226.4z M187.1,228.5l-0.4,0.9
			c0.7-0.7,1.5-1.2,2.4-1.7c1.2-0.8,2.8-0.7,3.9,0.2c-0.1-0.1-0.2-0.2-0.3-0.3c-0.8-0.6-1.8-0.8-2.9-0.7l-0.1,0
			c-1.4,0.5-2.9,1-4.2,1.7c-0.1,0-0.2,0.1-0.2,0.1L187.1,228.5z M154.6,226.7c0.3,0.3,0.6,0.7,0.7,1.1c0,0.1,0,0.1,0.1,0.2
			c0.3-0.5,0.7-0.7,1.2-0.7C155.9,227,155.2,226.9,154.6,226.7z M293,227.3c0.3,0.1,0.6,0.2,0.9,0.2c0.4,0,0.7,0,1.1,0
			c-0.1-0.1-0.1-0.1-0.2-0.2c-0.1-0.1-0.1-0.2-0.2-0.2h-0.5l0.1-0.6c0,0,0,0,0,0l-1.1-0.4L293,227.3z M149.5,225.1c0,0.5,0,1,0,1.4
			c0.2-0.4,0.6-0.7,1-0.8C150,225.6,149.7,225.4,149.5,225.1z M297.3,224.4L297.3,224.4l-0.1,0.8c1.9-0.1,3.7-0.2,5.5-0.5
			c0.2,0,0.5-0.1,0.7-0.1c0.1,0,0.1,0,0.2,0c0-0.2,0-0.5,0-0.9l0-2.3c0-2-0.1-4.1-0.4-6.1c-0.1-2-0.4-3.9-0.6-5.8
			c-0.2-1.5-0.4-3.1-0.5-4.7c-0.1-1.5-0.4-3-0.7-4.5c-0.2-1.2-0.5-2.5-0.6-3.7c-0.3-2-0.7-4-1.2-6c-0.2-0.9-0.4-1.7-0.6-2.6
			c-0.1-0.7-0.4-1.5-0.6-2.3c-0.1-0.4-0.3-0.8-0.4-1.2c0,0,0-0.1,0-0.1c-0.1,0-0.1,0-0.2,0c-2.2,0.3-4.4,0.5-6.6,0.4
			c-0.3,0-0.5,0-0.8,0.1c1,1.2,1.7,2.6,2.1,4.1l0,0.1c0.2,1,0.5,2,0.7,3c0.2,0.7,0.4,1.5,0.6,2.2c0.2,1.2,0.5,2.3,0.8,3.4
			c0.4,1.9,0.9,3.8,1.2,5.7c0.2,0.9,0.3,1.9,0.4,2.8c0.1,0.9,0.2,1.7,0.3,2.6c0.3,2.1,0.5,4.3,0.7,6.4c0.1,1.2,0.2,2.3,0.3,3.5
			C297.6,220.7,297.6,222.6,297.3,224.4z M292.1,222.4c0.1,0.2,0.2,0.4,0.3,0.6c0-0.2,0-0.5,0.1-0.7
			C292.3,222.3,292.2,222.4,292.1,222.4z M289.4,221.8L289.4,221.8C289.4,221.8,289.4,221.8,289.4,221.8
			C289.4,221.7,289.4,221.8,289.4,221.8z M293.9,219.1c0.1,0,0.3,0.1,0.4,0.2l0.5,0.3c0-0.2,0-0.3,0-0.5c0-0.3-0.1-0.5-0.1-0.8
			C294.5,218.6,294.3,218.9,293.9,219.1z M254.3,216.9C254.3,216.9,254.3,216.9,254.3,216.9C254.3,216.9,254.3,216.9,254.3,216.9z
			 M249.7,214.3c0.1,0.1,0.2,0.2,0.3,0.3c0.6,0.5,1.2,1,1.9,1.6l0.4-0.7c0.1-0.2,0.3-0.4,0.4-0.5c-0.6,0-1.3-0.1-1.9-0.2l-0.1,0
			C250.4,214.5,250.1,214.4,249.7,214.3z M199.1,215.7c0.7,0.1,1.3,0,1.9-0.2c-0.5,0.1-1,0.1-1.5,0.2L199.1,215.7z M195.4,213.7
			c0.4,0.4,0.8,0.8,1.3,1.1l2.2-1.7c1.3-1,2.3-1.8,3.5-2.6c1.4-0.8,2.4-2,2.9-3.5c0.1-0.5,0.3-1,0.5-1.4l0-0.1
			c0.3-0.5,0.2-1.1-0.2-1.5c-0.6-0.7-0.8-1.4-0.9-2.1c-0.9,1.2-1.8,2.4-2.8,3.5l-0.3,0.4c-1.7,2-3.5,4-5.3,5.9
			c-0.3,0.3-0.4,0.7-0.6,1.3C195.5,213.2,195.5,213.5,195.4,213.7z M220.8,202.1c-0.3,0.5-0.7,0.9-1,1.4c0.5-0.3,1.1-0.5,1.9-0.3
			c0.3,0.1,0.5,0.1,0.8,0.1c-0.3-0.1-0.7-0.3-0.9-0.5L220.8,202.1L220.8,202.1z M230.7,200.9c0.5,0,0.9,0.1,1.3,0.4l-0.4-0.7
			l0.3-0.3C231.6,200.5,231.2,200.7,230.7,200.9z M286.2,186.6c1.1,0,1.8,0.1,2.3,0.4c-0.2-0.3-0.4-0.5-0.6-0.7l-0.1-0.1
			c-0.2-0.3-0.6-0.8-0.6-1.4c-0.3,0.8-0.9,1.5-1.6,1.9C285.8,186.6,286,186.6,286.2,186.6C286.2,186.6,286.2,186.6,286.2,186.6z
			 M159.6,180.7C159.6,180.7,159.6,180.7,159.6,180.7c0.6,0.7,0.6,1.5,0.6,2.3c-0.1,1-0.2,2-0.3,3c0.4-0.4,1-0.7,2.1-0.6
			c0.2,0,0.5,0,0.7,0.1c-0.4-0.3-0.6-0.7-0.8-1c-0.4-0.6-0.5-1.2-0.7-1.8c-0.1-0.4-0.2-0.8-0.4-1.1c-0.3-0.7-0.5-0.7-0.6-0.8
			C160,180.8,159.8,180.7,159.6,180.7z M226.6,182.6l1.2,0.3l-1.2,1.6c0,0.1-0.1,0.1-0.1,0.2c0,0,0,0,0,0c1.1-0.4,2.2-0.7,3.3-1
			c-0.1,0-0.2-0.1-0.3-0.2C228.6,182.9,227.6,182.7,226.6,182.6z M249.9,183c0.6,0,1.2,0,1.8,0c-0.9-0.1-1.9-0.2-2.8-0.3
			c-0.7,0-1.5,0.1-2.2,0.2c0.6,0,1.3,0,1.9,0.1C249.1,183,249.5,183,249.9,183z M224.5,183L224.5,183C224.5,183,224.6,183,224.5,183
			C224.6,183,224.5,183,224.5,183z M137.6,177.2c0,0,0,0.1,0,0.1c0.1-0.1,0.2-0.1,0.2-0.1C137.7,177.2,137.6,177.2,137.6,177.2z"/>
	</g>
</g>
<g>
	<path d="M162.8,318.3c0.9-2.6,3.7-4,6.4-3.1s4,3.7,3.1,6.4s-3.7,4-6.4,3.1c-0.1,0-0.1,0-0.2-0.1c-2.5-0.7-3.9-3.3-3.1-5.8
		C162.6,318.6,162.7,318.4,162.8,318.3z M171.4,321.6c0.9-2.2-0.1-4.7-2.3-5.6c-2.2-0.9-4.7,0.1-5.6,2.3c-0.9,2.2,0.1,4.7,2.3,5.6
		c0,0,0.1,0,0.1,0.1c2,0.9,4.4,0.1,5.3-1.9C171.3,321.8,171.4,321.7,171.4,321.6z"/>
	<path d="M167.5,325.7c-0.6,0-1.3-0.1-1.9-0.3l-0.2-0.1c-2.8-0.8-4.5-3.9-3.6-6.8c0.1-0.2,0.1-0.4,0.2-0.6c1-3,4.3-4.6,7.4-3.6
		c3,1,4.6,4.3,3.6,7.4c-0.5,1.5-1.5,2.6-2.9,3.3C169.3,325.5,168.4,325.7,167.5,325.7z M167.5,316.4c-0.4,0-0.9,0.1-1.3,0.3
		c-0.9,0.4-1.5,1-1.9,1.9s-0.4,1.8,0,2.7c0.4,0.9,1,1.5,1.9,1.9l0.1,0c0.8,0.4,1.7,0.4,2.5,0.1c0.8-0.3,1.4-0.9,1.8-1.7
		c0.1-0.1,0.1-0.2,0.1-0.3l0-0.1c0.7-1.8-0.1-3.8-1.9-4.6C168.4,316.5,167.9,316.4,167.5,316.4z"/>
</g>
<g>
	<path d="M182.6,328.5l-0.1-1.8c0-0.8-0.3-1.4-1-1.6l-3.3-0.8l-0.9,3.8l-0.7-0.2l2.2-8.8l4.6,1.1c1.4,0.2,2.4,1.5,2.2,2.9
		c0,0.1,0,0.2-0.1,0.3c-0.3,1.3-1.6,2.1-2.9,1.8l0,0c0.4,0.4,0.6,1,0.6,1.6l0.1,1.6c0,0.4,0.1,0.7,0.4,0.8c0.3,0,0.6-0.1,0.8-0.4
		l0.3,0.5c-0.3,0.4-0.8,0.5-1.3,0.4C182.9,329.7,182.7,329.1,182.6,328.5z M182.4,324.5c1,0.4,2.1,0,2.5-1c0.4-1,0-2.1-1-2.5
		c-0.2-0.1-0.4-0.1-0.6-0.1l-3.9-1l-0.9,3.6L182.4,324.5z"/>
	<path d="M183.9,330.7c-0.2,0-0.3,0-0.5-0.1c-0.7-0.1-1.5-0.6-1.5-2.1l0,0l-0.1-1.8c0-0.3,0-0.8-0.4-0.9l-2.5-0.6l-1,3.8l-2.2-0.6
		l2.6-10.3l5.4,1.3c0.8,0.1,1.6,0.6,2.1,1.3c0.5,0.7,0.8,1.6,0.7,2.5c0,0.1,0,0.2-0.1,0.4c-0.3,1.2-1.2,2.1-2.4,2.4
		c0.1,0.3,0.1,0.5,0.1,0.8l0.1,1.3l0.5-0.7l1.1,2.2l-0.4,0.4C185.1,330.4,184.5,330.7,183.9,330.7z M179.4,323l3.3,0.8
		c0.3,0.1,0.6,0.1,0.8,0c0.3-0.1,0.5-0.3,0.6-0.6c0.2-0.6,0-1.2-0.6-1.4c-0.1,0-0.2-0.1-0.3-0.1l-0.1,0l-3.2-0.8L179.4,323z"/>
</g>
<g>
	<path d="M190.6,326.5c0.2-2.5,2.5-4.4,5-4.2c0.1,0,0.2,0,0.3,0c1.9,0.3,3.8,0.8,4.1,2.8l-0.7-0.1c-0.4-1.4-1.9-1.8-3.4-2
		c-2.1-0.4-4.2,1.1-4.5,3.2c0,0.1,0,0.2,0,0.3c-0.4,2.2,1.2,4.3,3.4,4.7c0.1,0,0.2,0,0.3,0c2.1,0.4,4.2-0.9,4.6-3.1c0,0,0,0,0-0.1
		l-5.9-0.9l0.1-0.7l6.6,1l-0.7,4.8l-0.6-0.1l0.3-2.2l0,0c-1,1.5-2.8,2.2-4.5,1.9c-2.6-0.3-4.5-2.6-4.2-5.1
		C190.5,326.7,190.5,326.6,190.6,326.5z"/>
	<path d="M200.2,333.2l-2.2-0.3l0.1-0.8c-1.1,0.6-2.3,0.9-3.6,0.6c-3-0.3-5.2-3-4.9-6c0-0.1,0-0.3,0.1-0.4c0.3-3,2.9-5.1,5.9-4.9
		c0.1,0,0.3,0,0.4,0.1c1.3,0.2,4.3,0.6,4.7,3.5l0.2,1.1l-2.3-0.3l-0.1-0.5c-0.1-0.5-0.6-1.2-2.8-1.4c-0.9-0.1-1.7,0-2.4,0.5
		c-0.7,0.5-1.1,1.2-1.3,2c0,0.1,0,0.2,0,0.2c-0.1,0.9,0.1,1.8,0.6,2.5s1.3,1.2,2.1,1.3c0.1,0,0.1,0,0.2,0c0.9,0.2,1.7,0,2.4-0.4
		c0.5-0.3,0.8-0.7,1.1-1.2l-5.8-0.8l0.3-2.3l8.2,1.2L200.2,333.2z"/>
</g>
<g>
	<path d="M209.5,323.9h0.8l3.5,9.2h-0.7l-0.9-2.3l-5.1-0.2l-1,2.2h-0.7L209.5,323.9z M212,330.1l-2-5.5l0,0l-2.5,5.3L212,330.1z"/>
	<path d="M215,333.9h-2.5l-0.9-2.3l-4-0.2l-1,2.2h-2.5l4.9-10.5h0.8l0.3-0.6l0.2,0.6h0.6L215,333.9z M208.8,329.2l2.1,0.1l-0.9-2.5
		L208.8,329.2z"/>
</g>
<g>
	<path d="M219.2,324h0.9l6.2,7.9l0,0l-0.4-8.2h0.7l0.5,9h-0.9l-6.2-7.9l0,0l0.4,8.2h-0.7L219.2,324z"/>
	<polygon points="227.4,334.4 226.7,333.5 225.8,333.5 220.9,327.3 221.3,333.8 219,333.8 218.4,323.2 219.1,323.2 219.1,322.3 
		219.7,323.2 220.6,323.2 225.5,329.4 225.1,322.9 227.4,322.9 228,333.5 227.3,333.5 	"/>
</g>
<g>
	<path d="M232.4,323l0.7-0.1l1.1,9l-0.7,0.1L232.4,323z"/>
	<polygon points="232.8,332.9 231.5,322.3 233.8,322 235.1,332.6 	"/>
</g>
<g>
	<path d="M239.9,330.2l5.1-8.7l-6.5,1.3l-0.1-0.7l7.2-1.5l0.2,0.8l-5.1,8.7l6.7-1.4l0.1,0.7l-7.5,1.5L239.9,330.2z"/>
	<polygon points="239.4,331.9 239.3,331.3 239.1,331.4 239.2,331.1 239,330.1 243.4,322.6 237.9,323.7 237.4,321.5 246.2,319.7 
		246.4,320.4 246.6,320.4 246.4,320.6 246.6,321.6 242.3,329.1 248,327.9 248.5,330.1 	"/>
</g>
<g>
	<path d="M250.7,319.4l6.4-2l0.2,0.7l-5.8,1.8l1,3.2l5.3-1.6l0.2,0.6l-5.3,1.6l1.1,3.5l5.9-1.8l0.2,0.7l-6.6,2L250.7,319.4z"/>
	<polygon points="252.8,329 249.7,318.8 257.7,316.4 258.4,318.6 252.6,320.3 253.1,322 258.4,320.3 259.1,322.5 253.7,324.2 
		254.4,326.1 260.3,324.3 260.9,326.5 	"/>
</g>
<g>
	<path d="M262.2,315.6l3.4-1.5c2.7-1.2,4.8-0.3,6,2.3s0.3,4.8-2.4,6l-3.4,1.5L262.2,315.6z M268.9,321.8c2.3-1,3-2.8,2-5
		s-2.8-3-5.1-2l-2.8,1.2l3,7L268.9,321.8z"/>
	<path d="M265.4,325l-4.2-9.8l4.1-1.8c3.1-1.3,5.7-0.3,7.1,2.8c1.3,3.1,0.3,5.6-2.8,7.1L265.4,325z M264.1,316.3l2.4,5.5l2-0.8
		c0.9-0.4,1.5-1,1.8-1.6c0.3-0.7,0.2-1.5-0.2-2.4c-0.8-1.9-2.2-2.4-4-1.6L264.1,316.3z"/>
</g>
<path class="st0" d="M199.8,211.2c1.3-1.7,2.7-3.4,4.2-4.9c0.6-0.6-0.3-1.4-0.9-0.9c-1.6,1.6-3,3.3-4.4,5.1
	c-0.2,0.3-0.1,0.7,0.2,0.9C199.3,211.6,199.7,211.5,199.8,211.2L199.8,211.2z"/>
</svg>
