<svg id="Layer_1" data-name="Layer 1" xmlns="http://www.w3.org/2000/svg" viewBox="0 0 40 40"><defs><style>.cls-1{fill:#202020;}</style></defs><path class="cls-1" d="M11.72,21.75A3.27,3.27,0,0,1,16.05,23a29.2,29.2,0,0,1,1.89,5.54c.2.67.68,1.81-.17,2.21-.67.31-1.81-.29-2.56-.31s-1.47.26-2.21.31c-1.07.09-1.42-.71-1.82-1.54-.74-1.5-2-3.69-1.22-5.32s.28-2.68-.12-4.26C9,16.14,8.56,12.08,11,9.13c.73-.89-.54-2.17-1.28-1.27C7.36,10.72,7,14.37,7.64,17.92c.18,1,.42,2,.69,3a3.32,3.32,0,0,1,.24,1.64A11.32,11.32,0,0,1,8,23.75c-.6,1.63.38,3.58,1,5.08s1.24,3.18,2.83,3.62a4.83,4.83,0,0,0,2.17-.08,10.4,10.4,0,0,1,3.05.17,2.49,2.49,0,0,0,2.83-1.89,3.53,3.53,0,0,0-.12-2.2c-.34-1.11-.66-2.22-1-3.32-.59-1.8-1.11-3.66-2.78-4.73a5.09,5.09,0,0,0-5.19-.2c-1,.55-.11,2.11.91,1.55Z"/><path class="cls-1" d="M11.13,9a12.08,12.08,0,0,1,8.4-4.58c2.92-.34,6.6.28,8.72,2.47A9,9,0,0,1,30,10.24a37.8,37.8,0,0,1,2.08,6.69,6.19,6.19,0,0,0,.5,2.21,2.39,2.39,0,0,0,.68.77,1.86,1.86,0,0,1,1,1.67A11.74,11.74,0,0,1,34,25.13c-.36,1.27-1.54,2-2.63,2.61s-3,1.34-3.41-.42a14,14,0,0,1-.13-3.88,33.25,33.25,0,0,1,.34-4.34c.35-2.05,2.08-1.55,3.32-.52A.91.91,0,0,0,33,17.7a25.93,25.93,0,0,0-2-5.92c-.79-1.72-1.33-3.73-2.61-5.16C26,4,21.75,3.7,18.45,4.32a12.36,12.36,0,0,0-8.68,6.19,10.64,10.64,0,0,0-1.19,5.85,24.86,24.86,0,0,0,1.58,5.39c.39,1.08,2.13.61,1.73-.48a35.47,35.47,0,0,1-1.39-4.35,8.48,8.48,0,0,1,.83-5.5,10.67,10.67,0,0,1,7.6-5.37c2.87-.53,7-.29,8.63,2.49a42.38,42.38,0,0,1,2,4.51,22.2,22.2,0,0,1,1.69,5.13l1.51-.87c-1.7-1.41-4.76-2.43-6,.14a12.39,12.39,0,0,0-.64,4.34,30,30,0,0,0,0,5.1c.31,2.86,2.46,4,5.12,2.94a13.3,13.3,0,0,0,3.19-2c1.21-1,1.43-2.28,1.61-3.77a11,11,0,0,0-.1-4.21,2,2,0,0,0-1.12-1.2c-.77-.47-.75-1-.86-1.84A17.8,17.8,0,0,0,32.82,13c-.56-1.55-.95-3.15-1.61-4.65-1.59-3.66-4.82-5.21-8.7-5.66A14.11,14.11,0,0,0,9.57,8c-.69.93.88,1.83,1.56.91Z"/><path class="cls-1" d="M29.68,27.31a30.5,30.5,0,0,0,.24-8.37.91.91,0,0,0-1.11-.63.92.92,0,0,0-.62,1.11,27.85,27.85,0,0,1,.09,3.77A28,28,0,0,1,28,26.84a.91.91,0,0,0,.63,1.1.89.89,0,0,0,1.1-.63Z"/><path class="cls-1" d="M13.7,22.58c.43,1.22.92,2.43,1.38,3.64a21.59,21.59,0,0,0,1.47,3.21.9.9,0,0,0,1.55-.91,15.86,15.86,0,0,1-.78-1.47c-.05-.1.06.16,0,0s-.05-.11-.07-.17l-.12-.33-.36-.93c-.45-1.17-.92-2.33-1.34-3.52a.93.93,0,0,0-1.1-.63.9.9,0,0,0-.63,1.11Z"/><path class="cls-1" d="M14,31.61c.52,1.29.91,2.64,1.3,4A.9.9,0,1,0,17,35.11a39.41,39.41,0,0,0-1.31-4,1,1,0,0,0-.41-.54.93.93,0,0,0-.69-.09A.91.91,0,0,0,14,31.61Z"/><path class="cls-1" d="M10.1,21.12a9,9,0,0,0,.75,2.8c.32.92.66,1.84,1,2.74a22.08,22.08,0,0,0,2.87,5.07.92.92,0,0,0,1.28,0,.94.94,0,0,0,0-1.28A18.36,18.36,0,0,1,13.56,26c-.33-.79-.63-1.6-.92-2.42a8.23,8.23,0,0,1-.74-2.48.9.9,0,0,0-1.8,0Z"/><path class="cls-1" d="M31.06,17.43a33.36,33.36,0,0,1,.29,10.41c-.07.48.45.9.9.9a.94.94,0,0,0,.9-.9A34.84,34.84,0,0,0,32.8,17c-.22-1.14-1.95-.66-1.74.47Z"/></svg>