<svg id="Layer_1" data-name="Layer 1" xmlns="http://www.w3.org/2000/svg" viewBox="0 0 40 40"><defs><style>.cls-1{fill:#202020;}</style></defs><path class="cls-1" d="M29.21,11.34c0,1.61.06,3.2,0,4.8,0,1.45-.14,2.9-.18,4.35C29,22.3,29,24.1,29,25.91c0,1.37.35,3.94-1,4.74a5,5,0,0,1-2.56.38l-2.83,0-5.67.08c-1.54,0-3.93.33-4-1.77-.09-1.87,0-3.75-.07-5.62l-.07-6.25c0-1.79.07-3.6,0-5.38-.07-1.15-1.87-1.16-1.8,0,.12,1.85,0,3.73,0,5.58L11,24.17l0,3.22a13.6,13.6,0,0,0,.14,3.06c.38,1.61,1.92,2.26,3.41,2.46a44.87,44.87,0,0,0,6.35,0,57.14,57.14,0,0,0,6.28-.12,3.73,3.73,0,0,0,3.31-2.9A35.25,35.25,0,0,0,30.8,24c.05-2.35.07-4.69.21-7,.11-1.86-.05-3.73,0-5.6a.9.9,0,0,0-1.8,0Z"/><path class="cls-1" d="M9.24,12.28c4-.16,8-.31,12-.12a106.85,106.85,0,0,0,11.46,0c1.15-.06,1.16-1.86,0-1.8a106.85,106.85,0,0,1-11.46,0c-4-.19-8,0-12,.12-1.15,0-1.16,1.85,0,1.8Z"/><path class="cls-1" d="M16.28,11a13.26,13.26,0,0,1,1.45-2.89A1.59,1.59,0,0,1,19,7.73c.63-.06,1.26-.07,1.88-.07s1.19,0,1.78,0A2.88,2.88,0,0,1,24.14,8a2.22,2.22,0,0,1,.66,1.24L25.39,11c.37,1.09,2.11.62,1.74-.48-.24-.73-.49-1.46-.73-2.19a3.26,3.26,0,0,0-1.15-1.75,3.16,3.16,0,0,0-2-.61c-.8,0-1.6-.09-2.41-.09-1.33,0-3.16-.14-4.21.84a6.2,6.2,0,0,0-1.1,1.7c-.36.71-.68,1.43-1,2.16a.9.9,0,0,0,1.74.48Z"/><path class="cls-1" d="M17.27,26.5c-.06-1.68-.05-3.37,0-5.05a28.59,28.59,0,0,1,.15-4.81.93.93,0,0,0-.63-1.11.92.92,0,0,0-1.11.63,31,31,0,0,0-.21,5.1c0,1.74,0,3.49,0,5.24,0,1.16,1.84,1.16,1.8,0Z"/><path class="cls-1" d="M20.25,16.47c-.09.82-.21,1.64-.24,2.47s.1,1.65,0,2.48A18.11,18.11,0,0,0,20,24a16.52,16.52,0,0,1,.08,2.63.9.9,0,0,0,.9.9.92.92,0,0,0,.9-.9,15.31,15.31,0,0,0-.07-2.53,16.76,16.76,0,0,1,.07-2.65c.06-.8-.07-1.59,0-2.39s.15-1.71.24-2.56a.9.9,0,1,0-1.8,0Z"/><path class="cls-1" d="M26.23,26.54c0-1.73-.06-3.45-.08-5.18,0-.8.11-1.58.14-2.38a14.51,14.51,0,0,1-.11-2.28c.23-1.13-1.51-1.62-1.74-.48a10.46,10.46,0,0,0,.06,2.5c0,.82-.17,1.63-.16,2.45l.09,5.37a.9.9,0,0,0,1.8,0Z"/></svg>