<svg id="Layer_1" data-name="Layer 1" xmlns="http://www.w3.org/2000/svg" viewBox="0 0 40 40"><defs><style>.cls-1{fill:#202020;}</style></defs><path class="cls-1" d="M14.71,12.32c-1.91-1-3.9-1.85-5.8-2.87A.9.9,0,0,0,8,11c1.9,1,3.9,1.86,5.8,2.88a.9.9,0,0,0,.91-1.56Z"/><path class="cls-1" d="M17.53,14.62a1.74,1.74,0,0,0,.53,1.3,4.56,4.56,0,0,0,1.19.81,13.57,13.57,0,0,0,5.58,2c0-.35-.29-.59-.51-.85a9,9,0,0,0-6.79-3.27"/><path class="cls-1" d="M16.63,14.62c-.08,1.88,1.86,2.76,3.26,3.47a12.58,12.58,0,0,0,4.94,1.55.92.92,0,0,0,.9-.9A2.16,2.16,0,0,0,25,17.33a12.52,12.52,0,0,0-.94-1,10.25,10.25,0,0,0-2.22-1.54,9,9,0,0,0-4.33-1.08.9.9,0,1,0,0,1.8,6.43,6.43,0,0,1,.76,0l.2,0c-.2,0,.07,0,.09,0l.42.08a8.45,8.45,0,0,1,1.76.6,9.06,9.06,0,0,1,1.75,1.09,9.68,9.68,0,0,1,.87.82c.13.14.25.29.37.43a1.64,1.64,0,0,0,.21.24s0-.07,0-.1l.9-.9A10.1,10.1,0,0,1,21,16.66c-.61-.3-1.22-.62-1.81-1a2,2,0,0,1-.6-.48.75.75,0,0,1-.2-.59.9.9,0,0,0-1.8,0Z"/><path class="cls-1" d="M23.23,19.35a67.08,67.08,0,0,0,6.89-1.07.9.9,0,0,0,.63-1.1v0L29,17.62l0,.07,1.73-.48v0l-.63,1.1c.86-.22,1.11-1.16,1.2-1.93a3,3,0,0,0-.17-1.3,4.35,4.35,0,0,0-.68-1.46.9.9,0,1,0-1.28,1.27c-.19-.22,0,.21.08.29s.1.25.14.37a1.83,1.83,0,0,1,.12.69c0,.23,0-.1,0,.1a2.27,2.27,0,0,1-.06.25,1,1,0,0,1-.05.16l0-.07c-.06.09-.05.09,0,0a.64.64,0,0,1,.18-.1.91.91,0,0,0-.63,1.1l0,0a.9.9,0,1,0,1.73-.48l0-.07a.9.9,0,0,0-1.74.48v0l.63-1.1a63.24,63.24,0,0,1-6.41,1,.92.92,0,0,0-.9.9.9.9,0,0,0,.9.9Z"/><path class="cls-1" d="M30.55,13.77a3.51,3.51,0,0,0-1.22-1.29,2.86,2.86,0,0,0-1.8-.59,8,8,0,0,0-1,.12h-.06l-.16,0-.35,0c-.54,0-1.07.08-1.6.16a.9.9,0,0,0-.63,1.11.93.93,0,0,0,1.11.63l.19,0h0l.3,0,.54,0,.58,0,.49-.06.19,0,.16,0h.47c.11,0-.08,0,0,0s.19.05.1,0l.09,0,.28.18.14.1.07.05.07.05.12.11.11.11.06.07.05.07.09.18a.91.91,0,0,0,1.23.32.92.92,0,0,0,.32-1.23Z"/><path class="cls-1" d="M27.1,24.46a3.2,3.2,0,0,0-1.53,1.9,5.35,5.35,0,0,0-.25,2.45,3.42,3.42,0,0,0,3.87,2.5,7.09,7.09,0,0,0,1.69-.42,3.46,3.46,0,0,0,1.25-1.24,3.83,3.83,0,0,0,.46-2.13A3.9,3.9,0,0,0,32,25.58a3.09,3.09,0,0,0-2-1.36,6,6,0,0,0-2.7.15.91.91,0,0,0-.63,1.1.92.92,0,0,0,1.11.63l.46-.11.17,0c-.15,0,0,0,0,0a7,7,0,0,1,.91,0,1.35,1.35,0,0,1,1,.42l.11.12c.09.09-.1-.17,0,0l.15.23s.1.21,0,.09,0,.09,0,.09.07.25.1.37,0-.11,0,0a1.49,1.49,0,0,0,0,.21v.36a1.94,1.94,0,0,0,0,.24c0,.17,0-.18,0,.07a2.37,2.37,0,0,1-.09.36s-.1.19,0,.08l0,.06c-.05.08-.16.22,0,.07a5.22,5.22,0,0,1-.46.48s-.18.19-.06.06,0,0,0,0c.2-.08,0,0-.07,0a5.44,5.44,0,0,1-.7.15l-.54.1-.11,0c.12,0-.17,0-.15,0s.15,0,0,0l-.27-.08c-.18-.06-.08,0,0,0l-.2-.1c-.13-.07-.24-.15-.36-.23.12.08,0,0-.05-.06a.75.75,0,0,1-.16-.15l-.12-.12c.1.12-.05-.1-.05-.11s0-.06,0,0a1.19,1.19,0,0,1-.07-.27c0,.15,0-.05,0-.09a1.82,1.82,0,0,1,0-.33c0-.06,0-.13,0-.19s0-.29,0-.14a3.55,3.55,0,0,1,.09-.47l.06-.23s.08-.24.07-.21a3.89,3.89,0,0,1,.2-.35c.09-.14,0-.05,0,0s.11-.12.17-.19-.07,0,.05,0A1.28,1.28,0,0,1,28,26a.9.9,0,0,0,.33-1.23.93.93,0,0,0-1.24-.32Z"/><path class="cls-1" d="M25.88,18.7c.18.19.36.38.53.58l.25.3c.09.11-.07-.1,0,0l.13.17c.29.4.55.81.82,1.23a18.3,18.3,0,0,0,1.88,2.58.91.91,0,0,0,1.27,0,.92.92,0,0,0,0-1.27c-.18-.2-.35-.4-.51-.61.06.07,0,0,0,0l-.13-.18-.21-.3c-.28-.41-.55-.83-.81-1.25a15.36,15.36,0,0,0-1.94-2.52.9.9,0,0,0-1.27,1.27Z"/><path class="cls-1" d="M24.45,31.53l-2.79.17a3.81,3.81,0,0,1-2.77-.48c-1.66-1-3.3-2.13-5-3.18s-3.22-1.88-4.73-3c-.51-.36-.84-.52-.95-1.1a6,6,0,0,1,0-1c-.08-4.16-.1-8.32,0-12.47,0-.6-.11-.64.5-.67.89,0,1.78-.15,2.66-.25,1.89-.21,3.78-.45,5.68-.61,1.15-.1,1.16-1.9,0-1.8-2,.17-3.92.42-5.88.63-1.29.14-3.75-.15-4.52,1.15a5.57,5.57,0,0,0-.26,2.51c0,1.18,0,2.36,0,3.53,0,2.63,0,5.26,0,7.88a5.26,5.26,0,0,0,.29,2.44,5.46,5.46,0,0,0,1.75,1.48c.95.66,2,1.24,2.95,1.84,2.15,1.31,4.25,2.7,6.37,4a4.15,4.15,0,0,0,2.47.93c1.39,0,2.8-.16,4.19-.25,1.15-.07,1.16-1.87,0-1.8Z"/><path class="cls-1" d="M19.38,25.65c0,2.12.14,4.25,0,6.37a.9.9,0,0,0,1.8,0c.11-2.12,0-4.25,0-6.37a.9.9,0,1,0-1.8,0Z"/><path class="cls-1" d="M24.33,23a2,2,0,0,0,.93-.75l.15-.18s.21-.2.07-.08-.05,0,0,0c-.25.14-.17.08-.05.05l.32-.07c.94-.21,1.88-.48,2.83-.63a.9.9,0,0,0,.63-1.11.93.93,0,0,0-1.11-.63c-.95.16-1.89.42-2.83.64a2.44,2.44,0,0,0-.7.2,2.11,2.11,0,0,0-.43.36l-.32.39c-.05.06-.11.11-.15.17s.05,0,.08-.06-.13,0,.12-.05A.9.9,0,1,0,24.33,23Z"/><path class="cls-1" d="M35.18,30.77a6.8,6.8,0,0,0-1.64-7.53A5.38,5.38,0,0,0,29,22.18a7.18,7.18,0,0,0-4,2.72,7.62,7.62,0,0,0-1.2,6.22A4.77,4.77,0,0,0,27,34.56a6.73,6.73,0,0,0,2.57.21,6.86,6.86,0,0,0,5.65-4,.92.92,0,0,0-.32-1.23.91.91,0,0,0-1.23.32,5.21,5.21,0,0,1-3.78,3.07c-.09,0-.41,0-.16,0l-.3,0h-.27A3.3,3.3,0,0,1,26,31.77a4.75,4.75,0,0,1-.66-2.71c0-.1,0-.2,0-.3s0-.1,0-.15c0-.26,0,.2,0-.1a7,7,0,0,1,.36-1.34c.83-2.15,3.36-4,5.68-3.1a3.6,3.6,0,0,1,2.18,2.52,5.3,5.3,0,0,1,0,3.27A.93.93,0,0,0,34,31.09.9.9,0,0,0,35.18,30.77Z"/><path class="cls-1" d="M25.86,31.52a6.71,6.71,0,0,1-.61-1.8A6.36,6.36,0,0,1,25,28,4.73,4.73,0,0,1,26.35,25,4.53,4.53,0,0,1,29,23.61a5.68,5.68,0,0,1,3.29.92A.9.9,0,0,0,33.19,23a7.47,7.47,0,0,0-4.35-1.16,6.36,6.36,0,0,0-3.77,1.94,6.71,6.71,0,0,0-1.86,4.06,8,8,0,0,0,.27,2.23,9.2,9.2,0,0,0,.82,2.38c.53,1,2.08.12,1.56-.91Z"/><path class="cls-1" d="M14.7,10a16.74,16.74,0,0,0,.05-1.73c0-.34,0-.68,0-1,0-.16,0-.31,0-.47a1.48,1.48,0,0,1,0-.21c0-.06.05-.2,0-.1l-.23.4c-.18.18-.48,0-.06.17l.47.17,1.09.4,2.14.85a39.4,39.4,0,0,1,4.07,2l-.45-.77a34.38,34.38,0,0,0-.2,3.66.9.9,0,0,0,1.8,0,34.38,34.38,0,0,1,.2-3.66A.88.88,0,0,0,23.17,9a50,50,0,0,0-7.8-3.48,1.93,1.93,0,0,0-1.82-.06C13,5.81,13,6.49,13,7.12c0,1,0,2-.06,2.92a.91.91,0,0,0,.9.9.92.92,0,0,0,.9-.9Z"/><path class="cls-1" d="M13.83,8.56c2.85,1.13,5.59,2.54,8.45,3.67a.9.9,0,0,0,1.1-.63.92.92,0,0,0-.62-1.11C19.9,9.36,17.16,8,14.3,6.83a.89.89,0,0,0-1.1.63.91.91,0,0,0,.63,1.1Z"/><path class="cls-1" d="M14.75,18.6l.22.15a.31.31,0,0,1-.07-.09c.07.22,0-.19,0,.08,0,0,.06.25,0,.13S15,19,15,19v.3c0,.22,0,.43,0,.64,0,.39,0,.78,0,1.17,0,.22,0,.44,0,.67s0,.2,0,.3-.05.18,0,.08l.32-.33-.07,0,.46-.12s.12.06.14.05a1,1,0,0,1-.22-.12l-.44-.23-1-.48-1.66-.85-.56-.29a2,2,0,0,0-.28-.16c-.09,0,0,.09,0,0l-.06-.06.05.06c0,.1,0,0,0-.06,0,.14,0,0,0,0s0-.28,0-.43,0-.53,0-.79,0-.36,0-.54c0,.22,0-.09,0-.15s.07-.35.09-.52a2.27,2.27,0,0,0,0-.45c0-.16,0,0,0,0,.07-.17,0,0,0,0-.68.41-.19.17-.44.28h-.05l.1,0c0,.05-.15-.13-.1,0l.22.09h0l.23.1c.3.11.59.23.89.36l.13.05.05,0,.3.13.63.29a6.28,6.28,0,0,1,.92.5A.9.9,0,0,0,16,18.28a.92.92,0,0,0-.32-1.23,7.45,7.45,0,0,0-1.31-.69c-.59-.26-1.18-.5-1.77-.74l-.47-.19-.08,0c.3.12.15,0-.06,0a.79.79,0,0,0-.22-.06,1.34,1.34,0,0,0-1.47.57A2.07,2.07,0,0,0,10.05,17c0,.15,0-.14,0,0a2.74,2.74,0,0,0-.05.28q-.06.33-.09.66a6.79,6.79,0,0,0-.05.9A3.92,3.92,0,0,0,10,20.26a1.9,1.9,0,0,0,.89,1A22.49,22.49,0,0,0,13,22.43l1.37.68c.52.28,1.11.68,1.71.34s.64-1.23.64-1.89,0-1.11,0-1.66a6.12,6.12,0,0,0-.08-1.6,2,2,0,0,0-.34-.71,3.23,3.23,0,0,0-.68-.54.9.9,0,0,0-1.23.32A.92.92,0,0,0,14.75,18.6Z"/><path class="cls-1" d="M21.83,21.84l-.32-.78c0-.12-.1-.24-.14-.36s-.09-.38-.06-.16,0,0,0-.09a1.62,1.62,0,0,1,0-.22c0-.17,0-.34,0-.52l0-2.84a.91.91,0,0,0-.9-.9.92.92,0,0,0-.9.9l0,2.9a8.55,8.55,0,0,0,.06,1,6.19,6.19,0,0,0,.56,1.54.9.9,0,1,0,1.73-.48Z"/><path class="cls-1" d="M22,11.23a9.08,9.08,0,0,0,1.77,1.24l1,.59.41.26.17.12.07.05-.09-.07a1,1,0,0,0,.64.27.89.89,0,0,0,.63-.27.91.91,0,0,0,0-1.27A18.21,18.21,0,0,0,24.75,11l-1-.6-.39-.28.09.07-.09-.07L23.28,10A.9.9,0,0,0,22,11.23Z"/></svg>