<?xml version="1.0" encoding="UTF-8"?>
<svg width="60px" height="73px" viewBox="0 0 60 73" version="1.1" xmlns="http://www.w3.org/2000/svg" xmlns:xlink="http://www.w3.org/1999/xlink">
    <!-- Generator: Sketch 55.2 (78181) - https://sketchapp.com -->
    <title>Group 9 Copy</title>
    <desc>Created with Sketch.</desc>
    <g id="Page-1" stroke="none" stroke-width="1" fill="none" fill-rule="evenodd">
        <g id="Group-9-Copy" transform="translate(1.000000, 1.000000)" stroke="#FEFEFE">
            <path d="M10,28 L10,18.7751048 C10,8.40607144 18.5067625,0 29,0 C39.4936526,0 48,8.40607144 48,18.7751048 L48,28" id="Stroke-1"></path>
            <path d="M15,28 L15,18.6904565 C15,11.129635 21.2678037,5 29,5 C36.731773,5 43,11.129635 43,18.6904565 L43,28" id="Stroke-3" stroke-width="0.723"></path>
            <path d="M0,61 L0,68.0440374 C0,69.6765394 1.3890648,71 3.10289917,71 L54.8971008,71 C56.6109352,71 58,69.6765394 58,68.0440374 L58,61" id="Stroke-5" stroke-width="0.991"></path>
            <path d="M0,39 L0,31.9897517 C0,30.3385889 1.3890648,29 3.10289917,29 L54.8971008,29 C56.6109352,29 58,30.3385889 58,31.9897517 L58,39" id="Stroke-7" stroke-width="0.991"></path>
        </g>
    </g>
</svg>