<svg id="Layer_1" data-name="Layer 1" xmlns="http://www.w3.org/2000/svg" viewBox="0 0 40 40"><defs><style>.cls-1{fill:#202020;}</style></defs><path class="cls-1" d="M19.52,15.13c-2.41.38-4.69-.69-6.67-2a14.39,14.39,0,0,1-5-4.48.91.91,0,0,0-1.23-.32C5.05,9.5,5.13,11.31,5.55,13a15.9,15.9,0,0,0,2.52,5.48l.77-1.36a5.19,5.19,0,0,1-2.23-.72.91.91,0,0,0-1.36.77A6.72,6.72,0,0,0,7,21.75,11.22,11.22,0,0,0,11.22,24l-.4-1.51c-.3.35-1,.25-1.39.27L7.8,22.8a.92.92,0,0,0-.64,1.54A12.76,12.76,0,0,0,14,28.68l-.54-1.32c-.54,1.13-1.91,1.47-3,1.75a13,13,0,0,1-4.21.32c-1.16-.08-1.16,1.72,0,1.8a14.52,14.52,0,0,0,5.44-.59A5.15,5.15,0,0,0,15,28.27a.93.93,0,0,0-.54-1.33,11.08,11.08,0,0,1-6-3.87L7.8,24.6c1.29-.06,3.36.23,4.3-.88a.91.91,0,0,0-.4-1.5,10,10,0,0,1-3.21-1.54,4.66,4.66,0,0,1-1.44-3.47L5.7,18a7.16,7.16,0,0,0,3.14,1,.9.9,0,0,0,.78-1.35,14.79,14.79,0,0,1-1.94-3.69c-.35-1-1.23-3.22-.13-4L6.31,9.6C7.71,12,10,13.5,12.25,14.92a11.35,11.35,0,0,0,7.75,2c1.14-.18.66-1.92-.48-1.74Z"/><path class="cls-1" d="M5.66,31.2A25.62,25.62,0,0,0,11,33.28a25.74,25.74,0,0,0,5.94.5,15.32,15.32,0,0,0,9.56-3.28,22.69,22.69,0,0,0,6.38-8.18,8.27,8.27,0,0,0,.45-5.06c-.08-.48-.34-1.17-.12-1.63.13-.27.8-.72,1-.92l2.38-2.15a.91.91,0,0,0-.88-1.51,27.79,27.79,0,0,1-4.34.87L32,13.46a20.4,20.4,0,0,0,3.3-4.27c.49-.85-.46-1.57-1.23-1.23a19.47,19.47,0,0,0-3.61,2l1.09.14A7.9,7.9,0,0,0,23,7.94c-3.27,1.36-4.06,4.37-4.06,7.63a.9.9,0,0,0,1.8,0c0-2.5.39-4.92,3-6,2.38-1,4.92.06,6.63,1.81a.91.91,0,0,0,1.09.14,20,20,0,0,1,3.6-2L33.76,8.28a18.38,18.38,0,0,1-3,3.9c-.51.51-.17,1.64.63,1.54a31.32,31.32,0,0,0,4.82-.93l-.87-1.5a24.51,24.51,0,0,0-3.74,3.44c-.8,1.13.07,2.92.14,4.15.11,1.95-.85,3.5-1.86,5.09a22.45,22.45,0,0,1-3.18,4,13.51,13.51,0,0,1-9,4,25.25,25.25,0,0,1-5.7-.32,21.81,21.81,0,0,1-5.38-2c-1-.5-1.95,1.06-.9,1.56Z"/></svg>