<svg id="Layer_1" data-name="Layer 1" xmlns="http://www.w3.org/2000/svg" viewBox="0 0 40 40"><defs><style>.cls-1{fill:#202020;}</style></defs><path class="cls-1" d="M23.8,18.38c.06-.88,1.11-1.21,1.86-1.17a3.47,3.47,0,0,1,1.41.4,1.34,1.34,0,0,1,.64,1.14,8.92,8.92,0,0,1,0,1.79c0,.67,0,1.34,0,2,0,1.19-.06,2.73,1.17,3.36a.93.93,0,0,0,1.24-.33.91.91,0,0,0-.33-1.23c-.15-.08-.15-.11-.19-.29a9.08,9.08,0,0,1-.08-1.17,23,23,0,0,1,0-2.35c.07-1.38.19-3.16-1-4.14a4.9,4.9,0,0,0-4.09-.86A3.18,3.18,0,0,0,22,18.38a.9.9,0,1,0,1.8,0Z"/><path class="cls-1" d="M27.61,18.28a2.92,2.92,0,0,1-.09.42c0-.1,0,0,0,0,.11-.14-.07.06-.08.07s-.19.11-.24.13.19-.05-.08,0l-.26.08c-.75.21-1.55.11-2.31.25a5,5,0,0,0-2.16.95,2.84,2.84,0,0,0-1,2,4.26,4.26,0,0,0,0,1.07A2.43,2.43,0,0,0,22,24.48a3.5,3.5,0,0,0,1.85,1.22,4.6,4.6,0,0,0,3.3-.59,4.55,4.55,0,0,0,2.26-2.81.93.93,0,0,0-.63-1.11.9.9,0,0,0-1.1.63,2.46,2.46,0,0,1-.09.34s-.07.17,0,.07,0,0,0,.06a3,3,0,0,1-.19.3h0l-.15.18a4.26,4.26,0,0,1-.43.42c-.05,0-.26.19-.09.07l-.26.19a5.08,5.08,0,0,1-.59.35h0c-.15,0-.29.09-.45.12a4,4,0,0,1-.92,0,.75.75,0,0,1-.56-.19,3.15,3.15,0,0,1-.62-.6c.08.1-.12-.22-.07-.12,0-.09,0-.12,0-.27a1.93,1.93,0,0,1,.09-.81c-.07.19.1-.15.13-.2s0-.08.17-.19c-.08.06.21-.12.23-.13a2.87,2.87,0,0,1,.4-.19,5.58,5.58,0,0,1,1.86-.3,4.45,4.45,0,0,0,2.23-.59,2.49,2.49,0,0,0,1.13-2.09.9.9,0,0,0-1.8,0Z"/><path class="cls-1" d="M11.88,25.41a77.25,77.25,0,0,1,3-9,25.68,25.68,0,0,1,1.39-3.73H14.69a23.07,23.07,0,0,1,2.72,6.64c.64,2.26,1.84,4.31,2.39,6.59.27,1.13,2,.65,1.73-.47-.56-2.37-1.79-4.51-2.45-6.85a24.13,24.13,0,0,0-2.83-6.82.92.92,0,0,0-1.56,0,28.75,28.75,0,0,0-1.56,4.15,79.39,79.39,0,0,0-3,9c-.27,1.12,1.46,1.6,1.74.48Z"/><path class="cls-1" d="M12.06,22.27a16.57,16.57,0,0,0,3.45.18,19.22,19.22,0,0,0,3.56-.11.91.91,0,0,0,.63-1.11.93.93,0,0,0-1.11-.63,7.79,7.79,0,0,1-1.45.06H15.51a14,14,0,0,1-3-.12.9.9,0,0,0-.48,1.74Z"/><path class="cls-1" d="M20.52,5.2a14.84,14.84,0,0,0-8.83,2.87,14.72,14.72,0,0,0-5.53,7.42c-1,3.82-.56,8.48,1.73,11.73a14.49,14.49,0,0,0,5.31,5,20.66,20.66,0,0,0,8.32,1.36A12.63,12.63,0,0,0,30,29.94a13.05,13.05,0,0,0,4.26-9.41c.28-7.86-5.52-15.39-13.73-15.33a.9.9,0,0,0,0,1.8C27.1,7,32,12.57,32.42,18.89a11.55,11.55,0,0,1-2.89,9c-2,2.06-4.58,3.77-7.51,3.88a23.65,23.65,0,0,1-7.29-.91c-2.09-.6-3.75-2.47-5-4.16-2.12-2.84-2.48-6.25-2-9.7.35-2.64,2.16-5,4.11-6.73A13.07,13.07,0,0,1,20.52,7a.9.9,0,0,0,0-1.8Z"/></svg>