<?xml version="1.0" encoding="utf-8"?>
<!-- Generator: Adobe Illustrator 24.1.0, SVG Export Plug-In . SVG Version: 6.00 Build 0)  -->
<svg version="1.1" id="Layer_1" xmlns="http://www.w3.org/2000/svg" xmlns:xlink="http://www.w3.org/1999/xlink" x="0px" y="0px"
	 viewBox="0 0 40 40" style="enable-background:new 0 0 40 40;" xml:space="preserve">
<style type="text/css">
	.st0{fill:#202020;}
</style>
<g>
	<path class="st0" d="M37.8,14.1c0-1.5-0.4-3.1-1.2-4.4c-0.9-1.1-2.2-1.9-3.6-2.1c-3.8-0.8-8-0.8-11.9-0.9c-4.5-0.2-8.9,0-13.3,0.6
		c-1.7,0.2-3.3,1-4.4,2.3c-0.9,1.3-1.4,2.8-1.4,4.4c0,3.9-0.5,7.9,0,11.8c0.2,3,2.4,5.6,5.4,6.3c1.9,0.4,3.8,0.6,5.8,0.6
		c2,0.1,4.1,0.1,6.1,0.1c4,0,8.4,0.2,12.3-0.6c3.3-0.5,5.8-3,6.4-6.3C38.7,22,38.1,18,37.8,14.1z M36.4,23.1c0,1.6-0.4,3.2-1.1,4.7
		c-0.9,1.3-2.3,2.2-3.8,2.5c-3.4,0.8-7.2,0.6-10.6,0.7c-3.4,0-6.8,0-10.2-0.3c-1.8,0-3.5-0.4-5-1.3c-1.3-1.1-2-2.7-2-4.4
		c-0.2-3.7,0.1-7.4,0.1-11c0-1.3,0.4-2.5,1.2-3.5C6,9.5,7.5,9,9,9c3.4-0.3,6.8-0.4,10.2-0.4S26,8.7,29.4,9c1.5,0,3,0.3,4.4,0.8
		c1.5,0.7,2,2.2,2.1,3.8C36.3,16.7,36.5,19.9,36.4,23.1z"/>
	<path class="st0" d="M26.1,18.7L21.7,16c-1.3-0.8-2.8-1.5-4.3-2c-0.5-0.1-1,0.2-1.1,0.7c0,0.1,0,0.1,0,0.2c0.1,3.4,0,6.8,0,10.2
		c0,0.5,0.4,0.9,0.9,0.9c0.2,0,0.4-0.1,0.5-0.2c0.2,0,0.4,0,0.6-0.1c2.9-1.5,5.6-3.4,8-5.6c0.3-0.4,0.3-0.9,0-1.3
		C26.2,18.8,26.1,18.8,26.1,18.7z M18.1,23.8c0-2.6,0.1-5.1,0-7.7c1,0.4,2,1,2.9,1.6l3.1,1.9C22.2,21.2,20.2,22.6,18.1,23.8z"/>
</g>
</svg>
