<svg id="Layer_1" data-name="Layer 1" xmlns="http://www.w3.org/2000/svg" viewBox="0 0 40 40"><defs><style>.cls-1{fill:#202020;}</style></defs><path class="cls-1" d="M10.25,32.56c0-2.68.11-5.35.2-8,.05-1.32.09-2.63.12-4,0-.65,0-1.3,0-1.95a6.55,6.55,0,0,1,0-1.93l-.41.54c.39-.3,1.78,0,2.26,0l2.55,0,5.32.05,5.11,0,2.56,0a6.45,6.45,0,0,1,2.06.1L29.54,17c0,.06.05,1.09.08,1.41,0,.67.07,1.35.09,2,0,1.34,0,2.67,0,4,0,2.7-.1,5.41,0,8.11l.9-.9c-7.1.24-14.21.46-21.3,0-1.16-.08-1.16,1.72,0,1.8,7.09.46,14.2.24,21.3,0a.91.91,0,0,0,.9-.9c-.18-3.84.05-7.67,0-11.5,0-.95-.06-1.89-.13-2.84,0-.62.09-1.57-.3-2.11a1.71,1.71,0,0,0-1.41-.56c-.91-.06-1.83,0-2.74,0l-12.34-.1-3,0a4.76,4.76,0,0,0-2.16.17,1.5,1.5,0,0,0-.7,1.34c0,1,0,1.94,0,2.89,0,4.26-.32,8.51-.33,12.77A.9.9,0,0,0,10.25,32.56Z"/><path class="cls-1" d="M15.49,15.74c0-1.47,0-2.94.14-4.4a4.49,4.49,0,0,1,1.68-3.56,5.66,5.66,0,0,1,4.47-.46,4.47,4.47,0,0,1,1.85.85A2.74,2.74,0,0,1,24.47,10a19.83,19.83,0,0,1,0,2.67l-.08,3.11a.9.9,0,0,0,1.8,0l.08-3.21a17.9,17.9,0,0,0-.06-2.93A4.57,4.57,0,0,0,23,5.8a8.08,8.08,0,0,0-5.73,0,5.48,5.48,0,0,0-3.18,4,30.62,30.62,0,0,0-.37,6,.9.9,0,0,0,1.8,0Z"/></svg>