<svg id="Layer_1" data-name="Layer 1" xmlns="http://www.w3.org/2000/svg" viewBox="0 0 40 40"><defs><style>.cls-1{fill:#010101;}</style></defs><path class="cls-1" d="M11.52,22.37c5.86-.05,11.71,0,17.56-.15a.9.9,0,0,0,0-1.8c-5.85.13-11.7.1-17.56.15a.9.9,0,0,0,0,1.8Z"/><path class="cls-1" d="M21.19,30.24c-.12-5.85-.09-11.71-.14-17.56a.9.9,0,0,0-1.8,0c.05,5.85,0,11.71.14,17.56a.9.9,0,0,0,1.8,0Z"/><path class="cls-1" d="M10.75,9c-5,3.61-6.63,10.22-5.6,16.06a11.54,11.54,0,0,0,4.17,7.35,19.08,19.08,0,0,0,9.38,4.12,13.84,13.84,0,0,0,9.74-2.43,18.66,18.66,0,0,0,6.1-7.42,16,16,0,0,0,1.07-8.09,12.52,12.52,0,0,0-.75-3.43,17.63,17.63,0,0,0-2.49-3.91c-2.35-3.06-6.14-4.41-9.8-5a14.12,14.12,0,0,0-6.07.07A20.8,20.8,0,0,0,10.75,9c-1,.61-.07,2.17.91,1.55,2.86-1.8,5.76-3.15,9.22-2.79a16.69,16.69,0,0,1,8.82,3.28A15.28,15.28,0,0,1,32.12,14a8,8,0,0,1,1.51,3.39,16.26,16.26,0,0,1-.12,6.77,15,15,0,0,1-3.92,6.55,12.25,12.25,0,0,1-8,4.18A14.73,14.73,0,0,1,13,32.74c-2.52-1.48-4.61-3.17-5.56-6C5.6,21.3,6.85,14.09,11.66,10.59c.93-.68,0-2.24-.91-1.55Z"/></svg>