<?xml version="1.0" encoding="utf-8"?>
<!-- Generator: Adobe Illustrator 24.1.0, SVG Export Plug-In . SVG Version: 6.00 Build 0)  -->
<svg version="1.1" id="Layer_1" xmlns="http://www.w3.org/2000/svg" xmlns:xlink="http://www.w3.org/1999/xlink" x="0px" y="0px"
	 viewBox="0 0 40 40" style="enable-background:new 0 0 40 40;" xml:space="preserve">
<style type="text/css">
	.st0{fill:#202020;}
</style>
<g>
	<path class="st0" d="M34,17.2c0.1-1.5,0.1-3.1-0.1-4.6c-0.4-1.6-1.1-3.1-2.2-4.5c-0.9-1.3-2.3-2-3.9-1.9C25.7,6.1,23.5,6,21.3,6
		c-2.4,0-4.7,0.1-7.1,0.1c-1.8,0-3.8-0.3-5.4,0.8c-2.6,1.8-3.4,4.8-3.3,7.8c0,0,0,0.1,0,0.1c0.1,4-0.2,8-0.1,12
		c-0.1,1.7,0.3,3.3,1,4.8c0.8,1.3,2,2.2,3.5,2.8c1.7,0.6,3.6,0.9,5.5,0.9c2.1,0,4.3,0,6.4,0c3.3,0,7.1,0,9.8-2.1
		c2.3-1.8,2.6-4.8,2.6-7.4S34,20,34,17.2z M31.6,30.3c-1.5,2.8-5.6,3-8.4,3.1c-3.4,0.2-6.8,0.1-10.1-0.1c-1.7-0.1-3.4-0.8-4.6-2
		c-1.4-1.5-1.2-3.6-1.3-5.5c-0.1-3.7,0.2-7.4,0.1-11.1c0,0,0-0.1,0-0.1c-0.1-2.3,0.3-4.7,2.4-6.2C10.9,7.6,12.5,8,14,8
		c1.8,0,3.5,0,5.3-0.1c1.8-0.1,3.4,0,5.1,0c1.7,0,4.4-0.4,5.6,0.9c0.9,1,1.6,2.3,2,3.6c0.5,1.5,0.2,2.9,0.2,4.5
		c0,1.2,0.2,2.3,0.1,3.5c0,1.4,0,2.9,0,4.3C32.4,26.5,32.5,28.7,31.6,30.3z M7.3,14.7C7.3,14.7,7.3,14.7,7.3,14.7L7.3,14.7
		C7.3,14.7,7.3,14.7,7.3,14.7z"/>
	<path class="st0" d="M23,14.7c-1.5-0.7-3.2-0.9-4.8-0.6c-0.9,0.1-1.7,0.4-2.5,0.7c-0.6,0.3-1.1,0.8-1.4,1.3c0,0-0.1,0.1-0.1,0.1v0
		c-0.8,1-1.3,2.2-1.5,3.5c-0.1,1.5,0.2,3,1,4.3c0.8,1.2,1.8,2.2,3.1,3c1.4,0.6,3,0.8,4.4,0.4c1.5-0.1,2.9-0.9,3.8-2.1
		c0.9-1.1,1.4-2.5,1.7-3.9C27.2,18.7,25.7,15.9,23,14.7z M24,23.7c-0.2,0.5-0.6,0.9-1,1.3c-0.5,0.3-1,0.5-1.6,0.6
		C20.3,26,19.2,26,18,25.7c-0.9-0.5-1.8-1.2-2.4-2c-0.9-1-1.3-2.4-1.2-3.7c0.1-0.9,0.5-1.7,1-2.4c0.1-0.1,0.2-0.2,0.3-0.3
		c0.2-0.4,0.5-0.7,0.9-0.8c0.6-0.2,1.2-0.4,1.8-0.5c1.1-0.2,2.3-0.2,3.3,0.2c2,0.6,3.3,2.5,3.2,4.6C24.9,21.8,24.6,22.8,24,23.7z"/>
	<path class="st0" d="M28.5,11.3c-0.1-0.1-0.2-0.1-0.3-0.2C27.9,11,27.7,11,27.4,11c-0.2,0-0.4,0-0.6,0.1c-0.2,0-0.4,0.1-0.5,0.2
		c-0.2,0.1-0.3,0.2-0.4,0.3c0,0-0.1,0.1-0.1,0.2l0,0c0,0,0,0,0,0c0,0-0.1,0.1-0.1,0.1c-0.1,0.2-0.2,0.4-0.2,0.6c0,0.2,0,0.4,0,0.6
		c0,0.1,0.1,0.3,0.2,0.4l-0.1-0.2c0.1,0.2,0.1,0.3,0.2,0.5c0.1,0.2,0.3,0.4,0.5,0.5c0.5,0.3,1.1,0.3,1.7,0.2h0.1
		c0.1,0,0.2-0.1,0.3-0.2c0.3-0.2,0.5-0.4,0.5-0.8c0-0.2,0.1-0.3,0.1-0.5c0-0.1,0-0.3,0-0.4c0-0.4-0.2-0.8-0.4-1
		C28.6,11.5,28.6,11.4,28.5,11.3z M27.4,12.9L27.4,12.9L27.4,12.9L27.4,12.9z"/>
</g>
</svg>
