<svg id="Layer_1" data-name="Layer 1" xmlns="http://www.w3.org/2000/svg" viewBox="0 0 40 40"><defs><style>.cls-1{fill:#202020;}</style></defs><path class="cls-1" d="M10.65,10.33a8.74,8.74,0,0,1,5.9-1.73,11,11,0,0,1,5.34,2C24,12.17,24.57,15,24.4,17.49a7.83,7.83,0,0,1-1.29,4.57,8.62,8.62,0,0,1-4.39,2.87A9.36,9.36,0,0,1,8.66,21c-2-3.26-1.14-8.35,2-10.64.93-.68,0-2.24-.91-1.55A10.35,10.35,0,0,0,6.3,20.16a9.36,9.36,0,0,0,4.07,5A11.54,11.54,0,0,0,17,27.07c4-.33,8.29-3.06,9-7.27A17.91,17.91,0,0,0,26,14.38a8.6,8.6,0,0,0-2.29-4.56c-1.56-1.73-4-2.51-6.26-2.88A10.48,10.48,0,0,0,9.74,8.78c-1,.61-.07,2.17.91,1.55Z"/><path class="cls-1" d="M22.82,24.38c.75.64,1.55,1.22,2.3,1.87s1.56,1.42,2.34,2.14l4.66,4.26c.32.28.6.61,1.05.61a1.62,1.62,0,0,0,.78-.17c.66-.33,1.22-1.34.71-2A8.91,8.91,0,0,0,33.52,30L32.3,28.88,30,26.79c-.86-.79-1.73-1.57-2.58-2.37S25.83,22.84,25,22.1s-2.16.52-1.28,1.28,1.47,1.37,2.19,2.07,1.64,1.51,2.46,2.26l5,4.54-.27-.63.13-.15c-.06.11,0,0,0,0s.16,0,0,0l.64.27-4.89-4.48c-.81-.74-1.6-1.49-2.43-2.21s-1.59-1.27-2.37-1.93-2.16.52-1.27,1.27Z"/><path class="cls-1" d="M11.55,11.63a6,6,0,0,0-2,7.13.9.9,0,0,0,1.23.32.91.91,0,0,0,.32-1.23s-.09-.21,0-.11,0-.11,0-.11a3.37,3.37,0,0,1-.09-.34,1.29,1.29,0,0,1,0-.19c0-.09,0-.08,0,0l0-.39c0-.12,0-.24,0-.37a1.41,1.41,0,0,1,0-.2s0-.24,0-.12,0-.13,0-.12l0-.16c0-.14.06-.27.1-.4l.12-.35s.08-.21,0-.06l.06-.15a6.52,6.52,0,0,1,.38-.68,1.63,1.63,0,0,0,.11-.17s.15-.19.08-.1l.08-.09.1-.12.28-.28.12-.1s.21-.17,0-.05A.93.93,0,0,0,12.78,12a.91.91,0,0,0-1.23-.33Z"/><path class="cls-1" d="M11.2,21.48a4.71,4.71,0,0,0,.7.64,3.88,3.88,0,0,0,.87.42l-.21-.09.19.1a.93.93,0,0,0,.69.09.91.91,0,0,0,.54-.42.88.88,0,0,0,.09-.69.92.92,0,0,0-.41-.54,4.76,4.76,0,0,0-.7-.3l.21.09a1.83,1.83,0,0,1-.38-.23l.18.14a4.52,4.52,0,0,1-.5-.48.92.92,0,0,0-.63-.26.94.94,0,0,0-.64.26.9.9,0,0,0-.26.64.94.94,0,0,0,.26.63Z"/></svg>