<svg id="Layer_1" data-name="Layer 1" xmlns="http://www.w3.org/2000/svg" viewBox="0 0 40 40"><defs><style>.cls-1{fill:#202020;}</style></defs><path class="cls-1" d="M20.3,7.41a9.54,9.54,0,0,0-6.38,2.53,9.91,9.91,0,0,0-3.11,6c-.83,4.66,0,9.83-3.64,13.55-.66.67,0,1.54.83,1.43a40.25,40.25,0,0,1,5.91-.17c2.06,0,4.11,0,6.17-.06,4.05,0,8.1.45,12.15.16.68,0,1.21-.94.6-1.46-1.74-1.53-2.32-3.82-2.74-6-.53-2.69-.6-5.44-1-8.15a8.8,8.8,0,0,0-2.77-5.64,9.3,9.3,0,0,0-6-2.15c-1.1-.08-1.1,1.64,0,1.72a11.53,11.53,0,0,1,3.19.59,6.61,6.61,0,0,1,2.63,2.12c1.57,1.93,1.46,5,1.68,7.38.35,3.8.75,8.68,3.82,11.36l.61-1.47c-4.2.3-8.41-.2-12.61-.15-4,0-8.1-.26-12.08.28l.84,1.44c2.92-3,3.61-7.31,3.83-11.34.13-2.23.26-4.69,1.52-6.62A8,8,0,0,1,20.3,9.13.86.86,0,0,0,20.3,7.41Z"/><path class="cls-1" d="M14.79,30.26a4.11,4.11,0,0,0,.53,2.06,9,9,0,0,0,1.31,1.58,4.5,4.5,0,0,0,3.83,1.19,6,6,0,0,0,3.59-1.56,3.13,3.13,0,0,0,.9-1.36A6.72,6.72,0,0,0,25.21,30c-.06-1.1-1.78-1.11-1.72,0a5.13,5.13,0,0,1-.16,1.61c-.09.37-.19.41-.5.73a4.21,4.21,0,0,1-2.41,1.06,2.91,2.91,0,0,1-2.58-.69,8.59,8.59,0,0,1-1-1.12,2.23,2.23,0,0,1-.37-1.31c-.06-1.1-1.78-1.1-1.72,0Z"/><path class="cls-1" d="M19.19,4.72c0,1.17-.06,2.34-.05,3.5a.88.88,0,0,0,.86.86.86.86,0,0,0,.86-.86c0-1.16,0-2.33.05-3.5a.87.87,0,0,0-.86-.86.88.88,0,0,0-.86.86Z"/></svg>