<svg width="25" height="24" viewBox="0 0 25 24" fill="none" xmlns="http://www.w3.org/2000/svg">
<path d="M19.1061 6.41373C18.9847 6.41807 17.5223 6.36267 15.8651 6.35802V3.03427C15.2132 0.445095 11.0488 0.37267 10.9221 3.81283L10.9583 7.39784C10.4694 11.2182 5.9429 10.3129 5.94291 7.50648C5.88865 9.76974 2.50281 11.3269 1.07242 8.03156V7.39146L1 11.0528C1.00003 24.3064 18.2733 26.0446 22.2747 16.9916L22.5101 16.1768L23.5241 9.80796C23.5361 9.73264 23.5455 9.65629 23.5286 9.58191C23.3796 8.92446 22.0252 7.80688 20.808 7.08987C20.1123 6.68001 19.4614 6.40104 19.1061 6.41373Z" fill="#F1EFEF"/>
<path d="M10.9583 7.39784L10.9221 3.81283C10.0459 0.575993 5.76068 1.56057 5.93431 4.551C5.93798 4.58822 5.94085 4.62583 5.94291 4.66382V7.50648C5.9429 10.3129 10.4694 11.2182 10.9583 7.39784Z" fill="#F1EFEF"/>
<path d="M5.94291 7.50648V4.66382C5.93934 4.62591 5.93648 4.5883 5.93431 4.551C5.67925 1.96289 1.57221 1.25458 1.07242 4.66382V7.39146V8.03156C2.50281 11.3269 5.88865 9.76974 5.94291 7.50648Z" fill="#F1EFEF"/>
<path d="M20.808 3.03427C20.4278 0.734791 16.6979 -0.0618767 15.8651 3.03427V6.35802C17.5223 6.36267 18.9847 6.41807 19.1061 6.41373C19.4614 6.40104 20.1123 6.68001 20.808 7.08987V3.03427Z" fill="#F1EFEF"/>
<path d="M17.2525 11.6526L17.4722 11.2034L17.4721 11.2034L17.2525 11.6526ZM12.1357 11.2974L11.8476 11.706L12.1357 11.2974ZM12.3707 6.56244L12.0888 6.14949L12.3707 6.56244ZM19.1061 6.41373L19.0883 5.91405L19.1061 6.41373ZM23.5286 9.58191L24.0162 9.47136L24.0162 9.47135L23.5286 9.58191ZM22.2747 16.9916L22.732 17.1937C22.7411 17.1731 22.7488 17.152 22.755 17.1304L22.2747 16.9916ZM1 11.0528L0.5 11.0429V11.0528L1 11.0528ZM22.5101 16.1768L22.9904 16.3156C22.9962 16.2958 23.0006 16.2757 23.0039 16.2554L22.5101 16.1768ZM23.5241 9.80796L24.0179 9.88658V9.88658L23.5241 9.80796ZM20.808 3.03427H21.308V2.99321L21.3013 2.9527L20.808 3.03427ZM5.94291 7.50648L6.44291 7.50648V7.50648H5.94291ZM5.94291 4.66382H6.44291V4.65032L6.44218 4.63684L5.94291 4.66382ZM1.07242 4.66382L0.577712 4.5913L0.572424 4.62737V4.66382H1.07242ZM1.07242 8.03156H0.572424V8.13539L0.613769 8.23064L1.07242 8.03156ZM17.9859 11.4546L17.4722 11.2034L17.0329 12.1018L17.5466 12.3529L17.9859 11.4546ZM16.6164 11.0054H12.848V12.0054H16.6164V11.0054ZM12.4238 10.8887C11.8318 10.4714 11.3201 9.86695 11.2209 9.22736C11.1316 8.651 11.3546 7.86146 12.6526 6.97539L12.0888 6.14949C10.6001 7.16569 10.0638 8.29123 10.2327 9.38058C10.3918 10.4067 11.156 11.2185 11.8476 11.706L12.4238 10.8887ZM21.8174 16.7894C19.9396 21.0378 14.8997 22.8259 10.2345 21.8968C5.61406 20.9766 1.50001 17.4064 1.5 11.0528L0.5 11.0528C0.500014 17.9528 5.02259 21.8785 10.0392 22.8776C15.0109 23.8677 20.6084 21.9984 22.732 17.1937L21.8174 16.7894ZM22.0297 16.038L21.7943 16.8528L22.755 17.1304L22.9904 16.3156L22.0297 16.038ZM23.0303 9.72935L22.0163 16.0982L23.0039 16.2554L24.0179 9.88658L23.0303 9.72935ZM1.4999 11.0627L1.57233 7.40135L0.572522 7.38157L0.500098 11.0429L1.4999 11.0627ZM23.041 9.69245C23.0369 9.6742 23.038 9.66489 23.0377 9.67169C23.0376 9.67499 23.0371 9.68101 23.0359 9.69093C23.0347 9.70104 23.0329 9.71308 23.0303 9.72935L24.0179 9.88658C24.0299 9.81152 24.0565 9.64911 24.0162 9.47136L23.041 9.69245ZM12.848 11.0054C12.6728 11.0054 12.5283 10.9624 12.4238 10.8887L11.8476 11.706C12.1574 11.9244 12.5163 12.0054 12.848 12.0054V11.0054ZM17.4721 11.2034C17.2057 11.0731 16.913 11.0054 16.6164 11.0054V12.0054C16.7607 12.0054 16.9032 12.0384 17.0329 12.1018L17.4721 11.2034ZM21.3013 2.9527C21.0674 1.53798 19.819 0.629385 18.552 0.513007C17.9072 0.453778 17.2318 0.594396 16.6522 0.992604C16.0691 1.39317 15.6172 2.0308 15.3822 2.90438L16.3479 3.16416C16.5293 2.48967 16.856 2.06583 17.2184 1.81683C17.5843 1.56548 18.0212 1.46846 18.4605 1.50881C19.3618 1.5916 20.1684 2.23108 20.3147 3.11584L21.3013 2.9527ZM16.3499 2.9122C15.9555 1.3456 14.5007 0.559944 13.158 0.664046C12.4791 0.716686 11.8072 0.995661 11.2953 1.52977C10.7804 2.06692 10.458 2.82977 10.4224 3.79442L11.4217 3.83124C11.4496 3.07581 11.6952 2.55765 12.0172 2.22175C12.3421 1.88281 12.7758 1.69668 13.2353 1.66105C14.1695 1.58862 15.1228 2.13377 15.3802 3.15634L16.3499 2.9122ZM10.4221 3.81788L10.4583 7.40289L11.4583 7.39279L11.4221 3.80778L10.4221 3.81788ZM10.468 7.4959L10.5585 7.94855L11.5391 7.75244L11.4486 7.29979L10.468 7.4959ZM10.4623 7.33438C10.3531 8.18789 10.0276 8.72284 9.64942 9.03617C9.26839 9.35183 8.7903 9.47915 8.30887 9.43896C7.32325 9.35667 6.4429 8.60059 6.44291 7.50648L5.44291 7.50648C5.4429 9.21882 6.82581 10.3186 8.22567 10.4355C8.93698 10.4949 9.68219 10.3076 10.2874 9.80623C10.8954 9.30253 11.319 8.51799 11.4543 7.46131L10.4623 7.33438ZM6.44291 7.50648V4.66382H5.44291V7.50648H6.44291ZM6.44071 4.61698C6.43769 4.58496 6.43529 4.55331 6.43347 4.52202L5.43515 4.57999C5.43767 4.62329 5.44098 4.66685 5.4451 4.71066L6.44071 4.61698ZM6.43347 4.52202C6.36315 3.31087 7.1809 2.51383 8.12584 2.33828C8.59729 2.25069 9.08288 2.32352 9.48975 2.56983C9.89094 2.8127 10.2505 3.2453 10.4395 3.94348L11.4047 3.68219C11.1556 2.76194 10.6509 2.1038 10.0076 1.71437C9.37001 1.32838 8.63086 1.22734 7.94319 1.3551C6.56988 1.61023 5.33185 2.80069 5.43515 4.57999L6.43347 4.52202ZM6.44218 4.63684C6.43973 4.59152 6.4363 4.54656 6.4319 4.50197L5.43672 4.60004C5.43967 4.62989 5.44198 4.66014 5.44363 4.6908L6.44218 4.63684ZM6.4319 4.50197C6.27639 2.92399 4.95034 1.94728 3.62826 1.8595C2.9572 1.81495 2.26064 1.99446 1.69208 2.45566C1.1202 2.91957 0.717795 3.63573 0.577712 4.5913L1.56714 4.73634C1.67695 3.98729 1.97534 3.51353 2.32206 3.23227C2.67211 2.94831 3.11196 2.82742 3.56201 2.85731C4.48217 2.9184 5.33717 3.5899 5.43672 4.60004L6.4319 4.50197ZM0.572424 4.66382V8.03156H1.57242V4.66382H0.572424ZM0.613769 8.23064C1.00588 9.13399 1.5532 9.75124 2.19065 10.0974C2.82943 10.4443 3.5186 10.4965 4.14598 10.3383C5.37452 10.0285 6.40974 8.89582 6.44276 7.51846L5.44305 7.4945C5.42181 8.3804 4.73698 9.15795 3.90144 9.36866C3.49679 9.47072 3.0679 9.43584 2.66785 9.2186C2.26646 9.00063 1.85416 8.57678 1.53108 7.83247L0.613769 8.23064ZM19.0883 5.91405C19.0904 5.91397 19.0706 5.9141 19.0101 5.91287C18.9568 5.9118 18.8846 5.91001 18.7945 5.90768C18.6151 5.90304 18.368 5.89635 18.0733 5.88939C17.4836 5.87546 16.6999 5.86036 15.8665 5.85802L15.8636 6.85802C16.6874 6.86033 17.4635 6.87526 18.0497 6.88911C18.6148 6.90246 19.0436 6.91628 19.124 6.91341L19.0883 5.91405ZM16.3651 6.35802V3.03427H15.3651V6.35802H16.3651ZM1.57242 8.03156V7.39146H0.572424V8.03156H1.57242ZM24.0162 9.47135C23.9537 9.1956 23.7843 8.93088 23.602 8.70341C23.4116 8.46568 23.1682 8.22122 22.9004 7.98394C22.3642 7.50902 21.6947 7.0319 21.0618 6.65906L20.5542 7.52068C21.1385 7.86484 21.7547 8.30502 22.2373 8.7325C22.4788 8.94643 22.6781 9.14945 22.8216 9.32858C22.9733 9.51797 23.029 9.63949 23.041 9.69246L24.0162 9.47135ZM21.0618 6.65906C20.6999 6.44587 20.3407 6.26129 20.0175 6.13006C19.7115 6.00586 19.3773 5.90373 19.0883 5.91405L19.124 6.91341C19.1902 6.91105 19.3591 6.94205 19.6413 7.05663C19.9062 7.16417 20.2204 7.32401 20.5542 7.52068L21.0618 6.65906ZM21.308 7.09608V7.08987H20.308V7.09608H21.308ZM21.308 7.08987V3.03427H20.308V7.08987H21.308ZM15.3651 6.35802V6.35941H16.3651V6.35802H15.3651ZM12.6526 6.97539C12.6039 7.00861 12.5807 7.00592 12.6438 6.99073C12.6912 6.97931 12.7624 6.96661 12.8602 6.95405C13.055 6.92905 13.3185 6.90916 13.6345 6.8942C14.2642 6.86439 15.0656 6.85578 15.8636 6.85802L15.8665 5.85802C15.0632 5.85577 14.242 5.86432 13.5872 5.89532C13.2608 5.91077 12.9666 5.9322 12.7329 5.96218C12.6166 5.97711 12.506 5.99531 12.4095 6.01855C12.3288 6.03802 12.1997 6.07375 12.0888 6.14949L12.6526 6.97539ZM0.572424 4.66382V7.39146H1.57242V4.66382H0.572424Z" fill="#1E1E1E"/>
</svg>
