<svg id="Layer_1" data-name="Layer 1" xmlns="http://www.w3.org/2000/svg" viewBox="0 0 40 40"><defs><style>.cls-1{fill:#202020;}</style></defs><path class="cls-1" d="M19.09,4.69c.48,8.79,0,17.59.48,26.38.06,1.15,1.86,1.16,1.8,0-.47-8.79,0-17.59-.48-26.38-.07-1.15-1.87-1.16-1.8,0Z"/><path class="cls-1" d="M21.44,31.53c.49-.89,1-1.72,1.61-2.55a29.74,29.74,0,0,0,1.65-2.77c.79-1.43,1.61-2.85,2.43-4.27A.9.9,0,0,0,25.57,21q-1.23,2.13-2.42,4.27A30.78,30.78,0,0,1,21.53,28c-.58.86-1.14,1.71-1.64,2.61s1,1.93,1.55.91Z"/><path class="cls-1" d="M21.3,30.57c-1.2-1.38-2.34-2.76-3.39-4.24-1.2-1.67-2.32-3.4-3.48-5.1a.93.93,0,0,0-1.24-.32.92.92,0,0,0-.32,1.23c1.18,1.73,2.32,3.49,3.55,5.19s2.34,3.06,3.61,4.52c.76.87,2-.4,1.27-1.28Z"/><path class="cls-1" d="M5.94,37.18c9.64-.73,19.31,0,29-.56,1.15-.06,1.16-1.86,0-1.8-9.64.52-19.31-.17-28.95.56-1.14.09-1.15,1.89,0,1.8Z"/></svg>