<svg id="Layer_1" data-name="Layer 1" xmlns="http://www.w3.org/2000/svg" viewBox="0 0 40 40"><defs><style>.cls-1{fill:#010101;}</style></defs><path class="cls-1" d="M7.87,22.84c-1.2-.3-2.35-.78-3.54-1.08l.66.87c0-1.27-.15-2.54-.15-3.81l-.45.78a3.79,3.79,0,0,1,.69-.3A8.11,8.11,0,0,1,6,19.06c.6-.13,1.22-.22,1.83-.33a.91.91,0,0,0,.63-1.11A.93.93,0,0,0,7.31,17,13,13,0,0,0,3.48,18a.92.92,0,0,0-.44.78c0,1.27.15,2.54.15,3.81a.92.92,0,0,0,.66.87c1.19.3,2.34.78,3.54,1.08a.9.9,0,0,0,.48-1.74Z"/><path class="cls-1" d="M12.83,30.36a3,3,0,0,0-.94.42c-.3.18-.59.36-.87.56a16.35,16.35,0,0,0-1.69,1.32l1.1-.14A15,15,0,0,1,9.09,31.4c-.23-.22-.46-.44-.67-.68l-.33-.35L8,30.21c-.07-.09,0-.06,0,0a2.09,2.09,0,0,0,0,.26s0-.05,0,0l.28-.34.66-.8a3.89,3.89,0,0,0,.94-1.4.9.9,0,0,0-1.74-.47c0,.11.1-.13,0-.05s-.06.1-.09.15l-.1.14s.15-.18,0,0l-.73.89c-.56.67-1.34,1.4-.93,2.36a3.45,3.45,0,0,0,.7.92c.24.26.49.52.74.76a17.8,17.8,0,0,0,1.78,1.47.91.91,0,0,0,1.09-.14,13.11,13.11,0,0,1,1.32-1c.24-.16.48-.32.73-.47s.25-.15.38-.22.16-.09.1-.07.15,0,.17,0a.9.9,0,0,0-.48-1.74Z"/><path class="cls-1" d="M30.08,18.73l1.71.31.83.15.15,0c.1,0,.11,0,0,0,.13.08.1.05-.08-.11,0-.09,0-.08,0,0a9.77,9.77,0,0,1,.19,1.57c0,.3.05.59.06.89,0,.15,0,.29,0,.44s0,.13,0,.19a.49.49,0,0,1,.26-.36c.11,0,.11,0,0,0l-.1,0-.16,0-.42.09-1.07.23c-.64.13-1.28.25-1.9.42a.9.9,0,0,0-.63,1.1.91.91,0,0,0,1.1.63c1.15-.3,2.32-.47,3.46-.75a1.51,1.51,0,0,0,1.18-.93,4.41,4.41,0,0,0,0-1.62c0-.54-.09-1.07-.16-1.6a2.41,2.41,0,0,0-.57-1.6,3.09,3.09,0,0,0-1.68-.58L30.56,17a.92.92,0,0,0-1.11.63.91.91,0,0,0,.63,1.11Z"/><path class="cls-1" d="M17,10.15c.41-1.28.76-2.59,1.07-3.9l-.87.67L19,6.79l.89-.07.41,0a.91.91,0,0,0,.23,0c.06,0,0,0-.06,0s0-.06,0,0-.09-.19-.06-.06.1.34.14.51c.09.32.17.65.24,1,.15.66.29,1.32.46,2A.9.9,0,1,0,23,9.58c-.18-.73-.33-1.46-.5-2.2s-.3-1.77-1.05-2.25A3.43,3.43,0,0,0,19.27,5l-2.1.16a.91.91,0,0,0-.87.66c-.31,1.31-.66,2.61-1.07,3.89a.91.91,0,0,0,.63,1.11A.93.93,0,0,0,17,10.15Z"/><path class="cls-1" d="M9.73,14.49,7.94,11.24v.91A7.78,7.78,0,0,1,10,9.8s.15-.09.16-.11-.37,0-.37,0a2.66,2.66,0,0,0,.35.23c.26.16.51.34.75.52.49.35,1,.73,1.43,1.13a.92.92,0,0,0,1.27,0,.91.91,0,0,0,0-1.27,21.94,21.94,0,0,0-2.73-2.06,1.52,1.52,0,0,0-1.77,0,9.53,9.53,0,0,0-2.26,2.31,4.74,4.74,0,0,0-.39.6,1.09,1.09,0,0,0,.06,1.21l1.67,3a.9.9,0,0,0,1.56-.91Z"/><path class="cls-1" d="M13.52,14a9,9,0,0,0-3.11,9.27,6.85,6.85,0,0,0,2.87,4.14,11.26,11.26,0,0,0,5.38,2.12c2,.17,3.61-.78,5.17-1.94a8.78,8.78,0,0,0,3.17-4,9.21,9.21,0,0,0,.42-4.26,7.76,7.76,0,0,0-1.83-4,8.59,8.59,0,0,0-5.5-2.82,7.85,7.85,0,0,0-3.51.08A12.15,12.15,0,0,0,13.52,14c-1,.61-.07,2.17.91,1.55A7.33,7.33,0,0,1,19,14.12a8.61,8.61,0,0,1,4.34,1.48,6.15,6.15,0,0,1,2.25,6.31,6.43,6.43,0,0,1-1.7,3.31,8.82,8.82,0,0,1-3.81,2.45,6.5,6.5,0,0,1-4.38-.9,6.45,6.45,0,0,1-3.19-2.9c-1.19-2.66-.48-6.54,1.93-8.31.93-.67,0-2.24-.91-1.55Z"/><path class="cls-1" d="M6.85,24a11.39,11.39,0,0,0,1.59,3.9.91.91,0,0,0,1.23.32A.92.92,0,0,0,10,27a8.94,8.94,0,0,1-.51-.84c-.07-.14-.14-.28-.2-.42s-.16-.31,0-.09a2,2,0,0,1-.08-.22,12.55,12.55,0,0,1-.56-1.9.9.9,0,0,0-1.11-.62A.91.91,0,0,0,6.85,24Z"/><path class="cls-1" d="M8.14,14.47a26.42,26.42,0,0,0-1.46,3.15.91.91,0,0,0,.63,1.11.93.93,0,0,0,1.11-.63c.07-.19.14-.38.22-.57l-.09.22c.34-.81.74-1.59,1.14-2.37a.91.91,0,0,0-.32-1.23.92.92,0,0,0-1.23.32Z"/><path class="cls-1" d="M15.74,9.07c-1,.26-2,.58-3,.91a.92.92,0,0,0-.62,1.11.9.9,0,0,0,1.1.63c1-.33,2-.65,3-.91a.92.92,0,0,0,.63-1.11.93.93,0,0,0-1.11-.63Z"/><path class="cls-1" d="M25.16,10.32A13.51,13.51,0,0,0,22.46,9a.9.9,0,0,0-1.1.63A.92.92,0,0,0,22,10.74c.2.06.39.14.59.22l-.22-.09a14.83,14.83,0,0,1,1.89,1,.91.91,0,0,0,1.23-.32.92.92,0,0,0-.32-1.23Z"/><path class="cls-1" d="M31,17.62a9.91,9.91,0,0,0-1.16-3.24.92.92,0,0,0-1.23-.32.91.91,0,0,0-.32,1.23q.24.44.45.9L28.69,16a11,11,0,0,1,.62,2.12A.9.9,0,1,0,31,17.62Z"/><path class="cls-1" d="M29.54,27.07a13.39,13.39,0,0,0,.66-1.73c.16-.56.36-1.1.54-1.65a.9.9,0,0,0-.63-1.11.92.92,0,0,0-1.1.63c-.18.53-.38,1.05-.53,1.59-.08.26-.15.51-.25.76l-.06.17a.85.85,0,0,1-.09.22c.05-.12.06-.14,0-.08l0,.08a2,2,0,0,1-.1.21,1,1,0,0,0-.09.7.91.91,0,0,0,1.65.21Z"/><path class="cls-1" d="M22.37,33a11.47,11.47,0,0,0,3.17-1.43A.9.9,0,1,0,24.63,30a11,11,0,0,1-1.66.89l.21-.09a11.52,11.52,0,0,1-1.29.44.92.92,0,0,0-.63,1.11.93.93,0,0,0,1.11.63Z"/><path class="cls-1" d="M25.16,11.87c1-.61,1.94-1.4,3-2l.12-.07a.23.23,0,0,1-.18,0c-.18,0-.22-.06-.13,0h0s0,0,0,0l.21.18.7.64A9.22,9.22,0,0,1,30.14,12L30,11.49c.09-.24.09-.28,0-.11l-.12.19-.24.39-.45.8c-.29.53-.56,1.08-.81,1.63a.93.93,0,0,0,.32,1.24.91.91,0,0,0,1.23-.33,29.22,29.22,0,0,1,1.62-3,1.24,1.24,0,0,0,.22-1,2.57,2.57,0,0,0-.65-.92c-.36-.4-.73-.79-1.13-1.16a5.51,5.51,0,0,0-1.27-1,1.86,1.86,0,0,0-1.88.39c-.88.58-1.7,1.25-2.6,1.79a.9.9,0,0,0,.91,1.55Z"/><path class="cls-1" d="M28.13,27.19l2.09,3.07v-.91a8.78,8.78,0,0,1-1,1.64l-.21.26-.31.34-.33.33a1.54,1.54,0,0,0-.19.17s-.05,0,0,0,.18-.11.34-.06,0,0-.05,0l-.21-.11-.38-.22c-.26-.17-.52-.34-.77-.52-.53-.36-1.05-.75-1.57-1.12a.9.9,0,0,0-1.23.32.93.93,0,0,0,.32,1.23c.83.6,1.64,1.22,2.51,1.75a1.91,1.91,0,0,0,1.87.34,4.33,4.33,0,0,0,1.22-1.08,9.93,9.93,0,0,0,1-1.34c.33-.53.87-1.29.54-1.91s-.7-1-1-1.53l-1.05-1.54a.9.9,0,0,0-1.55.91Z"/><path class="cls-1" d="M12.7,31.94a10.05,10.05,0,0,0,3.78,1.4,1,1,0,0,0,.7-.09,1,1,0,0,0,.41-.54A.91.91,0,0,0,17,31.6a9.74,9.74,0,0,1-1.84-.47,1.59,1.59,0,0,1-.43-.16c.21.13,0,0-.07,0l-.19-.09a7.22,7.22,0,0,1-.82-.46.91.91,0,0,0-1.24.32.92.92,0,0,0,.33,1.23Z"/><path class="cls-1" d="M15.85,32.71l.34,2.13.08.47a.5.5,0,0,0,0,.12v0s0-.23,0-.1,0,.24.05.36a1.14,1.14,0,0,0,.84,1,8.28,8.28,0,0,0,1.41.09,13.7,13.7,0,0,0,2.79-.12A.86.86,0,0,0,22,36l.81-3.5a.9.9,0,1,0-1.73-.48l-.82,3.5.63-.62c-.16,0,.18,0,0,0l-.22,0-.5,0c-.39,0-.77,0-1.17,0L17.76,35a1.46,1.46,0,0,0-.29,0l.29.18a.37.37,0,0,1,.31.26c.07.11,0,.08,0,0s0-.14,0,0c0-.14,0-.28,0-.42-.1-.64-.21-1.28-.31-1.92l-.13-.82a.9.9,0,0,0-1.11-.63.94.94,0,0,0-.63,1.11Z"/></svg>