<svg id="Layer_1" data-name="Layer 1" xmlns="http://www.w3.org/2000/svg" viewBox="0 0 40 40"><defs><style>.cls-1{fill:#202020;}</style></defs><path class="cls-1" d="M2.4,20.92c10.79-.6,21.59,0,32.38-.59,1.15-.07,1.16-1.87,0-1.8-10.79.58-21.59,0-32.38.59-1.15.06-1.16,1.86,0,1.8Z"/><path class="cls-1" d="M35.24,18.41c-1.09-.6-2.11-1.28-3.14-2s-2.23-1.39-3.39-2c-1.76-1-3.5-2-5.24-3A.9.9,0,0,0,22.56,13c1.74,1,3.48,2,5.24,3a38.41,38.41,0,0,1,3.33,2c1.05.71,2.09,1.41,3.2,2s1.92-1,.91-1.55Z"/><path class="cls-1" d="M34.31,18.55c-1.69,1.47-3.42,2.89-5.24,4.2C27,24.21,24.89,25.6,22.8,27c-.95.65-.05,2.21.91,1.55,2.13-1.45,4.28-2.85,6.37-4.35,1.91-1.37,3.73-2.86,5.5-4.4.88-.76-.4-2-1.27-1.27Z"/></svg>