<?xml version="1.0" encoding="utf-8"?>
<!-- Generator: Adobe Illustrator 24.1.0, SVG Export Plug-In . SVG Version: 6.00 Build 0)  -->
<svg version="1.1" id="Layer_1" xmlns="http://www.w3.org/2000/svg" xmlns:xlink="http://www.w3.org/1999/xlink" x="0px" y="0px"
	 viewBox="0 0 40 40" style="enable-background:new 0 0 40 40;" xml:space="preserve">
<style type="text/css">
	.st0{fill:#202020;}
</style>
<g>
	<path class="st0" d="M29.8,8.9c-2.6-3.1-7.1-4.3-11-4c-3.8,0.2-7.3,2.2-9.4,5.4C7,13.8,7.5,17.9,9.4,21.6c2.6,4.8,6.5,9.2,10.4,13
		c0.4,0.4,0.9,0.3,1.2,0c0,0,0,0,0.1,0v0c1.2-0.9,2.3-1.9,3.3-3c1-1.1,2-2.1,3-3.3c1.9-2.3,3.3-5,4.2-7.8c0-0.1,0-0.2,0-0.3
		C32.6,16.2,32.5,12.2,29.8,8.9z M26,27.2c-0.8,1-1.8,2-2.7,3c-0.9,0.9-1.8,1.8-2.8,2.6C17.8,30,15.2,27,13,23.9
		c-2.1-3-4.2-6.6-3.1-10.4C11.9,6.3,21.5,4.8,27,8.8c1.5,1.1,2.6,2.6,3.2,4.4c0.7,2.2,0.2,4.7-0.3,6.9c0,0,0,0,0,0
		C29,22.6,27.7,25.1,26,27.2z"/>
	<path class="st0" d="M24.6,11.6c-1-1-2.3-1.6-3.8-1.7c-1.5-0.2-3,0.2-4.2,1.1c-1.9,1.4-2.8,3.9-2.3,6.2c0.3,1.2,0.9,2.2,1.8,2.9
		c1,0.8,2.2,1.4,3.5,1.8c1.3,0.3,2.7,0,3.7-0.8c1.1-0.6,1.9-1.6,2.5-2.7c0.4-1.1,0.6-2.3,0.6-3.4c0.1-0.6-0.1-1.3-0.5-1.8
		C25.5,12.6,25.1,12.1,24.6,11.6z M24.6,15.8c0,0.4-0.1,0.8-0.2,1.2c-0.2,0.9-0.6,1.6-1.4,2.2c-0.6,0.6-1.5,1-2.4,1.1
		c-0.9-0.1-1.8-0.5-2.6-1.1c-0.8-0.4-1.4-1-1.7-1.8c-0.7-1.7-0.2-3.7,1.2-4.8c0,0,0,0,0.1-0.1c0.7-0.6,1.6-0.9,2.6-0.9
		c0.9,0,1.8,0.2,2.6,0.7c0.4,0.3,0.7,0.6,1,1c0.4,0.3,0.7,0.7,0.8,1.2C24.7,14.9,24.6,15.3,24.6,15.8z"/>
</g>
</svg>
