<svg id="Layer_1" data-name="Layer 1" xmlns="http://www.w3.org/2000/svg" viewBox="0 0 40 40"><defs><style>.cls-1{fill:#202020;}</style></defs><path class="cls-1" d="M30.17,6.18c-3.46,0-6.93,0-10.39.16-3.3.1-6.68.11-10,.49A.92.92,0,0,0,8.94,8V8L9,7.3a5.55,5.55,0,0,0-.49,2.86c-.06.78-.11,1.55-.14,2.32-.07,2,.11,4,0,6C8,23.37,8.2,28.35,8.28,33.22a.92.92,0,0,0,.9.9q10.67.3,21.34,0a.91.91,0,0,0,.9-.9c-.05-4.67,0-9.34,0-14a.9.9,0,0,0-1.8,0c0,4.68-.05,9.35,0,14l.9-.9q-10.66.33-21.34,0l.9.9c-.08-4.92-.27-9.92.1-14.83.14-2,0-3.94,0-5.91,0-.82.09-1.64.15-2.46a9.17,9.17,0,0,1,.18-1.74,1.76,1.76,0,0,0,.14-.79L9.81,8.63c3.29-.38,6.67-.39,10-.49C23.24,8,26.71,8,30.17,8a.9.9,0,0,0,0-1.8Z"/><path class="cls-1" d="M30.74,5c-3.33,3.22-6.57,6.57-9.81,9.88a19.73,19.73,0,0,0-4.23,5.23,61.14,61.14,0,0,0-2.56,6.49.91.91,0,0,0,1.11,1.11,20.7,20.7,0,0,0,7.28-3.53c2.41-2.06,4.58-4.53,6.79-6.81a66.6,66.6,0,0,0,6.46-7.18c.82-1.14.1-2-.77-2.84a21.8,21.8,0,0,0-3.18-2.49c-1-.63-1.88.93-.91,1.55a19,19,0,0,1,2.7,2.1c.16.14.47.35.56.55.16.36.16.18-.2.5a19.06,19.06,0,0,0-1.43,1.67c-1.81,2.07-3.71,4.06-5.63,6-.94,1-1.89,1.91-2.83,2.86a37.23,37.23,0,0,1-2.83,2.79A19.76,19.76,0,0,1,14.77,26l1.11,1.11a52.67,52.67,0,0,1,2.43-6.17c1-2.11,2.84-3.7,4.46-5.34,3.06-3.11,6.11-6.26,9.24-9.3.83-.81-.44-2.08-1.27-1.27Z"/><path class="cls-1" d="M17.8,18.73c.08.76.15,1.51.19,2.27a.91.91,0,0,0,1.14.87c.58-.17,1.18-.26,1.78-.4l-1.14-.87c0,.61.08,1.22.06,1.82a.91.91,0,0,0,.9.9c.81-.05,1.62-.08,2.41-.17a.92.92,0,0,0,.9-.9c0-.44-.39-1-.9-.9-.8.09-1.6.12-2.41.17l.9.9c0-.6,0-1.21-.06-1.82a.91.91,0,0,0-1.14-.86c-.59.14-1.2.22-1.78.4l1.14.86c0-.76-.11-1.51-.19-2.27a.92.92,0,0,0-.9-.9.91.91,0,0,0-.9.9Z"/><path class="cls-1" d="M28.68,9.17a15.62,15.62,0,0,0,2,1.64l1,.72c.11.09,0,0,0,0s.11.09.13.11l.23.18.49.43A.9.9,0,0,0,33.75,11a21.68,21.68,0,0,0-2.06-1.63L31.21,9A2,2,0,0,0,31,8.8c.15.07.06,0,0,0l-.13-.1A11.52,11.52,0,0,1,30,7.89a.92.92,0,0,0-1.28,0,.93.93,0,0,0,0,1.28Z"/></svg>