<svg id="Layer_1" data-name="Layer 1" xmlns="http://www.w3.org/2000/svg" viewBox="0 0 40 40"><defs><style>.cls-1{fill:#202020;}</style></defs><path class="cls-1" d="M10.34,20.65c-.19,3.49-.21,7-.1,10.5,0,1.15,1.84,1.16,1.8,0-.11-3.5-.09-7,.1-10.5.07-1.15-1.73-1.15-1.8,0Z"/><path class="cls-1" d="M13,10.39l-1.19.17-.42.06-.34.05-.23,0c.13,0,0,0-.06,0a7.85,7.85,0,0,0-3.5.91.9.9,0,0,0,.91,1.55l.33-.2c.05,0,.18-.08.06,0l.16-.06a6.37,6.37,0,0,1,.75-.2l.39-.06H10l.18,0,.83-.1,1.31-.19.3-.05h0c-.17,0,0,0,0,0l.41-.06a.92.92,0,0,0,.9-.9c0-.43-.4-1-.9-.9Z"/><path class="cls-1" d="M17.79,11.45a63.92,63.92,0,0,0,7.3-.95A22.05,22.05,0,0,1,28.21,10a7.57,7.57,0,0,1,2.66-.21,4.11,4.11,0,0,1,1.11.88c.53.45,1.08.75,1.22,1.48a12.9,12.9,0,0,1-.05,2.48c0,.88.12,1.76.1,2.64,0,1.45.08,2.9,0,4.35l-.06,3.66c0,.63,0,1.27,0,1.9s0,.65-.47.77l-2.11.49c-1.13.26-.65,2,.48,1.74l2.11-.49A2.12,2.12,0,0,0,35,27.38c.06-1.33,0-2.67.07-4a43.92,43.92,0,0,0,0-4.59,46.46,46.46,0,0,1-.1-5.66A3.79,3.79,0,0,0,34.74,11a5.07,5.07,0,0,0-1.49-1.6C32.32,8.66,31.7,7.93,30.43,8a31.73,31.73,0,0,0-3.5.38c-1.63.2-3.19.66-4.81.88-1.44.18-2.89.26-4.33.44-1.14.14-1.15,1.94,0,1.8Z"/><path class="cls-1" d="M12.16,9.23a19.82,19.82,0,0,1,0,2.18,1.47,1.47,0,0,0,.38,1.21L13,13l.19.14.07,0h0a.87.87,0,0,1-.27-.27l-.12-.46a.88.88,0,0,0,.55.84,2.09,2.09,0,0,0,.7.11c.31,0,.62,0,.93,0s.6,0,.9,0a3,3,0,0,0,1.21-.32c1-.5,1.13-1.76,1.06-2.74a3.41,3.41,0,0,0-.4-1.56.9.9,0,0,0-1.55.91l.06.11c.06.11-.09-.26,0-.06s.05.17.07.26.05.44,0,.11l0,.32a5.77,5.77,0,0,1,0,.72c0,.16,0-.23,0-.06a1,1,0,0,1,0,.17,2.76,2.76,0,0,1-.08.27c0,.15.12-.21,0-.06l-.06.1c-.06.12.18-.18,0-.06s.27-.15.06-.05l-.11.06c-.1.05-.08,0,0,0a.57.57,0,0,1-.22.07l-.1,0c-.1,0-.08,0,.05,0a.82.82,0,0,1-.27,0h-.94l-.49,0H14l.54.41h0l.13.45c.05-.54-.5-.83-.87-1.1l-.1-.08.08.06-.06,0,0,0,.24.57c0-.15,0-.31,0-.46a19.49,19.49,0,0,0,0-2.16,1,1,0,0,0-.27-.64.92.92,0,0,0-.63-.26c-.44,0-1,.4-.9.9Z"/><path class="cls-1" d="M12.39,8.9a1.27,1.27,0,0,0,.12,1,2.59,2.59,0,0,0,.81.87,2.21,2.21,0,0,0,1.32.25,6.24,6.24,0,0,0,1.21-.14,5.75,5.75,0,0,0,1.21-.41A1.2,1.2,0,0,0,17.76,9C17.51,8.08,16.29,8,15.5,8A6.7,6.7,0,0,0,13,8.27.9.9,0,0,0,13.49,10a4.76,4.76,0,0,1,.74-.2l.18,0h0l.44,0a6.91,6.91,0,0,1,.79,0l.19,0h0c.13,0,.26,0,.38.06s.19.07.05,0,.13.1,0,0,0,0,0,0l-.09-.15A.32.32,0,0,1,16,9.34a.62.62,0,0,1,.16-.45s.16-.09.05-.05l-.09.05s.15-.06.06,0L16,8.93a3,3,0,0,1-.4.12l-.39.09a1.25,1.25,0,0,0-.19,0H15a5.63,5.63,0,0,1-.82,0s-.14,0,0,0-.1,0,.08,0,.05,0,0,0,.15.13.05,0l-.13-.13-.07-.06s-.11-.13,0,0,0,0,0,0,0,.09,0,.1c-.06-.15,0,.11,0,.11,0-.17-.05.22,0,.13a.9.9,0,0,0-.09-.7.93.93,0,0,0-.54-.41.92.92,0,0,0-1.1.63Z"/><path class="cls-1" d="M6.84,12.39c-.08,3.17-.13,6.34-.23,9.51-.05,1.53-.17,3.07-.14,4.6a12.64,12.64,0,0,0,.69,4.78A8.16,8.16,0,0,0,10,34.09c1.18.71,2.77.07,4-.15,2.74-.47,5.46-1,8.17-1.6,1.13-.27.65-2-.48-1.74-2.35.55-4.71,1-7.09,1.42-1,.18-3.06.93-4,.33A8.64,8.64,0,0,1,9.12,31a3,3,0,0,1-.61-1.71,46.43,46.43,0,0,1-.07-8.42c.08-2.81.13-5.62.2-8.44a.9.9,0,0,0-1.8,0Z"/><path class="cls-1" d="M20.36,14.66c1.07-.09,2.13-.28,3.18-.47L25,13.94h-.05l-.57-.46,0-.12c0,.08,0,.09,0,0s0-.08,0,0a.5.5,0,0,0,0,.12c0,.11,0,.22,0,.33a2.67,2.67,0,0,0,.12,1l.09-.7,0,.05.32-.32c-.08.05-.06.05.06,0l-.06,0a.87.87,0,0,0-.28.05l-.57.1-1.18.22-1.14.2-.57.11-.28.05-.14,0c-.19,0-.13,0,.2,0l.39.23.14.24,0-.09c0-.06,0-.12,0-.18a1,1,0,0,1,0-.17c0-.17,0,0,0-.05s0-.22,0-.33v-.18s0-.21,0-.07a.93.93,0,0,0-.63-1.11.92.92,0,0,0-1.11.63,4.74,4.74,0,0,0,.05,1.76,1.57,1.57,0,0,0,.39.82,1.31,1.31,0,0,0,1.25.21l3.22-.58c.57-.11,1.31-.12,1.63-.71a1,1,0,0,0,.07-.77c0-.06,0-.12,0-.17s0,.15,0,0v-.18s0-.18,0,0c0-.16.06-.32.06-.49a1.22,1.22,0,0,0-.37-.9,1.34,1.34,0,0,0-1.19-.27c-.43.06-.86.14-1.29.22l-1.56.27-.37.05-.16,0H21.1l-.74.08a.9.9,0,1,0,0,1.8Z"/><path class="cls-1" d="M7.2,17.89c3.47,3,7.92,1.4,12,.72L34,16.13c1.14-.19.66-1.93-.48-1.74L20.64,16.55l-6.33,1.06c-2.14.36-4.08.52-5.84-1-.87-.75-2.15.52-1.27,1.27Z"/><path class="cls-1" d="M24.16,22.63a4.78,4.78,0,0,1,5-.59c1.89,1.09,2,3.46,1.44,5.35a6.9,6.9,0,0,1-1.46,2.75,4.26,4.26,0,0,1-2.59,1.29,4.82,4.82,0,0,1-2.66-.19A3.16,3.16,0,0,1,22.23,29a5,5,0,0,1-.06-3.48,10.51,10.51,0,0,1,2.17-3c.81-.83-.46-2.1-1.27-1.27a12.24,12.24,0,0,0-2.45,3.39,6.3,6.3,0,0,0-.29,4.26,6,6,0,0,0,1.83,3.42,5.22,5.22,0,0,0,3.69,1,6.76,6.76,0,0,0,3.75-1.2A7.62,7.62,0,0,0,32,28.8c1-2.43,1.08-5.8-1-7.67a6.29,6.29,0,0,0-7.67-.05.92.92,0,0,0-.32,1.23.91.91,0,0,0,1.23.32Z"/><path class="cls-1" d="M25.09,31.55a11.25,11.25,0,0,1-2.95-1A4,4,0,0,1,20,28.74c-.7-1.73-.21-3.39.51-5a5.69,5.69,0,0,1,3.8-3.37C26,20,27.77,21,29,22a.93.93,0,0,0,1.27,0,.9.9,0,0,0,0-1.27,9.78,9.78,0,0,0-4.57-2.16,6.34,6.34,0,0,0-5,1.86,10.14,10.14,0,0,0-2.52,4.55,6.17,6.17,0,0,0,.71,5.43c1.29,1.67,3.71,2.54,5.71,2.93,1.13.21,1.61-1.52.48-1.74Z"/><path class="cls-1" d="M25.69,23A3.79,3.79,0,0,0,24.1,24a3.47,3.47,0,0,0-.78,1.72,3.82,3.82,0,0,0,1.59,3.78,2.66,2.66,0,0,0,2.12.39,3.05,3.05,0,0,0,.53-.2l.11-.05.19-.07a1.85,1.85,0,0,0,1.1-.77c.86-1.24,1.5-2.89.76-4.32A3.44,3.44,0,0,0,27.89,23a3,3,0,0,0-2.41.1.9.9,0,1,0,.9,1.56c-.14.07,0,0,0,0l.19-.06h.07c-.12,0,.05,0,.07,0h.16c.05,0,.22,0,0,0l.35.09,0,0,.15.07.27.17c-.13-.09,0,0,0,0l.12.11.11.12c.17.18-.06-.12.07.08l.16.29c-.07-.14,0,0,0,0a1.66,1.66,0,0,0,.06.21c0,.13,0-.11,0,0v.18a1.09,1.09,0,0,1,0,.18v0a.59.59,0,0,1,0,.13c0,.12-.06.23-.1.35l-.08.21s.05-.12,0,0-.26.5-.4.75a2.82,2.82,0,0,1-.18.29c-.09.16,0,0,0,0s0,0,0,0,.11,0,0,0l-.19.07a5.32,5.32,0,0,0-.5.21c-.24.11.09,0-.06,0l-.15.05c-.12,0,.14,0,0,0h-.15c-.06,0-.21,0,0,0l-.14,0-.15-.05c.15.05,0,0-.07,0l-.26-.17c.14.11-.09-.09-.12-.12s-.21-.26-.11-.12a2.39,2.39,0,0,1-.21-.34c0-.05-.05-.1-.08-.14.08.14,0,0,0,0s-.07-.23-.1-.35l0-.16c0-.13,0,.14,0,0s0-.27,0-.41,0-.1,0-.16,0-.05,0,0l0-.11a3.38,3.38,0,0,1,.08-.34.69.69,0,0,0,0-.13c-.07.19,0,0,0,0s.12-.19.18-.29c-.09.15-.06.06,0,0l.14-.15a.94.94,0,0,0,.1-.1s.21-.13,0,0l.27-.17.16-.08s.25-.11.06,0A.9.9,0,1,0,25.69,23Z"/></svg>