<?xml version="1.0" encoding="utf-8"?>
<!-- Generator: Adobe Illustrator 24.1.0, SVG Export Plug-In . SVG Version: 6.00 Build 0)  -->
<svg version="1.1" id="Layer_1" xmlns="http://www.w3.org/2000/svg" xmlns:xlink="http://www.w3.org/1999/xlink" x="0px" y="0px"
	 viewBox="0 0 40 40" style="enable-background:new 0 0 40 40;" xml:space="preserve">
<style type="text/css">
	.st0{fill:#202020;}
</style>
<path class="st0" d="M21.8,5.3c-0.1,0-0.1,0-0.2,0c-3.1,0-6.1,1-8.6,2.8c-2.4,1.7-4.2,4-5.2,6.7c-0.1,0.1-0.1,0.2-0.1,0.3
	c0,0.1-0.1,0.2-0.1,0.3C6.5,19.3,7,24,9.3,27.2c1.3,2.1,3.2,3.9,5.5,5c2.7,1,5.5,1.4,8.3,1.2c3.1-0.2,6-1.5,8.2-3.7
	c2.6-2.4,4.1-5.8,4.1-9.4C35.6,12.6,29.9,5.2,21.8,5.3z M33.3,22.8c-0.1,0-0.2-0.1-0.3-0.1c-2.1,0-4.2,0-6.2,0
	c0.1-0.7,0.2-1.5,0.2-2.2c0.1-1.4,0-2.8-0.1-4.2c0.1,0,0.3,0,0.4,0c1.9,0,3.9-0.2,5.9,0c0.2,0.8,0.4,1.7,0.4,2.5
	C33.7,20.2,33.6,21.5,33.3,22.8z M9.1,17c0-0.2,0.1-0.4,0.1-0.6c2.2,0.1,4.4,0,6.6-0.1c-0.1,1-0.2,2-0.2,2.9c0,1.2,0,2.5,0.2,3.7
	c-2.2,0-4.3,0.1-6.5,0.1C8.8,21,8.8,19,9.1,17z M17.4,19.5c0-1.1,0.1-2.2,0.2-3.4c1.2,0,2.3-0.1,3.5-0.1c1.3,0,2.6,0.1,3.9,0.2
	c0.2,1.1,0.2,2.2,0.2,3.3c-0.1,1.1-0.1,2.1-0.3,3.2c-2.4,0-4.9,0-7.3,0.1C17.5,21.7,17.4,20.6,17.4,19.5z M21,7.1c0.3,0,0.5,0,0.8,0
	c0,0,0.1,0,0.1,0c0.1,0,0.3,0,0.4,0c1,2.3,1.8,4.8,2.4,7.4c-1.2-0.1-2.3-0.2-3.5-0.2c-1.1,0-2.2,0-3.2,0c0.5-2.5,1.4-4.9,2.8-6.8
	C20.9,7.4,20.9,7.3,21,7.1z M32.5,14.6c-1.7-0.1-3.3-0.1-5,0c-0.3,0-0.7,0-1,0c-0.5-2.5-1.3-4.9-2.2-7.2C28.1,8.3,31.1,11,32.5,14.6
	z M13.2,10.4C14.8,9,16.6,8,18.7,7.5c-1.3,2.1-2.1,4.5-2.5,6.9c-2.1,0.1-4.2,0.2-6.3,0.2C10.7,13,11.9,11.5,13.2,10.4z M11.2,26.8
	c-0.5-0.7-0.9-1.4-1.2-2.1c2.1-0.1,4.1-0.1,6.2-0.1c0.5,2.3,1.4,4.6,2.6,6.7c-0.8-0.1-1.6-0.3-2.4-0.5
	C14.2,30.2,12.5,28.5,11.2,26.8z M21,31.6C20.9,31.5,21,31.5,21,31.6L21,31.6c-1.4-2.2-2.4-4.5-3-7c2.2,0,4.4,0,6.7,0
	c-0.1,0.6-0.2,1.1-0.3,1.7c-0.2,1.9-1,3.6-2.1,5.1c-0.1,0.1-0.1,0.2-0.2,0.3C21.7,31.6,21.3,31.6,21,31.6z M30.9,27.6
	c-1.7,1.8-4,3.5-6.6,3.9c0.8-1.2,1.3-2.6,1.6-4c0.2-1,0.4-2,0.6-2.9c2.1,0,4.2,0,6.3,0C32.3,25.6,31.7,26.7,30.9,27.6z"/>
</svg>
