<svg width="50" height="19" viewBox="0 0 50 19" fill="none" xmlns="http://www.w3.org/2000/svg">
<path fill-rule="evenodd" clip-rule="evenodd" d="M36.0354 14.1372C35.0043 14.5514 34.1907 15.9825 32.9532 16.7959C32.8765 16.8464 32.7997 16.8716 32.7486 16.8716C32.6463 16.8716 32.5184 16.7707 32.5184 16.3168C32.5184 14.7532 33.0299 13.9966 33.4648 12.887C34.9739 9.02845 37.5573 5.72474 39.8593 2.11841C40.0384 1.841 40.1407 1.53837 40.1407 1.21052C40.1407 0.933108 40.0384 0.706136 39.9105 0.428725C39.8082 0.201753 39.3477 0 38.8362 0C38.5548 0 38.299 0.0252191 37.9665 0.0252191C36.7643 0.0252191 36.5086 1.76534 36.2272 2.21928C34.3088 5.42211 32.1091 9.38152 30.9837 12.1808C30.7369 12.8084 30.4703 13.4359 30.2677 14.08C29.1555 14.3975 28.3223 15.9393 27.0191 16.7959C26.9423 16.8464 26.8656 16.8716 26.8144 16.8716C26.7121 16.8716 26.5842 16.7707 26.5842 16.3168C26.5842 14.7532 27.0958 13.9966 27.5306 12.887C29.0397 9.02845 31.6231 5.72474 33.9252 2.11841C34.1042 1.841 34.2065 1.53837 34.2065 1.21052C34.2065 0.933108 34.1042 0.706136 33.9763 0.428725C33.874 0.201753 33.4136 0 32.902 0C32.6207 0 32.3649 0.0252191 32.0324 0.0252191C30.8302 0.0252191 30.5744 1.76534 30.2931 2.21928C28.3747 5.42211 26.175 9.38152 25.0495 12.1808C24.9601 12.4083 24.868 12.6358 24.7773 12.8641C24.7493 12.8789 24.7207 12.8949 24.6914 12.9122C23.387 13.6688 22.2871 15.0054 20.7012 15.9133C20.3943 16.0898 19.4479 16.7455 18.6806 16.7455C18.5015 16.7455 18.3481 16.6951 18.1946 16.6194C17.9644 16.5185 17.7342 16.0394 17.7342 15.8881C17.7342 15.762 17.7598 15.7367 18.0155 15.5854C20.2664 14.2488 22.108 12.3322 23.6939 10.4155C24.2822 9.70936 25.0495 8.32231 25.0495 7.31355C25.0495 6.65785 24.8193 5.90128 24.0264 5.62387C23.4637 5.42211 22.8242 5.32124 22.3127 5.32124C20.957 5.32124 19.9595 5.9265 19.3968 6.50654C18.8239 7.10954 18.2697 7.72871 17.7549 8.36965C17.217 7.91177 16.4583 7.71705 15.7391 7.71705C14.895 7.71705 13.3092 8.75104 12.4906 9.3563C12.3628 9.45717 12.286 9.50761 12.2349 9.50761C12.2093 9.50761 12.1837 9.48239 12.1837 9.43195C12.1837 9.40674 12.2349 9.17976 12.2349 8.77626C12.2349 8.42319 12.1581 7.96924 11.8256 7.41442C11.7489 7.28833 11.2885 7.01092 10.7258 7.01092C10.0351 7.01092 9.39569 7.33877 9.39569 7.69183C9.39569 7.94403 9.62589 8.0449 9.62589 8.27187C9.62589 8.39797 9.52358 8.97801 9.37011 9.53283C8.93528 11.1469 8.39814 12.7357 7.83542 14.3245C7.52848 15.2071 6.50535 15.9889 6.50535 16.9473C6.50535 17.2499 6.70998 17.6534 6.99134 17.956C7.45175 18.4604 7.73311 18.6369 8.14236 18.6369C8.3214 18.6369 8.52603 18.5865 8.70508 18.4352C9.08875 18.1073 9.29338 17.7795 9.39569 17.3255C10.0607 14.3497 11.9791 12.3322 14.1021 10.9955C14.8183 10.5416 15.7902 10.0624 15.9181 10.0624C16.0493 10.0624 16.2544 10.1221 16.461 10.1802C15.8676 11.1346 15.3867 12.1411 15.074 13.2148C14.9717 13.5679 14.9206 13.8957 14.9206 14.2488C14.9206 14.8288 15.0485 15.4341 15.2531 16.0141C15.5345 16.8212 15.9949 17.5273 16.6343 17.8551C17.8109 18.4604 18.655 18.7883 19.4223 18.7883C19.8572 18.7883 20.1897 18.7126 20.5478 18.5108C22.229 17.573 23.2597 16.8615 24.004 16.2295C24.0244 16.8703 24.1525 17.2253 24.6147 17.7038C25.0751 18.183 25.7913 18.6117 26.7377 18.8135C26.8912 18.8387 27.0446 18.8639 27.1981 18.8639C28.2809 18.8639 29.323 17.9962 30.1265 17.136C30.2195 17.3237 30.3547 17.5029 30.5488 17.7038C31.0093 18.183 31.7254 18.6117 32.6718 18.8135C32.8253 18.8387 32.9788 18.8639 33.1322 18.8639C34.4006 18.8639 35.6131 17.6732 36.4518 16.6987C36.7313 17.2687 37.5124 17.8323 38.4525 18.2839C38.7083 18.41 39.0152 18.4856 39.2966 18.4856C40.3964 18.4856 41.1894 17.603 41.8032 16.9473C43.3891 15.2324 44.2588 13.1139 44.9238 10.4407C44.9749 10.239 45.0517 10.1633 45.154 10.1633C45.4098 10.1633 45.7423 10.1633 46.1004 10.1129C46.791 10.012 47.3281 9.78502 47.9676 9.68415C48.3513 9.60849 48.3001 9.48239 48.6582 9.3563C48.914 9.25542 49.1186 9.15454 49.1186 8.90235C49.1186 8.47363 48.3257 8.01968 47.1235 8.01968C46.1771 8.01968 45.6144 8.09534 45.2307 8.09534C44.6424 8.09534 44.489 7.91881 44.1053 6.93526C44.1053 6.93526 44.489 7.91881 44.1053 6.93526C44.0285 6.73351 43.9518 6.63263 43.7216 6.43088C43.1845 5.97693 42.5194 5.82562 41.9823 5.82562C40.7034 5.82562 39.6035 7.11179 38.8362 8.19622C38.6571 8.44841 38.4013 8.65016 38.2223 8.92757C37.1687 10.4859 36.1598 12.2431 36.0354 14.1372ZM3.33366 5.54821C3.97311 5.54821 4.33121 5.49777 4.40794 5.49777C4.48468 5.49777 4.53583 5.52299 4.53583 5.59865C4.53583 5.64909 4.51026 5.72474 4.33121 6.10303C2.77094 9.40674 1.69665 12.7609 0.750262 16.4681C0.724684 16.569 0.647949 16.9473 0.647949 17.3255C0.647949 17.6786 0.750261 18.0569 1.10836 18.2586C1.79897 18.6622 2.36169 18.8387 2.74536 18.8387C3.30808 18.8387 3.58944 18.4856 3.58944 17.9056C3.58944 17.4012 3.61502 16.8716 3.69175 16.4681C4.40794 12.7609 5.48223 9.86068 7.14481 6.83438C7.93773 5.39689 8.04004 5.32124 8.04004 5.19514C8.04004 5.1447 8.01447 5.06905 7.96331 4.99339C8.98644 4.76642 10.2142 4.6151 11.3396 4.6151C11.4675 4.6151 11.9791 4.79163 12.0558 4.86729C12.2349 5.04383 12.4139 5.22036 12.7209 5.22036C12.9766 5.22036 13.4115 5.04383 13.5649 4.94295C13.923 4.69076 14.1021 4.41335 14.1021 3.9594C14.1021 3.53068 12.4906 2.47147 11.3652 2.47147C9.98399 2.47147 8.73066 2.64801 7.55406 2.87498C7.0425 2.97586 5.20087 3.25327 3.8708 3.25327C2.59189 3.25327 2.66863 3.07673 2.13148 3.07673C1.82455 3.07673 1.67108 3.22805 1.54319 3.35414C1.41529 3.48024 1.33856 3.98462 1.33856 4.43857C1.33856 4.66554 1.33856 4.84207 1.46645 4.99339C1.85012 5.44733 2.59189 5.54821 3.33366 5.54821C3.33366 5.54821 2.59189 5.54821 3.33366 5.54821ZM22.2871 7.59096C22.2871 7.81793 22.2104 7.96924 21.9034 8.44841C21.5965 8.92757 21.7244 8.92757 21.3407 9.43195C20.5989 10.4155 19.6781 11.399 18.4759 12.4835C18.1434 12.7861 18.0923 12.7861 18.0411 12.7861C18.0155 12.7861 17.9644 12.7609 17.9644 12.7104C17.9644 12.6348 17.99 12.5339 18.2457 12.0043C19.0387 10.3651 20.0106 9.28064 21.0849 8.22144C21.6732 7.6414 22.0313 7.43964 22.1592 7.43964C22.2359 7.43964 22.2871 7.46486 22.2871 7.59096C22.2871 7.59096 22.2871 7.46486 22.2871 7.59096ZM41.9567 8.24666C41.9823 8.24666 42.0079 8.27187 42.0335 8.32231C42.059 8.39797 42.1102 8.47363 42.2381 8.5745C42.3404 8.65016 42.3404 9.00323 42.3404 9.28064C42.3404 11.7269 40.9336 13.7444 39.5524 15.7872C39.2454 16.2411 39.0664 16.3168 38.9129 16.3168C38.785 16.3168 38.5804 15.9889 38.5037 15.7872C38.4013 15.5098 38.3758 15.1819 38.3758 15.0558C38.3758 13.0887 40.2686 10.1633 41.5219 8.54928C41.7265 8.27187 41.88 8.24666 41.9567 8.24666C41.9567 8.24666 41.88 8.24666 41.9567 8.24666Z" fill="#1E1E1E" fill-opacity="0.4"/>
</svg>
